<svg width="895" height="1145" viewBox="0 0 895 1145" fill="none" xmlns="http://www.w3.org/2000/svg">
<g filter="url(#filter0_f)">
<circle cx="572.5" cy="572.5" r="322.5" fill="#FF8400" fill-opacity="0.3"/>
</g>
<path d="M573 317L573.806 576.621L601.745 318.506L575.409 576.79L630.176 323.009L576.986 577.125L657.98 330.459L578.519 577.623L684.853 340.775L579.991 578.279L710.5 353.843L581.387 579.084L734.641 369.52L582.692 580.032L757.011 387.635L583.889 581.111L777.365 407.989L584.968 582.308L795.48 430.359L585.916 583.613L811.157 454.5L586.721 585.009L824.225 480.147L587.377 586.481L834.541 507.02L587.875 588.014L841.991 534.824L588.21 589.591L846.494 563.255L588.379 591.194L848 592L588.379 592.806L846.494 620.745L588.21 594.409L841.991 649.176L587.875 595.986L834.541 676.98L587.377 597.519L824.225 703.853L586.721 598.991L811.157 729.5L585.916 600.387L795.48 753.641L584.968 601.692L777.365 776.011L583.889 602.889L757.011 796.365L582.692 603.968L734.641 814.48L581.387 604.916L710.5 830.157L579.991 605.721L684.853 843.225L578.519 606.377L657.98 853.541L576.986 606.875L630.176 860.991L575.409 607.21L601.745 865.494L573.806 607.379L573 867L572.194 607.379L544.255 865.494L570.591 607.21L515.824 860.991L569.014 606.875L488.02 853.541L567.481 606.377L461.147 843.225L566.009 605.721L435.5 830.157L564.613 604.916L411.359 814.48L563.308 603.968L388.989 796.365L562.111 602.889L368.635 776.011L561.032 601.692L350.52 753.641L560.084 600.387L334.843 729.5L559.279 598.991L321.775 703.853L558.623 597.519L311.459 676.98L558.125 595.986L304.009 649.176L557.79 594.409L299.506 620.745L557.621 592.806L298 592L557.621 591.194L299.506 563.255L557.79 589.591L304.009 534.824L558.125 588.014L311.459 507.02L558.623 586.481L321.775 480.147L559.279 585.009L334.843 454.5L560.084 583.613L350.52 430.359L561.032 582.308L368.635 407.989L562.111 581.111L388.989 387.635L563.308 580.032L411.359 369.52L564.613 579.084L435.5 353.843L566.009 578.279L461.147 340.775L567.481 577.623L488.02 330.459L569.014 577.125L515.824 323.009L570.591 576.79L544.255 318.506L572.194 576.621L573 317Z" fill="#FF8400"/>
<defs>
<filter id="filter0_f" x="0" y="0" width="1145" height="1145" filterUnits="userSpaceOnUse" color-interpolation-filters="sRGB">
<feFlood flood-opacity="0" result="BackgroundImageFix"/>
<feBlend mode="normal" in="SourceGraphic" in2="BackgroundImageFix" result="shape"/>
<feGaussianBlur stdDeviation="125" result="effect1_foregroundBlur"/>
</filter>
</defs>
</svg>
