<svg width="27" height="27" viewBox="0 0 31 31" fill="none" xmlns="http://www.w3.org/2000/svg">
<path d="M9.04167 12.9168H25.8333C26.1759 12.9168 26.5044 13.0529 26.7467 13.2951C26.9889 13.5374 27.125 13.8659 27.125 14.2085V27.1251C27.125 27.4677 26.9889 27.7962 26.7467 28.0385C26.5044 28.2807 26.1759 28.4168 25.8333 28.4168H5.16667C4.8241 28.4168 4.49555 28.2807 4.25332 28.0385C4.01109 27.7962 3.875 27.4677 3.875 27.1251V14.2085C3.875 13.8659 4.01109 13.5374 4.25332 13.2951C4.49555 13.0529 4.8241 12.9168 5.16667 12.9168H6.45833V11.6251C6.4576 9.5878 7.14496 7.60992 8.409 6.01211C9.67303 4.41431 11.4397 3.29024 13.4225 2.82212C15.4053 2.354 17.4881 2.56926 19.3333 3.43301C21.1785 4.29677 22.6779 5.75838 23.5884 7.58093L21.2776 8.73568C20.6273 7.4337 19.5562 6.38956 18.2381 5.77253C16.92 5.1555 15.4321 5.00176 14.0157 5.33624C12.5993 5.67072 11.3374 6.47381 10.4345 7.6153C9.53171 8.75679 9.04089 10.1698 9.04167 11.6251V12.9168ZM6.45833 15.5001V25.8335H24.5417V15.5001H6.45833ZM12.9167 19.3751H18.0833V21.9585H12.9167V19.3751Z" fill="white"/>
</svg>
