<svg width="88" height="88" viewBox="0 0 88 88" fill="none" xmlns="http://www.w3.org/2000/svg">
<circle cx="44" cy="44" r="44" fill="white"/>
<path d="M36.9992 35.7915V52.2088L51.0692 44.0002L36.9992 35.7915ZM34.0872 28.6935L58.6059 42.9968C58.7816 43.0997 58.9273 43.2468 59.0286 43.4234C59.1299 43.6 59.1831 43.8001 59.1831 44.0037C59.1831 44.2073 59.1299 44.4073 59.0286 44.584C58.9273 44.7606 58.7816 44.9076 58.6059 45.0105L34.0872 59.3138C33.9094 59.4176 33.7073 59.4725 33.5014 59.4729C33.2955 59.4733 33.0932 59.4192 32.915 59.3161C32.7368 59.213 32.589 59.0646 32.4867 58.8859C32.3844 58.7073 32.3312 58.5047 32.3325 58.2988V29.6992C32.3325 29.4939 32.3866 29.2922 32.4894 29.1146C32.5922 28.9369 32.7401 28.7895 32.9181 28.6872C33.0961 28.585 33.2979 28.5315 33.5032 28.5322C33.7084 28.5329 33.9099 28.5877 34.0872 28.6912V28.6935Z" fill="#FF8400"/>
</svg>
