<?xml version="1.0" standalone="no"?>
<!DOCTYPE svg PUBLIC "-//W3C//DTD SVG 1.1//EN" "http://www.w3.org/Graphics/SVG/1.1/DTD/svg11.dtd" >
<svg>
<metadata>
Created by FontForge 20090914 at Mon Dec 28 03:02:58 2020
 By www-data
Copyright &#194;&#169; 2013 by Jonathan Hill . All rights reserved. Desktop use is strictly prohibited.
</metadata>
<defs>
<font id="NuberNext-Regular" horiz-adv-x="1228" >
  <font-face 
    font-family="NuberNext Regular"
    font-weight="400"
    font-stretch="normal"
    units-per-em="2048"
    panose-1="2 11 5 4 3 3 2 2 2 4"
    ascent="1550"
    descent="-498"
    x-height="1024"
    cap-height="1434"
    bbox="-827 -426 2345 2120"
    underline-thickness="0"
    underline-position="0"
    unicode-range="U+0020-U+FB02"
  />
<missing-glyph horiz-adv-x="1024" 
d="M102 61v1229h820v-1229h-820zM246 205h532v942h-532v-942z" />
    <glyph glyph-name="f_f.liga" unicode="ff" horiz-adv-x="1327" 
d="M1206 1325c-57.333 0 -98.167 -13.6689 -122.5 -41.002s-36.5 -69.666 -36.5 -126.999v-133h221v-119h-221v-905h-164v905h-484v-905h-163v905h-173v119h173v131c0 109.333 25.167 186.5 75.5 231.5s123.166 67.5 218.499 67.5c40.667 0 80.334 -2.66699 119.001 -8v-129
c-31.333 5.33301 -61.333 8 -90 8c-57.333 0 -98.333 -13.667 -123 -41s-37 -69.666 -37 -126.999v-133h484v131c0 109.333 25.167 186.5 75.5 231.5s123.5 67.5 219.5 67.5c40.667 0 80 -2.66699 118 -8v-129c-31.333 5.33301 -61.333 8 -90 8z" />
    <glyph glyph-name="f_f_i.liga" unicode="ffi" horiz-adv-x="1794" 
d="M1659 1024l-0.000976562 -1024h-164v905h-448v-905h-164v905h-484v-905h-163v905h-173v119h173v131c0 109.333 25.167 186.5 75.5 231.5s123.166 67.5 218.499 67.5c40.667 0 80.334 -2.66699 119.001 -8v-129c-31.333 5.33301 -61.333 8 -90 8
c-57.333 0 -98.333 -13.667 -123 -41s-37 -69.666 -37 -126.999v-133h484v131c0 109.333 25.167 186.5 75.5 231.5s123.5 67.5 219.5 67.5c40.667 0 80 -2.66699 118 -8v-129c-31.333 5.33301 -61.333 8 -90 8c-57.333 0 -98.166 -13.667 -122.499 -41
s-36.5 -69.666 -36.5 -126.999v-133h612zM1493 1348h168v-209h-168v209z" />
    <glyph glyph-name="f_f_l.liga" unicode="ffl" horiz-adv-x="1800" 
d="M883 1155c0 109.333 25.166 186.498 75.499 231.498s123.5 67.5 219.5 67.5c40.667 0 80 -2.66699 118 -8v-129c-31.333 5.33301 -61.333 8 -90 8c-57.333 0 -98.166 -13.667 -122.499 -41s-36.5 -69.666 -36.5 -126.999v-133h221v-119h-221v-905h-164v905h-484v-905
h-163v905h-173v119h173v131c0 109.333 25.167 186.5 75.5 231.5s123.166 67.5 218.499 67.5c40.667 0 80.334 -2.66699 119.001 -8v-129c-31.333 5.33301 -61.333 8 -90 8c-57.333 0 -98.333 -13.667 -123 -41s-37 -69.666 -37 -126.999v-133h484v131zM1495 1434h164v-1434
h-164v1434z" />
    <glyph glyph-name="f_i.liga" unicode="fi" horiz-adv-x="1146" 
d="M1012 1024v-1024h-164v905h-449v-905h-163v905h-173v119h173v131c0 109.333 25.167 186.5 75.5 231.5s123.166 67.5 218.499 67.5c40.667 0 80.334 -2.66699 119.001 -8v-129c-31.333 5.33301 -61.333 8 -90 8c-57.333 0 -98.333 -13.667 -123 -41
s-37 -69.666 -37 -126.999v-133h613zM846 1348h168v-209h-168v209z" />
    <glyph glyph-name="f_l.liga" unicode="fl" horiz-adv-x="1153" 
d="M236 1155c0 109.333 25.167 186.499 75.5 231.499s123.166 67.5 218.499 67.5c40.667 0 80.334 -2.66699 119.001 -8v-129c-31.333 5.33301 -61.333 8 -90 8c-57.333 0 -98.333 -13.667 -123 -41s-37 -69.666 -37 -126.999v-133h222v-119h-222v-905h-163v905h-173v119
h173v131zM848 1434h164v-1434h-164v1434z" />
    <glyph glyph-name=".notdef" horiz-adv-x="1024" 
d="M102 61v1229h820v-1229h-820zM246 205h532v942h-532v-942z" />
    <glyph glyph-name="space" unicode=" " horiz-adv-x="471" 
 />
    <glyph glyph-name="exclam" unicode="!" horiz-adv-x="559" 
d="M205 426l-10 1008h170l-19 -1008h-141zM197 0v209h163v-209h-163z" />
    <glyph glyph-name="quotedbl" unicode="&#x22;" horiz-adv-x="903" 
d="M236 909l-17 543h156l-19 -543h-120zM545 909l-17 543h156l-18 -543h-121z" />
    <glyph glyph-name="numbersign" unicode="#" horiz-adv-x="1392" 
d="M1260 854h-248l-72 -332h254l-23 -127h-258l-84 -395h-137l84 395h-282l-84 -395h-138l84 395h-247l22 127h252l72 332h-260l24 127h262l88 412h138l-89 -412h283l88 412h137l-88 -412h244zM803 522l71 332h-282l-72 -332h283z" />
    <glyph glyph-name="dollar" unicode="$" horiz-adv-x="1204" 
d="M1114 397c0 -125.333 -37.5 -222.5 -112.5 -291.5s-180.167 -109.5 -315.5 -121.5v-199h-162v197c-144.667 9.33301 -255.167 48.833 -331.5 118.5s-114.5 166.5 -114.5 290.5h170c0 -181.333 116 -272 348 -272s348 92 348 276c0 154 -84 239.333 -252 256l-192 19
c-120 12 -214.833 51.167 -284.5 117.5s-104.5 157.5 -104.5 273.5c0 118.667 36.167 209.834 108.5 273.501s173.833 101.5 304.5 113.5v201h162v-199c135.333 -9.33301 236 -44.833 302 -106.5s99 -144.834 99 -249.501h-167c0 148.667 -102 223 -306 223
c-222.667 0 -333.667 -85.333 -333 -256c0 -72.667 20.833 -127 62.5 -163s104.5 -59 188.5 -69l201 -22c116 -12 208.5 -53 277.5 -123s103.5 -165.667 103.5 -287z" />
    <glyph glyph-name="percent" unicode="%" horiz-adv-x="1800" 
d="M446 -35l764 1503h131l-761 -1503h-134zM434 643c-104 0 -176 30.9971 -216 92.9971s-60 164 -60 306c0 148.667 21.167 252.834 63.5 312.501s113.833 89.5 214.5 89.5c104 0 176.167 -31.167 216.5 -93.5s60.5 -165.166 60.5 -308.499
c0 -147.333 -21.5 -250.666 -64.5 -309.999s-114.5 -89 -214.5 -89zM434 755.997c58.667 0 99.334 20.5 122.001 61.5s34 116 34 225s-11.333 184.333 -34 226s-63.334 62.5 -122.001 62.5c-57.333 0 -97.166 -20.833 -119.499 -62.5s-33.5 -117.167 -33.5 -226.5
c0 -108 11.167 -182.667 33.5 -224s62.166 -62 119.499 -62zM1364 -12.0029c-104 0 -176.166 30.999 -216.499 92.999s-60.5 164 -60.5 306c0 148.667 21.167 252.667 63.5 312s114.166 89 215.499 89c104 0 176 -31 216 -93s60 -164.667 60 -308
c0 -147.333 -21.333 -250.666 -64 -309.999s-114 -89 -214 -89zM1364 99.9961c58.667 0 99.334 20.5 122.001 61.5s34 116.167 34 225.5s-11.333 184.833 -34 226.5s-63.334 62.5 -122.001 62.5c-57.333 0 -97.333 -20.833 -120 -62.5s-34 -117.167 -34 -226.5
c0 -108 11.333 -182.833 34 -224.5s62.667 -62.5 120 -62.5z" />
    <glyph glyph-name="ampersand" unicode="&#x26;" horiz-adv-x="1550" 
d="M1446 0l-191 0.00195312l-135 139c-108 -106.667 -265 -159.667 -471 -159c-169.333 0 -296 34 -380 102s-126 165.667 -126 293c0 165.333 76.667 289.666 230 372.999l102 55l-39 41c-52 53.333 -90.167 101.833 -114.5 145.5s-36.5 96.167 -36.5 157.5
c0 204.667 114.667 307 344 307c117.333 0 205 -26.667 263 -80s87 -127 87 -221c0 -126.667 -59.333 -224.334 -178 -293.001l-123 -72l424 -434c31.333 79.333 47 177 47 293h156c0 -158.667 -33 -291.667 -99 -399zM428 1153c0 -45.333 8.83301 -84.001 26.5 -116.001
s48.5 -69.667 92.5 -113l53 -54l119 78c79.333 50.667 119 119.667 119 207c0 126.667 -68.333 190.334 -205 191.001c-76.667 0 -130 -16.833 -160 -50.5s-45 -81.167 -45 -142.5zM659 98.001c164 0 287 44.999 369 134.999l-471 486l-96 -60
c-105.333 -64 -158 -158 -158 -282c0 -87.333 31 -155.666 93 -204.999s149.667 -74 263 -74z" />
    <glyph glyph-name="quotesingle" unicode="'" horiz-adv-x="593" 
d="M236 909l-17 543h156l-19 -543h-120z" />
    <glyph glyph-name="parenleft" unicode="(" horiz-adv-x="784" 
d="M682 -338c-98 0 -175 9.66797 -231 29.001c-75.333 26 -135.5 66.333 -180.5 121s-80.833 144 -107.5 268s-40 288.333 -40 493c0 202 13.333 364.5 40 487.5s62.5 211.833 107.5 266.5s105.167 96.334 180.5 125.001c50.667 19.333 127.667 29 231 29v-99
c-72.667 0 -134 -11.333 -184 -34c-83.333 -38 -140.333 -112 -171 -222s-46 -294.833 -46 -554.5s15.333 -444.334 46 -554.001s87.667 -183.834 171 -222.501c50.667 -23.333 112 -35 184 -35v-98z" />
    <glyph glyph-name="parenright" unicode=")" horiz-adv-x="784" 
d="M102 -338v97.999c72.667 0 134.334 11.667 185.001 35c83.333 38 140.333 112 171 222s46 294.833 46 554.5s-15.333 444.334 -46 554.001s-87.667 183.834 -171 222.501c-50.667 23.333 -112.334 34.666 -185.001 33.999v99c98 0 175.333 -9.66699 232 -29
c76.667 -26 137.5 -66.667 182.5 -122s80.5 -144.333 106.5 -267s39 -286 39 -490c0 -204.667 -13.333 -369 -40 -493s-62.667 -213.333 -108 -268s-105.333 -95 -180 -121c-56.667 -19.333 -134 -29 -232 -29z" />
    <glyph glyph-name="asterisk" unicode="*" horiz-adv-x="1056" 
d="M340 680l-102 76l211 266l-326 90l39 119l315 -109l-18 330h131l-12 -330l317 109l39 -119l-326 -90l211 -266l-102 -76l-189 285z" />
    <glyph glyph-name="plus" unicode="+" 
d="M1047 600v-147h-359v-365h-147v365h-359v147h359v352h147v-352h359z" />
    <glyph glyph-name="comma" unicode="," horiz-adv-x="497" 
d="M156 246h184v-246l-119 -317h-102l92 317h-55v246z" />
    <glyph glyph-name="hyphen" unicode="-" horiz-adv-x="927" 
d="M164 524v138h600v-138h-600z" />
    <glyph glyph-name="period" unicode="." horiz-adv-x="497" 
d="M156 0v246h184v-246h-184z" />
    <glyph glyph-name="slash" unicode="/" horiz-adv-x="759" 
d="M33 -45l553 1524h143l-553 -1524h-143z" />
    <glyph glyph-name="zero" unicode="0" horiz-adv-x="1171" 
d="M586 -20c-181.333 0 -307.668 55.166 -379.001 165.499s-107 291.833 -107 544.5c0 274.667 37.333 464.834 112 570.501s199.334 158.5 374.001 158.5c182.667 0 309.167 -56 379.5 -168s105.5 -299 105.5 -561c0 -266 -37.167 -450.833 -111.5 -554.5
s-198.833 -155.5 -373.5 -155.5zM585.998 118.999c120 0 202.832 41 248.499 123s68.5 231.333 68.5 448c0 225.333 -22.833 380 -68.5 464s-128.5 126 -248.5 126s-203 -42 -249 -126s-69 -238.667 -69 -464c0 -216 23.333 -365.167 70 -447.5
s129.334 -123.5 248.001 -123.5z" />
    <glyph glyph-name="one" unicode="1" horiz-adv-x="645" 
d="M518 1393v-1393h-168v1223l-309 -215v143l295 242h182z" />
    <glyph glyph-name="two" unicode="2" horiz-adv-x="1087" 
d="M250 317v-182.002h751v-135h-919v326c0 110.667 28.333 196.334 85 257.001s142.334 105.334 257.001 134.001l184 47c86 22 146.167 53.5 180.5 94.5s51.5 99.5 51.5 175.5c0 90 -22.167 155.167 -66.5 195.5s-115.833 60.5 -214.5 60.5
c-100 0 -171.667 -21.833 -215 -65.5s-65 -114.5 -65 -212.5h-168c1.33301 148.667 40.833 253.667 118.5 315s188.167 92 331.5 92c147.333 0 258.333 -31 333 -93s112 -160.667 112 -296c0 -108 -26.333 -194 -79 -258s-143.334 -113 -272.001 -147l-176 -47
c-86 -23.333 -145.667 -57 -179 -101s-50 -97.333 -50 -160z" />
    <glyph glyph-name="three" unicode="3" horiz-adv-x="1140" 
d="M823 733c79.333 -26 135.005 -67.334 167.005 -124.001s48 -132.667 48 -228c0 -144.667 -38.5 -247.334 -115.5 -308.001s-200.167 -91 -369.5 -91c-96.667 0 -178.167 9.5 -244.5 28.5s-115.833 47 -148.5 84s-55.167 75.5 -67.5 115.5s-18.5 87.333 -18.5 142h157
c0 -86 24.667 -146.667 74 -182s132 -53 248 -53c121.333 0 205.166 20.5 251.499 61.5s69.5 113.167 69.5 216.5c0 105.333 -22.833 176.833 -68.5 214.5s-129.834 56.5 -252.501 56.5h-150v133h150c113.333 0 191.166 17.333 233.499 52s63.5 97 63.5 187
c0 96.667 -21.5 162.834 -64.5 198.501s-120.5 53.5 -232.5 53.5c-106.667 0 -182.167 -16.667 -226.5 -50s-67.833 -88.333 -70.5 -165h-162c1.33301 50.667 8.16602 94.834 20.499 132.501s34.5 73.5 66.5 107.5s79.167 59.833 141.5 77.5s139.166 26.5 230.499 26.5
c162.667 0 280.167 -28 352.5 -84s108.5 -152 108.5 -288c0 -84.667 -14.167 -152 -42.5 -202s-77.833 -87.333 -148.5 -112z" />
    <glyph glyph-name="four" unicode="4" horiz-adv-x="1140" 
d="M1090 522v-133h-213v-389h-162v389h-660v133l623 871h199v-871h213zM221 522h494v723z" />
    <glyph glyph-name="five" unicode="5" horiz-adv-x="1132" 
d="M621 911c161.333 0 274.001 -37.834 338.001 -113.501s96 -189.167 96 -340.5c0 -181.333 -40 -306.166 -120 -374.499s-200.667 -102.5 -362 -102.5c-180 0 -304.5 30.333 -373.5 91s-103.5 152.334 -103.5 275.001h152c0 -84.667 24.5 -144.334 73.5 -179.001
s131.5 -52 247.5 -52c121.333 0 207 25.167 257 75.5s75 136.5 75 258.5c0 124 -24.5 210.833 -73.5 260.5s-131.5 74.5 -247.5 74.5c-106.667 0 -182.834 -16 -228.501 -48s-68.5 -84.667 -68.5 -158h-156v815h860v-131h-704v-445c71.333 62.667 184 94 338 94z" />
    <glyph glyph-name="six" unicode="6" horiz-adv-x="1136" 
d="M647 901c150 0 255.502 -38.5 316.502 -115.5s91.5 -187.167 91.5 -330.5c0 -173.333 -39.667 -295.5 -119 -366.5s-191.333 -106.5 -336 -106.5c-100 0 -183 14.333 -249 43s-116.833 74 -152.5 136s-60.334 133.333 -74.001 214s-20.5 180.334 -20.5 299.001
c0 148.667 11.667 273.167 35 373.5s58.166 176.833 104.499 229.5s97.5 89.5 153.5 110.5s123 31.5 201 31.5c140.667 0 245.167 -29.333 313.5 -88s102.5 -139 102.5 -241h-158c0 65.333 -22.5 116 -67.5 152s-108.5 54 -190.5 54c-112 0 -195 -42.333 -249 -127
s-83.667 -227.334 -89 -428.001c76.667 106.667 205.667 160 387 160zM590.002 117c108 0 186.832 27 236.499 81s74.5 139.667 74.5 257c0 116 -23.167 198.833 -69.5 248.5s-120.833 74.5 -223.5 74.5c-96.667 0 -175.667 -27.667 -237 -83s-97.666 -126 -108.999 -212
c8 -134 37.333 -228.5 88 -283.5s130.667 -82.5 240 -82.5z" />
    <glyph glyph-name="seven" unicode="7" horiz-adv-x="944" 
d="M43 1393h852v-136l-528 -1257h-166l530 1257h-688v136z" />
    <glyph glyph-name="eight" unicode="8" horiz-adv-x="1157" 
d="M831 748c157.333 -56 236.001 -178.332 236.001 -366.999c0 -128.667 -35.833 -227.667 -107.5 -297s-199.834 -104 -384.501 -104c-160 0 -280.833 30 -362.5 90s-122.5 159.667 -122.5 299c0 195.333 77.333 321.666 232 378.999c-140.667 53.333 -211 159 -211 317
c0 236 155.667 354 467 354c312.667 0 469 -116.667 469 -350c-0.666992 -158 -72.667 -265 -216 -321zM580.001 1294c-102.667 0 -180.333 -20.833 -233 -62.5s-79 -100.5 -79 -176.5c0 -160 104 -240 312 -240c206 0 309 79.833 309 239.5s-103 239.5 -309 239.5z
M580.002 109.001c120 0 205.833 23.1689 257.5 69.502s77.5 114.5 77.5 204.5c0 100 -26.167 173.833 -78.5 221.5s-137.833 71.5 -256.5 71.5c-121.333 0 -208 -24.333 -260 -73s-78 -121.334 -78 -218.001c0 -92.667 27 -161.834 81 -207.501s139.667 -68.5 257 -68.5z
" />
    <glyph glyph-name="nine" unicode="9" horiz-adv-x="1136" 
d="M539 1419c100 0 183 -14.334 249 -43.001s116.667 -74 152 -136s59.833 -133.333 73.5 -214s20.5 -180.334 20.5 -299.001c0 -148.667 -11.5 -273.167 -34.5 -373.5s-57.833 -176.833 -104.5 -229.5s-98 -89.5 -154 -110.5s-122.667 -31.5 -200 -31.5
c-140.667 0 -245.167 29.333 -313.5 88s-102.5 139 -102.5 241h158c0 -65.333 22.5 -116.166 67.5 -152.499s108.5 -54.5 190.5 -54.5c112 0 194.833 42.333 248.5 127s83.5 227.334 89.5 428.001c-76.667 -106.667 -205.667 -159.667 -387 -159
c-150 0 -255.5 38.5 -316.5 115.5s-91.5 187.167 -91.5 330.5c0 173.333 39.667 295.5 119 366.5s191.333 106.5 336 106.5zM530 622.999c96.667 0 175.833 27.5 237.5 82.5s98.167 125.833 109.5 212.5c-8 134 -37.333 228.5 -88 283.5s-130.667 82.5 -240 82.5
c-108 0 -186.833 -27 -236.5 -81s-74.5 -139.667 -74.5 -257c0 -116 23 -198.833 69 -248.5s120.333 -74.5 223 -74.5z" />
    <glyph glyph-name="colon" unicode=":" horiz-adv-x="497" 
d="M156 778v246h184v-246h-184zM156 0v246h184v-246h-184z" />
    <glyph glyph-name="semicolon" unicode=";" horiz-adv-x="497" 
d="M156 1024h184v-246h-184v246zM156 0v246h184v-246l-119 -317h-102l92 317h-55z" />
    <glyph glyph-name="less" unicode="&#x3c;" 
d="M1067 993v-168l-741 -309l741 -317v-168l-907 395v172z" />
    <glyph glyph-name="equal" unicode="=" 
d="M111 657v148h1005v-148h-1005zM111 231v148h1005v-148h-1005z" />
    <glyph glyph-name="greater" unicode="&#x3e;" 
d="M162 993l907 -395v-172l-907 -395v168l741 317l-741 309v168z" />
    <glyph glyph-name="question" unicode="?" horiz-adv-x="1210" 
d="M465 406l-4 158.999c-1.33301 87.333 51 149.666 157 186.999l72 24c82 28.667 140 60.834 174 96.501s51 90.167 51 163.5c0 182.667 -109.667 274.334 -329 275.001c-206 0 -309.333 -75.333 -310 -226h-165c1.33301 110.667 41.5 198.167 120.5 262.5
s195.167 96.5 348.5 96.5c155.333 0 278 -33.167 368 -99.5s135 -165.5 135 -297.5c0 -181.333 -91.333 -305 -274 -371l-88 -31c-72.667 -26 -109 -69.667 -109 -131v-108h-147zM453 -0.000976562v209h172v-209h-172z" />
    <glyph glyph-name="at" unicode="@" horiz-adv-x="1763" 
d="M903 1454c233.333 0 408.169 -54.6729 524.502 -164.006s174.5 -282.666 174.5 -519.999c0 -69.333 -5.16699 -131.666 -15.5 -186.999s-23 -100.5 -38 -135.5s-34.833 -65.167 -59.5 -90.5s-46.5 -43.666 -65.5 -54.999s-42.5 -20.5 -70.5 -27.5
s-48.833 -10.833 -62.5 -11.5s-30.834 -1 -51.501 -1h-166v107c-53.333 -80.667 -138 -121 -254 -121c-194 0 -291 123.333 -291 370c0 260.667 104.667 391.334 314 392.001c104 0 179.667 -33 227 -99v84h119v-628h53c23.333 0 42.5 1 57.5 3s35.5 9.83301 61.5 23.5
s46.833 33.5 62.5 59.5s29.667 66.167 42 120.5s18.5 119.833 18.5 196.5c0 210 -45.833 359.167 -137.5 447.5s-237.834 132.5 -438.501 132.5c-220 0 -375.667 -55.667 -467 -167s-137 -288.666 -137 -531.999c0 -266 46.833 -452.667 140.5 -560s249.5 -161 467.5 -161
c117.333 0 214.333 13.667 291 41l21 -104c-94 -28.667 -202.667 -43 -326 -43c-254 0 -436.667 63.833 -548 191.5s-167 332.834 -167 615.501c0 290.667 57 500.5 171 629.5s297.333 193.5 550 193.5zM1069 548.994v163.999c0 61.333 -20.833 110.833 -62.5 148.5
s-94.5 56.5 -158.5 56.5c-135.333 0 -203 -97.667 -203 -293c0 -188.667 67 -283 201 -283c65.333 0 118.833 18.833 160.5 56.5s62.5 87.834 62.5 150.501z" />
    <glyph glyph-name="A" unicode="A" horiz-adv-x="1361" 
d="M1116 0l-127 365h-616l-127 -365h-185l527 1434h186l526 -1434h-184zM418 498h526l-262 762z" />
    <glyph glyph-name="B" unicode="B" horiz-adv-x="1257" 
d="M903 745c173.333 -39.333 259.999 -153.331 259.999 -341.998c0 -140.667 -42.667 -243 -128 -307s-199.666 -96 -342.999 -96h-528v1434h467c142 0 256 -29.833 342 -89.5s129 -152.834 129 -279.501c0 -150.667 -66.333 -257.334 -199 -320.001zM626.999 1296h-293
v-489h336c87.333 0 153.5 20.833 198.5 62.5s67.5 101.5 67.5 179.5c0 164.667 -103 247 -309 247zM663.999 137.002c222.667 0 333.667 92.333 333 277c0 176 -103 264 -309 264h-354v-541h330z" />
    <glyph glyph-name="C" unicode="C" horiz-adv-x="1310" 
d="M698 -20c-392 0 -587.667 246.332 -587 738.999c0 244.667 47.667 428.334 143 551.001s246.333 184 453 184c168 0 298.333 -38.167 391 -114.5s139 -186.833 139 -331.5h-164c0 206 -121.333 309 -364 309c-154 0 -263.833 -48.5 -329.5 -145.5
s-98.5 -249.167 -98.5 -456.5c0 -206 32 -356.5 96 -451.5s171 -142.5 321 -142.5c116 0 206.5 25.167 271.5 75.5s99.5 125.5 103.5 225.5h164c-4 -140.667 -53.833 -249.5 -149.5 -326.5s-225.5 -115.5 -389.5 -115.5z" />
    <glyph glyph-name="D" unicode="D" horiz-adv-x="1374" 
d="M715 1434c82 0 154.669 -11.333 218.002 -34s120.666 -60 171.999 -112s90.666 -125 117.999 -219s41 -208.667 41 -344c0 -483.333 -183 -725 -549 -725h-551v1434h551zM715.002 139c54.667 0 102.5 7.83105 143.5 23.498s80.167 43.334 117.5 83.001
s66.333 99.834 87 180.501s31 180.334 31 299.001c0 120 -10.333 219.667 -31 299s-50.5 137.666 -89.5 174.999s-78.167 62.5 -117.5 75.5s-86.333 19.5 -141 19.5h-381v-1155h381z" />
    <glyph glyph-name="E" unicode="E" horiz-adv-x="1146" 
d="M334 139h741v-139h-911v1434h885v-140h-715v-477h688v-139h-688v-539z" />
    <glyph glyph-name="F" unicode="F" horiz-adv-x="1087" 
d="M1012 1294h-678v-508h649v-139h-649v-647h-170v1434h848v-140z" />
    <glyph glyph-name="G" unicode="G" horiz-adv-x="1392" 
d="M1268 723v-722.998h-146v174c-78 -130 -218.667 -194.833 -422 -194.5s-352.333 62.833 -447 187.5s-142 309.167 -142 553.5s49.5 427.666 148.5 549.999s254.167 183.5 465.5 183.5c169.333 0 301.166 -38.167 395.499 -114.5s141.5 -186.833 141.5 -331.5h-164
c0 102.667 -32.167 179.834 -96.5 231.501s-156.5 77.5 -276.5 77.5c-160 0 -274 -48.167 -342 -144.5s-102 -249.5 -102 -459.5c0 -206 34.333 -355.5 103 -448.5s186.334 -139.5 353.001 -139.5c42 0 81.833 4.16699 119.5 12.5s76.667 22.666 117 42.999
s72.5 52.666 96.5 96.999s36 98.5 36 162.5v158h-383v125h545z" />
    <glyph glyph-name="H" unicode="H" horiz-adv-x="1390" 
d="M1057 1434h170v-1434h-170v676h-723v-676h-170v1434h170v-619h723v619z" />
    <glyph glyph-name="I" unicode="I" horiz-adv-x="497" 
d="M164 0v1434h170v-1434h-170z" />
    <glyph glyph-name="J" unicode="J" horiz-adv-x="1073" 
d="M496 -20c-165.333 0 -279.166 32.334 -341.499 97.001s-93.5 159 -93.5 283h170c0 -87.333 20.5 -149.333 61.5 -186s107.5 -55 199.5 -55c95.333 0 162.166 22.167 200.499 66.5s57.5 125.166 57.5 242.499v1006h170v-1006c0 -172 -35.5 -289.667 -106.5 -353
s-176.833 -95 -317.5 -95z" />
    <glyph glyph-name="K" unicode="K" horiz-adv-x="1251" 
d="M979 0l-494 752l-151 -154v-598h-170v1434h170v-635l602 635h221l-561 -570l598 -864h-215z" />
    <glyph glyph-name="L" unicode="L" horiz-adv-x="1083" 
d="M334 139h696v-139h-866v1434h170v-1295z" />
    <glyph glyph-name="M" unicode="M" horiz-adv-x="1677" 
d="M1513 1434v-1434h-159v1167l-422 -1167h-184l-424 1167v-1167h-160v1434h231l445 -1260l442 1260h231z" />
    <glyph glyph-name="N" unicode="N" horiz-adv-x="1402" 
d="M1237 4l2 -4h-178l-731 1196v-1196h-166v1434h198l709 -1160v1160h166v-1430z" />
    <glyph glyph-name="O" unicode="O" horiz-adv-x="1404" 
d="M702.5 -20c-394.333 0 -591.5 245.667 -591.5 737c0 246 47.333 430.333 142 553s244.5 184 449.5 184s354.833 -61.5 449.5 -184.5s142 -307.167 142 -552.5c0 -491.333 -197.167 -737 -591.5 -737zM702.5 121c151.667 0 259.834 47.5 324.501 142.5
s97 246.167 97 453.5s-32.333 359.166 -97 455.499s-172.834 144.5 -324.501 144.5s-259.834 -48.167 -324.501 -144.5s-97 -248.166 -97 -455.499s32.333 -358.5 97 -453.5s172.834 -142.5 324.501 -142.5z" />
    <glyph glyph-name="P" unicode="P" horiz-adv-x="1185" 
d="M631 1434c314 0 471 -137.333 471 -412c0 -278.667 -157 -418 -471 -418h-297v-604h-170v1434h467zM627 741c206 0 309 94.333 309 283c0 181.333 -103 272 -309 272h-293v-555h293z" />
    <glyph glyph-name="Q" unicode="Q" horiz-adv-x="1404" 
d="M1294 717c0 -349.333 -99 -574.667 -297 -676l103 -264l-131 -47l-105 266c-52 -10.667 -106 -16 -162 -16c-394.667 0 -591.667 245.667 -591 737c0 246 47.333 430.333 142 553s244.5 184 449.5 184s354.833 -61.333 449.5 -184s142 -307 142 -553zM834 458.999
l108.002 -279c121.333 78 182 257 182 537c0 207.333 -32.333 359.166 -97 455.499s-172.834 144.5 -324.501 144.5s-259.834 -48.167 -324.501 -144.5s-97 -248.166 -97 -455.499s32.333 -358.5 97 -453.5s172.667 -142.5 324 -142.5c35.333 0 72.333 3.33301 111 10
l-111 281z" />
    <glyph glyph-name="R" unicode="R" horiz-adv-x="1253" 
d="M1036 461l152.001 -460.999h-178l-146 465c-20.667 66.667 -49.667 112 -87 136s-96.333 36 -177 36h-266v-637h-170v1434h467c143.333 0 257.666 -31.833 342.999 -95.5s128 -165.167 128 -304.5c0 -174.667 -69.667 -292 -209 -352
c35.333 -15.333 62.5 -39.333 81.5 -72s39.5 -82.334 61.5 -149.001zM627.001 1296h-293v-522h293c91.333 0 165 21.167 221 63.5s84 108.5 84 198.5c0 88.667 -28 154.167 -84 196.5s-129.667 63.5 -221 63.5z" />
    <glyph glyph-name="S" unicode="S" horiz-adv-x="1204" 
d="M592 -20c-166.667 0 -293.999 34.998 -381.999 104.998s-132 172 -132 306h170c0 -181.333 116 -272 348 -272s348 92 348 276c0 154 -84 239.333 -252 256l-192 19c-120 12 -214.833 51.167 -284.5 117.5s-104.5 157.5 -104.5 273.5
c0 132.667 44.667 231.334 134 296.001s213 97 371 97c157.333 0 275.166 -31 353.499 -93s117.5 -150.333 117.5 -265h-167c0 148.667 -102 223 -306 223c-222.667 0 -333.667 -86 -333 -258c0 -72.667 20.833 -127 62.5 -163s104.5 -59 188.5 -69l201 -22
c116 -12 208.5 -52.833 277.5 -122.5s103.5 -165.5 103.5 -287.5c0 -139.333 -46 -243.666 -138 -312.999s-220 -104 -384 -104z" />
    <glyph glyph-name="T" unicode="T" horiz-adv-x="1179" 
d="M1128 1434v-140h-452v-1294h-170v1294h-455v140h1077z" />
    <glyph glyph-name="U" unicode="U" horiz-adv-x="1370" 
d="M690 -20c-195.333 0 -334.667 49.333 -418 148s-125 239.667 -125 423v883h170v-883c0 -157.333 32.167 -269 96.5 -335s156.5 -99 276.5 -99c134 0 229.333 37.5 286 112.5s85 182.167 85 321.5v883h170v-883c0 -206 -46.833 -352.667 -140.5 -440
s-227.167 -131 -400.5 -131z" />
    <glyph glyph-name="V" unicode="V" horiz-adv-x="1333" 
d="M1090 1434h186l-508 -1434h-205l-506 1434h187l422 -1262z" />
    <glyph glyph-name="W" unicode="W" horiz-adv-x="1906" 
d="M1671 1434h178l-381 -1434h-176l-338 1214l-340 -1214h-174l-383 1434h179l294 -1217l338 1217h172l336 -1221z" />
    <glyph glyph-name="X" unicode="X" horiz-adv-x="1247" 
d="M1190 0h-193l-370 618l-373 -618h-197l473 745l-436 689h197l342 -572l342 572h196l-444 -686z" />
    <glyph glyph-name="Y" unicode="Y" horiz-adv-x="1304" 
d="M1247 1434l-514 -848v-586h-170v584l-506 850h195l397 -707l406 707h192z" />
    <glyph glyph-name="Z" unicode="Z" horiz-adv-x="1150" 
d="M246 137h844v-137h-1033v137l830 1159h-776v138h958v-138z" />
    <glyph glyph-name="bracketleft" unicode="[" horiz-adv-x="714" 
d="M123 -313v1798h483v-111h-332v-1577h338v-110h-489z" />
    <glyph glyph-name="backslash" unicode="\" horiz-adv-x="759" 
d="M729 -45h-143l-553 1524h143z" />
    <glyph glyph-name="bracketright" unicode="]" horiz-adv-x="714" 
d="M102 -313v110h338v1577h-331v111h483v-1798h-490z" />
    <glyph glyph-name="asciicircum" unicode="^" 
d="M1081 582h-143l-324 704l-323 -704h-144l400 852h135z" />
    <glyph glyph-name="underscore" unicode="_" horiz-adv-x="1343" 
d="M225 -279v115h893v-115h-893z" />
    <glyph glyph-name="grave" unicode="`" horiz-adv-x="614" 
d="M512 1157h-162l-248 289h209z" />
    <glyph glyph-name="a" unicode="a" horiz-adv-x="1046" 
d="M528 1044c144.667 0 247.501 -30 308.501 -90s91.5 -145.333 91.5 -256v-698h-158v147c-72.667 -112 -190 -167.667 -352 -167c-116 0 -203.333 28.667 -262 86s-88 134.333 -88 231c0 109.333 35.167 188.833 105.5 238.5s157.833 74.5 262.5 74.5h328v97
c0 74 -20.167 128 -60.5 162s-101.5 51 -183.5 51c-80.667 0 -142.834 -16.5 -186.501 -49.5s-65.5 -80.833 -65.5 -143.5h-153c0 112 37.833 192.833 113.5 242.5s175.5 74.5 299.5 74.5zM444.001 106c84.667 0 159.167 25.668 223.5 77.001s96.5 124 96.5 218v99h-295
c-70.667 0 -128 -16.833 -172 -50.5s-66 -83.834 -66 -150.501c0 -65.333 19.5 -113.833 58.5 -145.5s90.5 -47.5 154.5 -47.5z" />
    <glyph glyph-name="b" unicode="b" horiz-adv-x="1140" 
d="M651 1044c274.667 0 412.001 -174 412.001 -522c0 -362 -146.667 -542.667 -440 -542c-150 0 -258 49.667 -324 149v-129h-158v1434h164v-549c75.333 106 190.666 159 345.999 159zM612.001 106c94 0 165.333 32.499 214 97.499s73 169.167 73 312.5
c0 138 -23.5 238.667 -70.5 302s-119.167 95 -216.5 95c-87.333 0 -160.333 -26.167 -219 -78.5s-88 -122.166 -88 -209.499v-230c0 -86 29.667 -155.667 89 -209s132 -80 218 -80z" />
    <glyph glyph-name="c" unicode="c" horiz-adv-x="1052" 
d="M561 -20c-168 0 -290.5 44.332 -367.5 132.999s-115.5 221.667 -115.5 399c0 178.667 38.5 312 115.5 400s199.5 132 367.5 132c278.667 0 420 -116.667 424 -350h-162c-6.66699 144.667 -94 217 -262 217c-112 0 -193.167 -32.667 -243.5 -98
s-75.5 -165.666 -75.5 -300.999c0 -134 25.167 -234 75.5 -300s131.5 -99 243.5 -99c166.667 0 254 70.333 262 211h162c-6.66699 -229.333 -148 -344 -424 -344z" />
    <glyph glyph-name="d" unicode="d" horiz-adv-x="1140" 
d="M836 1434l163 0.000976562v-1434h-157v150c-74 -113.333 -193 -170 -357 -170c-272 0 -407.667 173.333 -407 520c0 363.333 146.667 544.666 440 543.999c146 0 252 -45.667 318 -137v527zM522 111.001c91.333 0 166.501 25.832 225.501 77.499
s88.5 121.834 88.5 210.501v230c0 86 -29.833 155.667 -89.5 209s-133.834 80 -222.501 80c-188.667 0 -282.667 -136.667 -282 -410c0 -136.667 23.167 -237 69.5 -301s116.5 -96 210.5 -96z" />
    <glyph glyph-name="e" unicode="e" horiz-adv-x="1071" 
d="M244 461c5.33301 -116 32.834 -203.001 82.501 -261.001s127.834 -87 234.501 -87c82 0 145.167 17 189.5 51s68.5 81.667 72.5 143h162c-2.66699 -105.333 -39.834 -186.166 -111.501 -242.499s-175.834 -84.5 -312.501 -84.5c-168 0 -290.5 44.333 -367.5 133
s-115.5 221.667 -115.5 399c0 354.667 159.667 532 479 532c297.333 0 446.333 -178 447 -534c0 -5.33301 -0.5 -13.5 -1.5 -24.5s-1.5 -19.167 -1.5 -24.5h-757zM557.001 912.999c-102.667 0 -178.832 -27.5 -228.499 -82.5s-77.834 -141.5 -84.501 -259.5h596
c-6.66699 116 -33 202 -79 258s-114 84 -204 84z" />
    <glyph glyph-name="f" unicode="f" horiz-adv-x="679" 
d="M559 1325c-57.333 0 -98.333 -13.668 -123 -41.001s-37 -69.666 -37 -126.999v-133h222v-119h-222v-905h-163v905h-173v119h173v131c0 109.333 25.167 186.5 75.5 231.5s123.166 67.5 218.499 67.5c40.667 0 80.334 -2.66699 119.001 -8v-129
c-31.333 5.33301 -61.333 8 -90 8z" />
    <glyph glyph-name="g" unicode="g" horiz-adv-x="1122" 
d="M842 1024h157.001v-1018c0 -135.333 -33.333 -238.5 -100 -309.5s-184 -106.5 -352 -106.5c-273.333 0 -410 106.667 -410 320h158c2.66699 -130 94 -195 274 -195c94 0 162 21.167 204 63.5s63 115.5 63 219.5v201c-75.333 -106.667 -192.333 -160 -351 -160
c-131.333 0 -232 40 -302 120s-105 197 -105 351c0 180 38.5 314 115.5 402s185.833 132 326.5 132c151.333 0 258.666 -48.333 321.999 -145v125zM522.001 170c91.333 0 166.502 26 225.502 78s88.5 121.667 88.5 209v172c0 86 -29.833 155.667 -89.5 209
s-133.834 80 -222.501 80c-188.667 0 -282.667 -133.333 -282 -400c-0.666992 -232 92.666 -348 279.999 -348z" />
    <glyph glyph-name="h" unicode="h" horiz-adv-x="1130" 
d="M666 1044c228 0 342 -123.333 342 -370v-674h-164v668c0 82 -17.5 144.5 -52.5 187.5s-92.833 64.5 -173.5 64.5c-91.333 0 -166.333 -26.667 -225 -80s-88 -123 -88 -209v-631h-164v1434h164v-551c76.667 107.333 197 161 361 161z" />
    <glyph glyph-name="i" unicode="i" horiz-adv-x="434" 
d="M133 1139v209h168v-209h-168zM135 0v1024h164v-1024h-164z" />
    <glyph glyph-name="j" unicode="j" horiz-adv-x="448" 
d="M147 1139v209h168v-209h-168zM-92 -410v131.001c80.667 0 142 18.667 184 56c38 34 57.333 88.667 58 164v1083h163v-1083c0 -132.667 -43 -228.334 -129 -287.001c-61.333 -42.667 -153.333 -64 -276 -64z" />
    <glyph glyph-name="k" unicode="k" horiz-adv-x="1054" 
d="M831 0l-376 543l-150 -137v-406h-164v1434h164v-842l465 432h217l-420 -379l463 -645h-199z" />
    <glyph glyph-name="l" unicode="l" horiz-adv-x="446" 
d="M141 0v1434h164v-1434h-164z" />
    <glyph glyph-name="m" unicode="m" horiz-adv-x="1734" 
d="M1274 1044c225.333 0 338 -123.333 338 -370v-674h-164v668c0 168 -70.333 252 -211 252c-86 0 -154.333 -26.333 -205 -79s-76 -122.667 -76 -210v-631h-163v668c0 168 -70.333 252 -211 252c-83.333 0 -152 -28.333 -206 -85s-81 -124.667 -81 -204v-631h-164v1024h158
v-141c70.667 108 182.667 161.667 336 161c150 0 249.667 -59.333 299 -178c68 118.667 184.667 178 350 178z" />
    <glyph glyph-name="n" unicode="n" horiz-adv-x="1120" 
d="M655 1044c228 0 342 -123.333 342 -370v-674h-163v668c0 82 -17.5 144.5 -52.5 187.5s-92.833 64.5 -173.5 64.5c-91.333 0 -166.333 -26.667 -225 -80s-88 -123 -88 -209v-631h-164v1024h158v-150c77.333 113.333 199.333 170 366 170z" />
    <glyph glyph-name="o" unicode="o" horiz-adv-x="1122" 
d="M561 -20c-168 0 -290.5 44.333 -367.5 133s-115.5 221.667 -115.5 399c0 178.667 38.5 312 115.5 400s199.5 132 367.5 132s290.5 -44 367.5 -132s115.5 -221.333 115.5 -400c0 -177.333 -38.5 -310.333 -115.5 -399s-199.5 -133 -367.5 -133zM561 113
c112 0 193.333 33 244 99s76 166 76 300c0 135.333 -25.333 235.666 -76 300.999s-132 98 -244 98s-193.167 -32.667 -243.5 -98s-75.5 -165.666 -75.5 -300.999c0 -134 25.167 -234 75.5 -300s131.5 -99 243.5 -99z" />
    <glyph glyph-name="p" unicode="p" horiz-adv-x="1140" 
d="M651 1044c274.667 0 412.001 -174 412.001 -522c0 -362 -146.667 -542.667 -440 -542c-143.333 0 -249.333 47 -318 141v-531h-164v1434h158v-150c73.333 113.333 190.666 170 351.999 170zM612.001 106c94 0 165.333 32.499 214 97.499s73 169.167 73 312.5
c0 138 -23.5 238.667 -70.5 302s-119.167 95 -216.5 95c-87.333 0 -160.333 -26.167 -219 -78.5s-88 -122.166 -88 -209.499v-230c0 -86 29.667 -155.667 89 -209s132 -80 218 -80z" />
    <glyph glyph-name="q" unicode="q" horiz-adv-x="1140" 
d="M842 1024l157 0.000976562v-1434h-163v549c-75.333 -106.667 -192.333 -159.667 -351 -159c-272 0 -407.667 173.333 -407 520c0 363.333 146.667 544.666 440 543.999c152.667 0 260.667 -48.333 324 -145v125zM522 111.001c91.333 0 166.501 25.832 225.501 77.499
s88.5 121.834 88.5 210.501v230c0 86 -29.833 155.667 -89.5 209s-133.834 80 -222.501 80c-188.667 0 -282.667 -136.667 -282 -410c0 -136.667 23.167 -237 69.5 -301s116.5 -96 210.5 -96z" />
    <glyph glyph-name="r" unicode="r" horiz-adv-x="704" 
d="M602 1044c19.333 0 40 -1.33203 62 -3.99902v-143c-22 5.33301 -48.667 8 -80 8c-83.333 0 -152.333 -27.333 -207 -82s-82 -132.334 -82 -233.001v-590h-164v1024h158v-160c68 120 172.333 180 313 180z" />
    <glyph glyph-name="s" unicode="s" horiz-adv-x="985" 
d="M492 -20c-277.333 0 -417.999 107.001 -421.999 321.001h166c0 -66.667 23.5 -116.167 70.5 -148.5s109.5 -48.5 187.5 -48.5c87.333 0 151.5 16.833 192.5 50.5s61.5 79.167 61.5 136.5c0 46.667 -15.833 84.167 -47.5 112.5s-76.167 46.166 -133.5 53.499l-149 16
c-208.667 24.667 -313.334 119.667 -314.001 285c0 191.333 131.333 286.666 394 285.999c254 0 382.333 -97.333 385 -292h-158c0 113.333 -75 170 -225 170c-74 0 -131.167 -13.667 -171.5 -41s-60.5 -65.666 -60.5 -114.999c0 -95.333 59.333 -150 178 -164l156 -18
c206 -24.667 309 -123 309 -295c0.666992 -206 -139 -309 -419 -309z" />
    <glyph glyph-name="t" unicode="t" horiz-adv-x="700" 
d="M627 905h-232v-629c0 -58.667 11.333 -100.5 34 -125.5s60.667 -37.5 114 -37.5c20.667 0 46.667 1.33301 78 4v-129c-38 -5.33301 -76.333 -8 -115 -8c-94 0 -162.5 20.333 -205.5 61s-64.5 115.667 -64.5 225v639h-187v119h187v276h159v-276h232v-119z" />
    <glyph glyph-name="u" unicode="u" horiz-adv-x="1103" 
d="M811 1024l162 0.000976562v-1024h-156v141c-72.667 -108 -188.667 -161.667 -348 -161c-118.667 0 -207 31.667 -265 95s-87 151.666 -87 264.999v684h164v-664c0 -169.333 74.333 -254 223 -254c83.333 0 155.333 24 216 72s91 115.667 91 203v643z" />
    <glyph glyph-name="v" unicode="v" horiz-adv-x="1032" 
d="M823 1024h176l-387 -1024h-192l-387 1024h176l307 -860z" />
    <glyph glyph-name="w" unicode="w" horiz-adv-x="1652" 
d="M1423 1024h176l-346 -1024h-188l-244 838l-252 -838h-188l-328 1024h176l248 -862l256 862h174l252 -866z" />
    <glyph glyph-name="x" unicode="x" horiz-adv-x="1011" 
d="M979 0h-186l-291 414l-287 -414h-182l375 522l-349 502h185l262 -393l262 393h176l-342 -498z" />
    <glyph glyph-name="y" unicode="y" horiz-adv-x="1036" 
d="M827 1024h177l-551 -1434h-156l160 410h-35l-389 1024h176l307 -868z" />
    <glyph glyph-name="z" unicode="z" horiz-adv-x="950" 
d="M260 133h633v-133h-842v133l629 758h-594v133h795v-133z" />
    <glyph glyph-name="braceleft" unicode="{" horiz-adv-x="833" 
d="M731 -311c-105.333 0 -190.668 16.3369 -256.001 49.0039c-105.333 53.333 -158 150.333 -158 291v336c0 49.333 -14 88.5 -42 117.5s-64.333 43.5 -109 43.5h-43v123h43c45.333 0 81.833 14.667 109.5 44s41.5 68.666 41.5 117.999v336
c0 140.667 52.667 237.667 158 291c65.333 32.667 150.666 49 255.999 49v-119c-64 0 -116.667 -10.333 -158 -31c-69.333 -34 -104 -100.667 -104 -200v-320c0 -50.667 -12.667 -96.834 -38 -138.501s-59.666 -71.834 -102.999 -90.501
c44 -19.333 78.5 -49.833 103.5 -91.5s37.5 -87.834 37.5 -138.501v-319c0 -100 34.667 -167 104 -201c40.667 -20.667 93.334 -31 158.001 -31v-118z" />
    <glyph glyph-name="bar" unicode="|" horiz-adv-x="624" 
d="M246 -344v1880h133v-1880h-133z" />
    <glyph glyph-name="braceright" unicode="}" horiz-adv-x="833" 
d="M102 -311l0.000976562 117.999c64 0 116.667 10.333 158 31c69.333 34 104.333 101 105 201v319c0 50.667 12.5 96.834 37.5 138.501s59.5 72.167 103.5 91.5c-44 19.333 -78.5 49.666 -103.5 90.999s-37.5 87.333 -37.5 138v320c0 100 -35 166.667 -105 200
c-40.667 20.667 -93.334 31 -158.001 31v119c105.333 0 190.666 -16.333 255.999 -49c105.333 -53.333 158 -150.333 158 -291v-336c0 -49.333 14 -88.666 42 -117.999s64.667 -44 110 -44h43v-123h-43c-45.333 0 -82 -14.667 -110 -44s-42 -68.333 -42 -117v-336
c0 -140.667 -52.667 -237.667 -158 -291c-65.333 -32.667 -150.666 -49 -255.999 -49z" />
    <glyph glyph-name="asciitilde" unicode="~" 
d="M117 393c0 83.333 21.5 147.5 64.5 192.5s102.5 67.5 178.5 67.5c49.333 0 104.666 -9.33301 165.999 -28l232 -74c40.667 -13.333 80.334 -20.333 119.001 -21c46.667 0 82.5 11.333 107.5 34s37.5 53.667 37.5 93h94c0 -80.667 -20.833 -143.167 -62.5 -187.5
s-99.834 -66.5 -174.501 -66.5c-45.333 0 -94 8.33301 -146 25l-229 74c-57.333 18 -104.666 26.667 -141.999 26c-48 0 -84.833 -11.5 -110.5 -34.5s-38.5 -56.5 -38.5 -100.5h-96z" />
    <glyph glyph-name="uni00A0" unicode="&#xa0;" horiz-adv-x="471" 
 />
    <glyph glyph-name="exclamdown" unicode="&#xa1;" horiz-adv-x="559" 
d="M197 1024h163v-209h-163v209zM205 598h141l19 -1008h-170z" />
    <glyph glyph-name="cent" unicode="&#xa2;" horiz-adv-x="1052" 
d="M561 115c166.667 0 254 69.668 262 209.001h162c-6.66699 -208.667 -126 -322 -358 -340v-195h-148v197c-139.333 13.333 -241 63.666 -305 150.999s-96 212.333 -96 375s32 287.667 96 375s165.667 137.666 305 150.999v197h148v-195
c234.667 -19.333 354 -134.666 358 -345.999h-162c-6.66699 143.333 -94 215 -262 215c-112 0 -193.167 -32.667 -243.5 -98s-75.5 -165 -75.5 -299s25.167 -233.667 75.5 -299s131.5 -98 243.5 -98z" />
    <glyph glyph-name="sterling" unicode="&#xa3;" horiz-adv-x="1449" 
d="M520 129h766.003v-129h-1118v129h188v508h-188v129h188v231c0 31.333 0.333008 57.333 1 78s4.16699 48.667 10.5 84s15 64.666 26 87.999s27.333 49.333 49 78s48.167 51.5 79.5 68.5s71.666 31.333 120.999 43s104.666 17.5 165.999 17.5
c160 0 273.667 -36.167 341 -108.5s101 -178.833 101 -319.5h-164c0 108 -22.5 183.5 -67.5 226.5s-116.5 64.5 -214.5 64.5c-110.667 0 -185.834 -22.167 -225.501 -66.5s-59.5 -121.166 -59.5 -230.499v-254h647v-129h-647v-508z" />
    <glyph glyph-name="yen" unicode="&#xa5;" horiz-adv-x="1435" 
d="M1313 1434l-344 -568h186v-116h-256l-100 -164v-66h356v-117h-356v-403h-170v403h-359v117h359v64l-99 166h-260v116h191l-338 568h194l398 -707l405 707h193z" />
    <glyph glyph-name="brokenbar" unicode="&#xa6;" horiz-adv-x="624" 
d="M246 805v731h133v-731h-133zM246 -344v731h133v-731h-133z" />
    <glyph glyph-name="section" unicode="&#xa7;" horiz-adv-x="1298" 
d="M1122 526c0 -112 -32.667 -199.332 -98 -261.999c48 -54.667 72 -130.334 72 -227.001c0 -126.667 -41 -221.834 -123 -285.501s-197.333 -95.5 -346 -95.5c-146 0 -260 30.333 -342 91s-123.667 151.667 -125 273h164c0 -162.667 101.667 -243.667 305 -243
c202 0 303 84 303 252c0 138 -71 215 -213 231l-170 19c-233.333 23.333 -350 136.333 -350 339c0 113.333 37.333 198 112 254c-56 58.667 -84 137.334 -84 236.001c0 230.667 147 346 441 346c292 0 439.333 -105.667 442 -317h-164c0 130 -89.333 194.667 -268 194
c-191.333 0 -287 -73.667 -287 -221c0 -131.333 71 -204.333 213 -219l176 -19c228 -24.667 342 -140 342 -346zM578 406.001l175.999 -19.001c58.667 -6.66699 107 -18.334 145 -35.001c39.333 39.333 59 94 59 164c0 136.667 -71 213 -213 229l-170 21
c-57.333 6.66699 -103 16.334 -137 29.001c-49.333 -36.667 -73.666 -94 -72.999 -172c0 -129.333 71 -201.666 213 -216.999z" />
    <glyph glyph-name="dieresis" unicode="&#xa8;" horiz-adv-x="702" 
d="M102 1139v174h152v-174h-152zM446 1139v174h154v-174h-154z" />
    <glyph glyph-name="copyright" unicode="&#xa9;" horiz-adv-x="1806" 
d="M903 -20c-221.333 0 -400.166 67.5 -536.499 202.5s-204.5 313.167 -204.5 534.5s68.167 399.5 204.5 534.5s315.166 202.5 536.499 202.5s400.333 -67.5 537 -202.5s205 -313.167 205 -534.5s-68.333 -399.5 -205 -534.5s-315.667 -202.5 -537 -202.5zM903 61
c194 0 350.667 60.5 470 181.5s179 279.167 179 474.5s-59.667 353.333 -179 474s-276 181 -470 181c-195.333 0 -352.333 -60 -471 -180s-178 -278.333 -178 -475s59.333 -355.167 178 -475.5s275.667 -180.5 471 -180.5zM915 297
c-248.667 0 -372.666 139.333 -371.999 418c0 139.333 30 244.166 90 314.499s154 105.5 282 105.5c102.667 0 181.667 -23.333 237 -70s83.666 -115 84.999 -205h-117c-4 120 -72.333 180 -205 180c-90 0 -154.667 -26.167 -194 -78.5s-59 -134.5 -59 -246.5
c0 -110.667 19.667 -192 59 -244s104 -78 194 -78c131.333 0 199.666 58 204.999 174h117c-1.33301 -87.333 -29.666 -154.166 -84.999 -200.499s-134.333 -69.5 -237 -69.5z" />
    <glyph glyph-name="ordfeminine" unicode="&#xaa;" horiz-adv-x="761" 
d="M385 1448c100 0 170.667 -20.832 212 -62.499s62 -100.834 62 -177.501v-481h-108v102c-49.333 -76.667 -130 -114.667 -242 -114c-80.667 0 -141 19.333 -181 58s-60 91.667 -60 159c0 75.333 24.167 130.333 72.5 165s108.833 52 181.5 52h225v65
c0 98 -56 147.333 -168 148c-116 0 -174 -44.333 -174 -133h-105c0 146 95 219 285 219zM328 803.001c58.667 0 109.833 17 153.5 51s65.5 84 65.5 150v67h-203c-49.333 0 -89 -11.167 -119 -33.5s-45 -56.833 -45 -103.5c0.666992 -87.333 50 -131 148 -131z" />
    <glyph glyph-name="guillemotleft" unicode="&#xab;" horiz-adv-x="1150" 
d="M590 825l-410 -313l410 -313v-148l-504 387v148l504 387v-148zM1044 973v-148l-409 -313l409 -313v-148l-503 387v148z" />
    <glyph glyph-name="uni00AD" unicode="&#xad;" horiz-adv-x="927" 
d="M164 524v138h600v-138h-600z" />
    <glyph glyph-name="registered" unicode="&#xae;" horiz-adv-x="1335" 
d="M667.5 1454c151.667 0 272.167 -45.001 361.5 -135.001s134 -210.167 134 -360.5s-44.667 -270.166 -134 -359.499s-209.833 -134 -361.5 -134s-272.167 44.333 -361.5 133s-134 209.667 -134 363c0 151.333 44.667 271.333 134 360s209.833 133 361.5 133z
M667.5 523.999c132.333 0 237.166 39.333 314.499 118s116 184.834 116 318.501s-38.667 239.5 -116 317.5s-182.166 117 -314.499 117s-237 -39.333 -314 -118s-115.5 -184.834 -115.5 -318.501s38.5 -239.5 115.5 -317.5s181.667 -117 314 -117zM776 947.999
c24.667 -10.667 44 -39.333 58 -86l57 -178h-72l-57 180c-8 26 -19.167 43.5 -33.5 52.5s-36.5 13.5 -66.5 13.5h-103v-246h-70v553h185c54.667 0 99 -12.333 133 -37s51 -63.667 51 -117c0 -66.667 -27.333 -111.667 -82 -135zM672 1184h-113v-201h113
c78 0 117 33.5 117 100.5s-39 100.5 -117 100.5z" />
    <glyph glyph-name="macron" unicode="&#xaf;" horiz-adv-x="686" 
d="M102 1161v123h482v-123h-482z" />
    <glyph glyph-name="degree" unicode="&#xb0;" horiz-adv-x="968" 
d="M483 901c-180 0 -270 92.167 -270 276.5s90 276.5 270 276.5c181.333 0 272 -92.167 272 -276.5s-90.667 -276.5 -272 -276.5zM485 985c114.667 0 172 64.333 172 193c0 130 -57.333 194.667 -172 194c-116 0 -174 -64.667 -174 -194c0 -128.667 58 -193 174 -193z" />
    <glyph glyph-name="plusminus" unicode="&#xb1;" 
d="M688 809h359v-147h-359v-365h-147v365h-359v147h359v352h147v-352zM193 0v147h845v-147h-845z" />
    <glyph glyph-name="uni00B2" unicode="&#xb2;" horiz-adv-x="690" 
d="M180 895l0.000976562 -95.999h447v-99h-566v201c0 68 17.833 120.5 53.5 157.5s87.5 63.167 155.5 78.5l109 26c49.333 13.333 83.5 31 102.5 53s28.5 52.333 28.5 91c0 53.333 -12.333 91.166 -37 113.499s-64.334 33.5 -119.001 33.5c-56 0 -96.167 -12.333 -120.5 -37
s-36.5 -65 -36.5 -121h-119c0 90 24.167 153.5 72.5 190.5s116.833 55.5 205.5 55.5c181.333 0 272.333 -79.667 273 -239c0 -122.667 -71.667 -200 -215 -232l-105 -27c-86 -24 -129 -73.667 -129 -149z" />
    <glyph glyph-name="uni00B3" unicode="&#xb3;" horiz-adv-x="708" 
d="M528 1143c79.333 -30 119.001 -101 119.001 -213c0 -160 -97.667 -240 -293 -240c-113.333 0 -190.5 20.167 -231.5 60.5s-61.5 95.166 -61.5 164.499h111c0 -48 14 -82.167 42 -102.5s74.667 -30.5 140 -30.5c66.667 0 113.834 13.333 141.501 40s41.5 66.667 41.5 120
c0 60 -13.333 100.667 -40 122s-74.334 32 -143.001 32h-88v92h88c64 0 107.667 9.5 131 28.5s35 53.833 35 104.5c0 90 -55.333 135 -166 135c-60 0 -102.333 -9.5 -127 -28.5s-37.667 -50.5 -39 -94.5h-116c4 65.333 25.5 116.5 64.5 153.5s111.5 55.5 217.5 55.5
c187.333 0 281 -71.667 281 -215c-0.666992 -95.333 -36.334 -156.666 -107.001 -183.999z" />
    <glyph glyph-name="acute" unicode="&#xb4;" horiz-adv-x="614" 
d="M102 1157l201 289h209l-248 -289h-162z" />
    <glyph glyph-name="paragraph" unicode="&#xb6;" horiz-adv-x="1368" 
d="M1212 1434v-119h-86v-1659h-139v1659h-209v-1659h-137v987h-80c-130 0 -232.833 32.833 -308.5 98.5s-113.5 164.667 -113.5 297s38.333 231.333 115 297s179 98.5 307 98.5h651z" />
    <glyph glyph-name="periodcentered" unicode="&#xb7;" horiz-adv-x="497" 
d="M156 498v245h184v-245h-184z" />
    <glyph glyph-name="cedilla" unicode="&#xb8;" horiz-adv-x="638" 
d="M352 -70c122.667 0 184.332 -49.668 184.999 -149.001c0 -61.333 -21.167 -106.666 -63.5 -135.999s-99.166 -44 -170.499 -44c-134 0 -201 55.333 -201 166h109c0 -48 30.667 -72 92 -72c76.667 0 115 28 115 84c0 48 -33 71.667 -99 71h-90l56 162h100z" />
    <glyph glyph-name="uni00B9" unicode="&#xb9;" horiz-adv-x="491" 
d="M369 1536v-836h-119v721l-189 -127v97l181 145h127z" />
    <glyph glyph-name="ordmasculine" unicode="&#xba;" horiz-adv-x="790" 
d="M395 723c-116 0 -200.667 30.333 -254 91s-80 151.667 -80 273c0 122.667 26.667 214.5 80 275.5s138 91.5 254 91.5s200.667 -30.333 254 -91s80 -152.667 80 -276c0 -121.333 -26.667 -212.333 -80 -273s-138 -91 -254 -91zM395.5 815
c77.667 0 133.834 22.5 168.501 67.5s52 113.167 52 204.5c0 92.667 -17.333 161.667 -52 207s-90.834 68 -168.501 68s-134 -22.5 -169 -67.5s-52.5 -114.167 -52.5 -207.5c0 -91.333 17.5 -159.5 52.5 -204.5s91.333 -67.5 169 -67.5z" />
    <glyph glyph-name="guillemotright" unicode="&#xbb;" horiz-adv-x="1150" 
d="M610 586v-148l-504 -387v148l410 313l-410 313v148zM561 973l504 -387v-148l-504 -387v148l410 313l-410 313v148z" />
    <glyph glyph-name="onequarter" unicode="&#xbc;" horiz-adv-x="1527" 
d="M1042 1468h138l-850 -1503h-135zM250 598v721l-189 -127v96l181 146h127v-836h-119zM1466 317v-90h-125v-227h-114v227h-393v90l368 519h139v-519h125zM948 317h279v414z" />
    <glyph glyph-name="onehalf" unicode="&#xbd;" horiz-adv-x="1544" 
d="M1042 1468h138l-850 -1503h-135zM250 598v721l-189 -127v96l181 146h127v-836h-119zM1034 195l0.000976562 -97h447v-98h-566v201c0 68 17.833 120.5 53.5 157.5s87.5 62.833 155.5 77.5l109 27c49.333 13.333 83.5 31 102.5 53s28.5 52 28.5 90
c0 53.333 -12.333 91.333 -37 114s-64.334 34 -119.001 34c-56 0 -96.167 -12.333 -120.5 -37s-36.5 -65 -36.5 -121h-119c0 90 24.167 153.5 72.5 190.5s116.833 55.5 205.5 55.5c181.333 0 272.333 -80 273 -240c0 -122.667 -71.667 -199.667 -215 -231l-105 -27
c-86 -24 -129 -73.667 -129 -149z" />
    <glyph glyph-name="threequarters" unicode="&#xbe;" horiz-adv-x="1714" 
d="M1229 1468h137l-850 -1503h-135zM647 827c0 -160 -97.667 -239.667 -293 -239c-113.333 0 -190.5 20.167 -231.5 60.5s-61.5 95.166 -61.5 164.499h111c0 -48 14 -82.167 42 -102.5s74.667 -30.5 140 -30.5c66.667 0 113.834 13.333 141.501 40s41.5 66.667 41.5 120
c0 60 -13.333 100.5 -40 121.5s-74.334 31.5 -143.001 31.5h-88v92h88c64 0 107.667 9.66699 131 29s35 54.333 35 105c0 90 -55.333 135 -166 135c-60 0 -102.333 -9.66699 -127 -29s-37.667 -50.666 -39 -93.999h-116c4 65.333 25.5 116.5 64.5 153.5
s111.5 55.5 217.5 55.5c187.333 0 281 -71.667 281 -215c0 -95.333 -35.667 -157 -107 -185c79.333 -30 119 -101 119 -213zM1653 317v-90h-125v-227h-115v227h-393v90l369 519h139v-519h125zM1135 317h278v414z" />
    <glyph glyph-name="questiondown" unicode="&#xbf;" horiz-adv-x="1210" 
d="M758 1024v-209h-172v209h172zM745 618l4.99902 -158.999c1.33301 -87.333 -51.334 -149.666 -158.001 -186.999l-72 -24c-82 -28.667 -140 -60.834 -174 -96.501s-51 -90.167 -51 -163.5c0 -182.667 110 -274.334 330 -275.001c206 0 309 75.333 309 226h166
c-1.33301 -110.667 -41.666 -198.167 -120.999 -262.5s-195.333 -96.5 -348 -96.5c-155.333 0 -278.166 33.167 -368.499 99.5s-135.5 165.5 -135.5 297.5c0 181.333 91.333 305 274 371l88 31c72.667 26 109 69.667 109 131v108h147z" />
    <glyph glyph-name="Agrave" unicode="&#xc0;" horiz-adv-x="1361" 
d="M743 1567h-161l-248 288h209zM1116 0l-127 365h-616l-127 -365h-185l527 1434h186l526 -1434h-184zM418 498h526l-262 762z" />
    <glyph glyph-name="Aacute" unicode="&#xc1;" horiz-adv-x="1361" 
d="M1010 1855l-248 -288h-162l201 288h209zM1116 0l-127 365h-616l-127 -365h-185l527 1434h186l526 -1434h-184zM418 498h526l-262 762z" />
    <glyph glyph-name="Acircumflex" unicode="&#xc2;" horiz-adv-x="1361" 
d="M680 1757l-141 -190h-158l223 288h152l223 -288h-158zM1116 0l-127 365h-616l-127 -365h-185l527 1434h186l526 -1434h-184zM418 498h526l-262 762z" />
    <glyph glyph-name="Atilde" unicode="&#xc3;" horiz-adv-x="1361" 
d="M547 1638c-28.667 0 -51.5 -7.16602 -68.5 -21.499s-25.5 -34.5 -25.5 -60.5h-101c0 64 16.5 114.167 49.5 150.5s78.167 54.5 135.5 54.5c34 0 69.333 -7.33301 106 -22l86 -35c31.333 -12 60 -18 86 -18c28.667 0 51.5 7.16699 68.5 21.5s25.5 34.166 25.5 59.499h101
c0 -62.667 -16.833 -112 -50.5 -148s-79.167 -54 -136.5 -54c-35.333 0 -69.333 6.66699 -102 20l-88 35c-31.333 12 -60 18 -86 18zM1116 0.000976562l-127 365h-616l-127 -365h-185l527 1434h186l526 -1434h-184zM418 498.001h526l-262 762z" />
    <glyph glyph-name="Adieresis" unicode="&#xc4;" horiz-adv-x="1361" 
d="M586 1722v-174h-152v174h152zM932 1722v-174h-154v174h154zM1116 0l-127 365h-616l-127 -365h-185l527 1434h186l526 -1434h-184zM418 498h526l-262 762z" />
    <glyph glyph-name="Aring" unicode="&#xc5;" horiz-adv-x="1361" 
d="M680 1513c-132.667 0 -199 66.333 -199 199c0 130 66.333 195 199 195s199 -65 199 -195c0 -132.667 -66.333 -199 -199 -199zM679.5 1819c-69.667 0 -104.5 -35.666 -104.5 -106.999c0 -74 34.833 -110.833 104.5 -110.5s104.5 37.166 104.5 110.499
c0 71.333 -34.833 107 -104.5 107zM1116 0.000976562l-127 365h-616l-127 -365h-185l527 1434h186l526 -1434h-184zM418 498.001h526l-262 762z" />
    <glyph glyph-name="AE" unicode="&#xc6;" horiz-adv-x="1914" 
d="M1253 137h580v-137h-727l-70 463h-567l-223 -463h-185l711 1434h1034v-138h-731l74 -483h629v-137h-607zM535 600h481l-105 696h-41z" />
    <glyph glyph-name="Ccedilla" unicode="&#xc7;" horiz-adv-x="1310" 
d="M698 121c116 0 206.499 25.1641 271.499 75.4971s99.5 125.5 103.5 225.5h164c-4 -135.333 -49.667 -241.166 -137 -317.499s-207.666 -117.833 -360.999 -124.5l-20 -50c122.667 0 184 -49.667 184 -149c0 -61.333 -21.167 -106.666 -63.5 -135.999
s-98.833 -44 -169.5 -44c-134 0 -201 55.333 -201 166h109c0 -48 30.667 -72 92 -72c76.667 0 114.667 28 114 84c0 48 -32.667 71.667 -98 71h-90l45 132c-353.333 23.333 -530 269 -530 737c0 244.667 47.667 428.334 143 551.001s246.333 184 453 184
c168 0 298.333 -38.167 391 -114.5s139 -186.833 139 -331.5h-164c0 206 -121.333 309 -364 309c-154 0 -263.833 -48.5 -329.5 -145.5s-98.5 -249.167 -98.5 -456.5c0 -206 32 -356.5 96 -451.5s171 -142.5 321 -142.5z" />
    <glyph glyph-name="Egrave" unicode="&#xc8;" horiz-adv-x="1146" 
d="M676 1567h-162l-248 288h209zM334 139h741v-139h-911v1434h885v-140h-715v-477h688v-139h-688v-539z" />
    <glyph glyph-name="Eacute" unicode="&#xc9;" horiz-adv-x="1146" 
d="M942 1855l-248 -288h-162l201 288h209zM334 139h741v-139h-911v1434h885v-140h-715v-477h688v-139h-688v-539z" />
    <glyph glyph-name="Ecircumflex" unicode="&#xca;" horiz-adv-x="1146" 
d="M612 1757l-141 -190h-158l224 288h151l223 -288h-157zM334 139h741v-139h-911v1434h885v-140h-715v-477h688v-139h-688v-539z" />
    <glyph glyph-name="Edieresis" unicode="&#xcb;" horiz-adv-x="1146" 
d="M518 1722v-174h-151v174h151zM864 1722v-174h-153v174h153zM334 139h741v-139h-911v1434h885v-140h-715v-477h688v-139h-688v-539z" />
    <glyph glyph-name="Igrave" unicode="&#xcc;" horiz-adv-x="497" 
d="M313 1567h-161l-248 288h209zM164 0v1434h170v-1434h-170z" />
    <glyph glyph-name="Iacute" unicode="&#xcd;" horiz-adv-x="497" 
d="M170 1567l201 288h209l-248 -288h-162zM164 0v1434h170v-1434h-170z" />
    <glyph glyph-name="Icircumflex" unicode="&#xce;" horiz-adv-x="497" 
d="M326 1855l223 -288h-158l-141 190l-141 -190h-158l223 288h152zM164 0v1434h170v-1434h-170z" />
    <glyph glyph-name="Idieresis" unicode="&#xcf;" horiz-adv-x="497" 
d="M35 1548v174h151v-174h-151zM309 1548v174h154v-174h-154zM164 0v1434h170v-1434h-170z" />
    <glyph glyph-name="Eth" unicode="&#xd0;" horiz-adv-x="1374" 
d="M715 1434c82 0 154.669 -11.333 218.002 -34s120.666 -60 171.999 -112s90.666 -125 117.999 -219s41 -208.667 41 -344c0 -483.333 -183 -725 -549 -725h-551v659h-164v127h164v648h551zM715.002 139c54.667 0 102.5 7.83105 143.5 23.498s80.167 43.334 117.5 83.001
s66.333 99.834 87 180.501s31 180.334 31 299.001c0 120 -10.333 219.667 -31 299s-50.5 137.666 -89.5 174.999s-78.167 62.5 -117.5 75.5s-86.333 19.5 -141 19.5h-381v-508h426v-127h-426v-520h381z" />
    <glyph glyph-name="Ntilde" unicode="&#xd1;" horiz-adv-x="1402" 
d="M575 1638c-28.667 0 -51.501 -7.16602 -68.501 -21.499s-25.5 -34.5 -25.5 -60.5h-100c0 64 16.333 114.167 49 150.5s77.667 54.5 135 54.5c34 0 69.667 -7.33301 107 -22l86 -35c30 -12 58.667 -18 86 -18c28.667 0 51.5 7.16699 68.5 21.5s25.5 34.166 25.5 59.499
h100c0 -62.667 -16.667 -112 -50 -148s-78.666 -54 -135.999 -54c-35.333 0 -69.333 6.66699 -102 20l-88 35c-30.667 12 -59.667 18 -87 18zM1237 4.00098l2 -4h-178l-731 1196v-1196h-166v1434h198l709 -1160v1160h166v-1430z" />
    <glyph glyph-name="Ograve" unicode="&#xd2;" horiz-adv-x="1404" 
d="M766 1567h-162l-248 288h209zM702.5 -20c-394.333 0 -591.5 245.667 -591.5 737c0 246 47.333 430.333 142 553s244.5 184 449.5 184s354.833 -61.5 449.5 -184.5s142 -307.167 142 -552.5c0 -491.333 -197.167 -737 -591.5 -737zM702.5 121
c151.667 0 259.834 47.5 324.501 142.5s97 246.167 97 453.5s-32.333 359.166 -97 455.499s-172.834 144.5 -324.501 144.5s-259.834 -48.167 -324.501 -144.5s-97 -248.166 -97 -455.499s32.333 -358.5 97 -453.5s172.834 -142.5 324.501 -142.5z" />
    <glyph glyph-name="Oacute" unicode="&#xd3;" horiz-adv-x="1404" 
d="M623 1567l200 288h209l-248 -288h-161zM702.5 -20c-394.333 0 -591.5 245.667 -591.5 737c0 246 47.333 430.333 142 553s244.5 184 449.5 184s354.833 -61.5 449.5 -184.5s142 -307.167 142 -552.5c0 -491.333 -197.167 -737 -591.5 -737zM702.5 121
c151.667 0 259.834 47.5 324.501 142.5s97 246.167 97 453.5s-32.333 359.166 -97 455.499s-172.834 144.5 -324.501 144.5s-259.834 -48.167 -324.501 -144.5s-97 -248.166 -97 -455.499s32.333 -358.5 97 -453.5s172.834 -142.5 324.501 -142.5z" />
    <glyph glyph-name="Ocircumflex" unicode="&#xd4;" horiz-adv-x="1404" 
d="M702 1757l-141 -190h-158l224 288h151l223 -288h-157zM702.5 1454c205 0 354.833 -61.5 449.5 -184.5s142 -307.167 142 -552.5c0 -491.333 -197.167 -737 -591.5 -737s-591.5 245.667 -591.5 737c0 246 47.333 430.333 142 553s244.5 184 449.5 184zM702.5 121
c151.667 0 259.834 47.5 324.501 142.5s97 246.167 97 453.5s-32.333 359.166 -97 455.499s-172.834 144.5 -324.501 144.5s-259.834 -48.167 -324.501 -144.5s-97 -248.166 -97 -455.499s32.333 -358.5 97 -453.5s172.834 -142.5 324.501 -142.5z" />
    <glyph glyph-name="Otilde" unicode="&#xd5;" horiz-adv-x="1404" 
d="M375 1556c0 64 16.3311 114.168 48.998 150.501s77.667 54.5 135 54.5c34 0 69.667 -7.33301 107 -22l86 -35c30 -12 58.667 -18 86 -18c28.667 0 51.5 7.16699 68.5 21.5s25.5 34.166 25.5 59.499h100c0 -62.667 -16.667 -112 -50 -148s-78.666 -54 -135.999 -54
c-35.333 0 -69.666 6.66699 -102.999 20l-88 35c-30 12 -58.667 18 -86 18c-28.667 0 -51.5 -7.16699 -68.5 -21.5s-25.5 -34.5 -25.5 -60.5h-100zM702.498 -19.999c-394.333 0 -591.5 245.667 -591.5 737c0 246 47.333 430.333 142 553s244.5 184 449.5 184
s354.833 -61.5 449.5 -184.5s142 -307.167 142 -552.5c0 -491.333 -197.167 -737 -591.5 -737zM702.498 121.001c151.667 0 259.834 47.5 324.501 142.5s97 246.167 97 453.5s-32.333 359.166 -97 455.499s-172.834 144.5 -324.501 144.5s-259.834 -48.167 -324.501 -144.5
s-97 -248.166 -97 -455.499s32.333 -358.5 97 -453.5s172.834 -142.5 324.501 -142.5z" />
    <glyph glyph-name="Odieresis" unicode="&#xd6;" horiz-adv-x="1404" 
d="M457 1548v174h151v-174h-151zM801 1548v174h153v-174h-153zM702.5 -20c-394.333 0 -591.5 245.667 -591.5 737c0 246 47.333 430.333 142 553s244.5 184 449.5 184s354.833 -61.5 449.5 -184.5s142 -307.167 142 -552.5c0 -491.333 -197.167 -737 -591.5 -737zM702.5 121
c151.667 0 259.834 47.5 324.501 142.5s97 246.167 97 453.5s-32.333 359.166 -97 455.499s-172.834 144.5 -324.501 144.5s-259.834 -48.167 -324.501 -144.5s-97 -248.166 -97 -455.499s32.333 -358.5 97 -453.5s172.834 -142.5 324.501 -142.5z" />
    <glyph glyph-name="multiply" unicode="&#xd7;" 
d="M1024 829l-303 -303l303 -305l-104 -104l-304 305l-305 -305l-104 104l305 305l-305 303l104 105l305 -303l304 303z" />
    <glyph glyph-name="Oslash" unicode="&#xd8;" horiz-adv-x="1404" 
d="M1135 1290c106.667 -118.667 159.666 -309.667 158.999 -573c0 -491.333 -197.333 -737 -592 -737c-134 0 -243.667 26.333 -329 79l-101 -161h-153l153 247c-108 121.333 -161.667 312 -161 572c0 246 47.333 430.333 142 553s244.334 184 449.001 184
c134 0 244 -26.667 330 -80l101 162h153zM280.999 717c0 -191.333 26.333 -334.001 79 -428.001l594 958c-62.667 46.667 -146.667 70 -252 70c-151.333 0 -259.333 -48.167 -324 -144.5s-97 -248.166 -97 -455.499zM701.999 120.999c151.333 0 259.5 47.5 324.5 142.5
s97.5 246.167 97.5 453.5c0 191.333 -26.667 334 -80 428l-591 -957c60.667 -44.667 143.667 -67 249 -67z" />
    <glyph glyph-name="Ugrave" unicode="&#xd9;" horiz-adv-x="1370" 
d="M754 1567h-162l-248 288h209zM690 -20c-195.333 0 -334.667 49.333 -418 148s-125 239.667 -125 423v883h170v-883c0 -157.333 32.167 -269 96.5 -335s156.5 -99 276.5 -99c134 0 229.333 37.5 286 112.5s85 182.167 85 321.5v883h170v-883
c0 -206 -46.833 -352.667 -140.5 -440s-227.167 -131 -400.5 -131z" />
    <glyph glyph-name="Uacute" unicode="&#xda;" horiz-adv-x="1370" 
d="M610 1567l201 288h209l-248 -288h-162zM690 -20c-195.333 0 -334.667 49.333 -418 148s-125 239.667 -125 423v883h170v-883c0 -157.333 32.167 -269 96.5 -335s156.5 -99 276.5 -99c134 0 229.333 37.5 286 112.5s85 182.167 85 321.5v883h170v-883
c0 -206 -46.833 -352.667 -140.5 -440s-227.167 -131 -400.5 -131z" />
    <glyph glyph-name="Ucircumflex" unicode="&#xdb;" horiz-adv-x="1370" 
d="M690 1757l-141 -190h-158l223 288h152l223 -288h-158zM1061 1434h169.999v-883c0 -206 -46.833 -352.667 -140.5 -440s-227.167 -131 -400.5 -131c-195.333 0 -334.666 49.333 -417.999 148s-125 239.667 -125 423v883h170v-883c0 -157.333 32.167 -269 96.5 -335
s156.5 -99 276.5 -99c134 0 229.333 37.5 286 112.5s85 182.167 85 321.5v883z" />
    <glyph glyph-name="Udieresis" unicode="&#xdc;" horiz-adv-x="1370" 
d="M444 1548v174h152v-174h-152zM788 1548v174h154v-174h-154zM690 -20c-195.333 0 -334.667 49.333 -418 148s-125 239.667 -125 423v883h170v-883c0 -157.333 32.167 -269 96.5 -335s156.5 -99 276.5 -99c134 0 229.333 37.5 286 112.5s85 182.167 85 321.5v883h170v-883
c0 -206 -46.833 -352.667 -140.5 -440s-227.167 -131 -400.5 -131z" />
    <glyph glyph-name="Yacute" unicode="&#xdd;" horiz-adv-x="1304" 
d="M979 1855l-248 -288h-162l201 288h209zM1247 1434l-514 -848v-586h-170v584l-506 850h195l397 -707l406 707h192z" />
    <glyph glyph-name="Thorn" unicode="&#xde;" horiz-adv-x="1185" 
d="M631 1157c314 0 471 -137.333 471 -412c0 -278.667 -157 -417.667 -471 -417h-297v-328h-170v1434h170v-277h297zM627 465c206 0 309 94.333 309 283c0 181.333 -103 272 -309 272h-293v-555h293z" />
    <glyph glyph-name="germandbls" unicode="&#xdf;" horiz-adv-x="1185" 
d="M825 807c177.333 -49.333 266.334 -182.33 267.001 -398.997c0 -155.333 -44.167 -265.5 -132.5 -330.5s-221.833 -97.5 -400.5 -97.5c-57.333 0 -103.666 3.33301 -138.999 10v123c44 -6.66699 89 -10.334 135 -11.001c134 0 229.667 24.667 287 74s86 128 86 236
c0 52 -5.83301 97.667 -17.5 137s-28.834 70.333 -51.501 93s-44.834 40.834 -66.501 54.501s-48.834 23.167 -81.501 28.5s-58 8.66602 -76 9.99902s-41.333 2 -70 2h-145v125h149c104 0 176.833 18.5 218.5 55.5s62.5 98.5 62.5 184.5c0 78 -19.833 135.667 -59.5 173
s-103.167 56 -190.5 56c-46.667 0 -87.334 -4.66699 -122.001 -14s-62.167 -23.666 -82.5 -42.999s-37 -38.166 -50 -56.499s-22 -41.833 -27 -70.5s-8.16699 -51.834 -9.5 -69.501s-2 -40.834 -2 -69.501v-1008h-166v1001c0 28.667 0.333008 51.667 1 69
s3.83398 43.666 9.50098 78.999s14 64.666 25 87.999s27.333 50 49 80s47.834 53.833 78.501 71.5s70.334 33 119.001 46s103.667 19.5 165 19.5c143.333 0 249.5 -30.667 318.5 -92s103.5 -146.666 103.5 -255.999c-0.666992 -148.667 -62.334 -248.334 -185.001 -299.001z
" />
    <glyph glyph-name="agrave" unicode="&#xe0;" horiz-adv-x="1046" 
d="M596 1157h-162l-248 289h209zM528 1044c144.667 0 247.501 -30 308.501 -90s91.5 -145.333 91.5 -256v-698h-158v147c-72.667 -112 -190 -167.667 -352 -167c-116 0 -203.333 28.667 -262 86s-88 134.333 -88 231c0 109.333 35.167 188.833 105.5 238.5
s157.833 74.5 262.5 74.5h328v97c0 74 -20.167 128 -60.5 162s-101.5 51 -183.5 51c-80.667 0 -142.834 -16.5 -186.501 -49.5s-65.5 -80.833 -65.5 -143.5h-153c0 112 37.833 192.833 113.5 242.5s175.5 74.5 299.5 74.5zM444.001 106
c84.667 0 159.167 25.668 223.5 77.001s96.5 124 96.5 218v99h-295c-70.667 0 -128 -16.833 -172 -50.5s-66 -83.834 -66 -150.501c0 -65.333 19.5 -113.833 58.5 -145.5s90.5 -47.5 154.5 -47.5z" />
    <glyph glyph-name="aacute" unicode="&#xe1;" horiz-adv-x="1046" 
d="M862 1446l-248 -289h-161l200 289h209zM528 1044c144.667 0 247.501 -30 308.501 -90s91.5 -145.333 91.5 -256v-698h-158v147c-72.667 -112 -190 -167.667 -352 -167c-116 0 -203.333 28.667 -262 86s-88 134.333 -88 231c0 109.333 35.167 188.833 105.5 238.5
s157.833 74.5 262.5 74.5h328v97c0 74 -20.167 128 -60.5 162s-101.5 51 -183.5 51c-80.667 0 -142.834 -16.5 -186.501 -49.5s-65.5 -80.833 -65.5 -143.5h-153c0 112 37.833 192.833 113.5 242.5s175.5 74.5 299.5 74.5zM444.001 106
c84.667 0 159.167 25.668 223.5 77.001s96.5 124 96.5 218v99h-295c-70.667 0 -128 -16.833 -172 -50.5s-66 -83.834 -66 -150.501c0 -65.333 19.5 -113.833 58.5 -145.5s90.5 -47.5 154.5 -47.5z" />
    <glyph glyph-name="acircumflex" unicode="&#xe2;" horiz-adv-x="1046" 
d="M532 1348l-141 -191h-158l224 289h151l223 -289h-157zM528 1044c144.667 0 247.501 -30 308.501 -90s91.5 -145.333 91.5 -256v-698h-158v147c-72.667 -112 -190 -167.667 -352 -167c-116 0 -203.333 28.667 -262 86s-88 134.333 -88 231
c0 109.333 35.167 188.833 105.5 238.5s157.833 74.5 262.5 74.5h328v97c0 74 -20.167 128 -60.5 162s-101.5 51 -183.5 51c-80.667 0 -142.834 -16.5 -186.501 -49.5s-65.5 -80.833 -65.5 -143.5h-153c0 112 37.833 192.833 113.5 242.5s175.5 74.5 299.5 74.5z
M444.001 106c84.667 0 159.167 25.668 223.5 77.001s96.5 124 96.5 218v99h-295c-70.667 0 -128 -16.833 -172 -50.5s-66 -83.834 -66 -150.501c0 -65.333 19.5 -113.833 58.5 -145.5s90.5 -47.5 154.5 -47.5z" />
    <glyph glyph-name="atilde" unicode="&#xe3;" horiz-adv-x="1046" 
d="M399 1229c-28.667 0 -51.502 -7.16699 -68.502 -21.5s-25.5 -34.5 -25.5 -60.5h-100c0 64 16.333 114.167 49 150.5s77.667 54.5 135 54.5c34 0 69.667 -7.66699 107 -23l86 -35c30 -12 58.667 -18 86 -18c28.667 0 51.5 7.16699 68.5 21.5s25.5 34.5 25.5 60.5h100
c0 -62.667 -16.667 -112.167 -50 -148.5s-78.666 -54.5 -135.999 -54.5c-35.333 0 -69.666 7 -102.999 21l-88 34c-31.333 12.667 -60 19 -86 19zM527.998 1044c144.667 0 247.501 -30 308.501 -90s91.5 -145.333 91.5 -256v-698h-158v147
c-72.667 -112 -190 -167.667 -352 -167c-116 0 -203.333 28.667 -262 86s-88 134.333 -88 231c0 109.333 35.167 188.833 105.5 238.5s157.833 74.5 262.5 74.5h328v97c0 74 -20.167 128 -60.5 162s-101.5 51 -183.5 51c-80.667 0 -142.834 -16.5 -186.501 -49.5
s-65.5 -80.833 -65.5 -143.5h-153c0 112 37.833 192.833 113.5 242.5s175.5 74.5 299.5 74.5zM443.999 106c84.667 0 159.167 25.668 223.5 77.001s96.5 124 96.5 218v99h-295c-70.667 0 -128 -16.833 -172 -50.5s-66 -83.834 -66 -150.501
c0 -65.333 19.5 -113.833 58.5 -145.5s90.5 -47.5 154.5 -47.5z" />
    <glyph glyph-name="adieresis" unicode="&#xe4;" horiz-adv-x="1046" 
d="M438 1313v-174h-151v174h151zM784 1313v-174h-153v174h153zM528 1044c144.667 0 247.501 -30 308.501 -90s91.5 -145.333 91.5 -256v-698h-158v147c-72.667 -112 -190 -167.667 -352 -167c-116 0 -203.333 28.667 -262 86s-88 134.333 -88 231
c0 109.333 35.167 188.833 105.5 238.5s157.833 74.5 262.5 74.5h328v97c0 74 -20.167 128 -60.5 162s-101.5 51 -183.5 51c-80.667 0 -142.834 -16.5 -186.501 -49.5s-65.5 -80.833 -65.5 -143.5h-153c0 112 37.833 192.833 113.5 242.5s175.5 74.5 299.5 74.5z
M444.001 106c84.667 0 159.167 25.668 223.5 77.001s96.5 124 96.5 218v99h-295c-70.667 0 -128 -16.833 -172 -50.5s-66 -83.834 -66 -150.501c0 -65.333 19.5 -113.833 58.5 -145.5s90.5 -47.5 154.5 -47.5z" />
    <glyph glyph-name="aring" unicode="&#xe5;" horiz-adv-x="1046" 
d="M532.5 1104c-132.333 0 -198.5 66.332 -198.5 198.999c0 130 66.167 194.833 198.5 194.5s198.5 -65.166 198.5 -194.499c0 -132.667 -66.167 -199 -198.5 -199zM532.5 1409c-69.667 0 -104.5 -35.333 -104.5 -106c0 -74 34.833 -111 104.5 -111s104.5 37 104.5 111
c0 70.667 -34.833 106 -104.5 106zM528 1044c144.667 0 247.501 -30 308.501 -90s91.5 -145.333 91.5 -256v-698h-158v147c-72.667 -112 -190 -167.667 -352 -167c-116 0 -203.333 28.667 -262 86s-88 134.333 -88 231c0 109.333 35.167 188.833 105.5 238.5
s157.833 74.5 262.5 74.5h328v97c0 74 -20.167 128 -60.5 162s-101.5 51 -183.5 51c-80.667 0 -142.834 -16.5 -186.501 -49.5s-65.5 -80.833 -65.5 -143.5h-153c0 112 37.833 192.833 113.5 242.5s175.5 74.5 299.5 74.5zM444.001 105.999
c84.667 0 159.167 25.668 223.5 77.001s96.5 124 96.5 218v99h-295c-70.667 0 -128 -16.833 -172 -50.5s-66 -83.834 -66 -150.501c0 -65.333 19.5 -113.833 58.5 -145.5s90.5 -47.5 154.5 -47.5z" />
    <glyph glyph-name="ae" unicode="&#xe6;" horiz-adv-x="1757" 
d="M928 483c4 -125.333 30.8359 -218.333 80.5029 -279s129.167 -91 238.5 -91c82 0 145.167 17 189.5 51s68.5 81 72.5 141h162c-2.66699 -104 -39.834 -184.167 -111.501 -240.5s-175.834 -84.5 -312.501 -84.5c-212.667 0 -354 74.333 -424 223
c-62.667 -148.667 -193 -223 -391 -223c-121.333 0 -212.333 28.333 -273 85s-91 133.334 -91 230.001c0 102.667 35.5 178.167 106.5 226.5s158.167 72.5 261.5 72.5h328v113c0 74 -20.167 128 -60.5 162s-101.5 51 -183.5 51c-80.667 0 -142.834 -16.5 -186.501 -49.5
s-65.5 -80.833 -65.5 -143.5h-153c0 110.667 37.833 191.167 113.5 241.5s171.5 75.5 287.5 75.5c176 0 287.333 -61.333 334 -184c78 121.333 209.667 182 395 182c158.667 0 272.5 -43.333 341.5 -130s103.5 -213.334 103.5 -380.001c0 -15.333 -0.333008 -26.333 -1 -33
s-1 -12 -1 -16h-760zM1237 911c-96.667 0 -169.668 -26.167 -219.001 -78.5s-78 -131.833 -86 -238.5h594c-6.66699 108 -32.667 187.833 -78 239.5s-115.666 77.5 -210.999 77.5zM444.002 106c86 0 160.833 25.333 224.5 76s95.5 123.667 95.5 219v82h-295
c-69.333 0 -126.333 -16 -171 -48s-67 -78 -67 -138c0 -64 19.5 -111.833 58.5 -143.5s90.5 -47.5 154.5 -47.5z" />
    <glyph glyph-name="ccedilla" unicode="&#xe7;" horiz-adv-x="1052" 
d="M561 113c166.667 0 253.998 70.332 261.998 210.999h162c-6.66699 -218.667 -137 -333.334 -391 -344.001l-21 -52c122.667 0 184.334 -49.667 185.001 -149c0 -61.333 -21.167 -106.666 -63.5 -135.999s-99.166 -44 -170.499 -44c-134 0 -200.667 55 -200 165h108
c0 -48 30.667 -71.667 92 -71c76.667 0 115 28 115 84c0 48 -32.667 71.667 -98 71h-90l45 134c-144.667 10.667 -250.5 60 -317.5 148s-100.5 215.333 -100.5 382c0 178.667 38.5 312 115.5 400s199.5 132 367.5 132c278.667 0 420 -116.667 424 -350h-162
c-6.66699 144.667 -94 217 -262 217c-112 0 -193.167 -32.667 -243.5 -98s-75.5 -165.666 -75.5 -300.999c0 -134 25.167 -234 75.5 -300s131.5 -99 243.5 -99z" />
    <glyph glyph-name="egrave" unicode="&#xe8;" horiz-adv-x="1071" 
d="M618 1157h-161l-248 289h209zM244 461c5.33301 -116 32.834 -203.001 82.501 -261.001s127.834 -87 234.501 -87c82 0 145.167 17 189.5 51s68.5 81.667 72.5 143h162c-2.66699 -105.333 -39.834 -186.166 -111.501 -242.499s-175.834 -84.5 -312.501 -84.5
c-168 0 -290.5 44.333 -367.5 133s-115.5 221.667 -115.5 399c0 354.667 159.667 532 479 532c297.333 0 446.333 -178 447 -534c0 -5.33301 -0.5 -13.5 -1.5 -24.5s-1.5 -19.167 -1.5 -24.5h-757zM557.001 912.999c-102.667 0 -178.832 -27.5 -228.499 -82.5
s-77.834 -141.5 -84.501 -259.5h596c-6.66699 116 -33 202 -79 258s-114 84 -204 84z" />
    <glyph glyph-name="eacute" unicode="&#xe9;" horiz-adv-x="1071" 
d="M885 1446l-248 -289h-162l201 289h209zM244 461c5.33301 -116 32.834 -203.001 82.501 -261.001s127.834 -87 234.501 -87c82 0 145.167 17 189.5 51s68.5 81.667 72.5 143h162c-2.66699 -105.333 -39.834 -186.166 -111.501 -242.499s-175.834 -84.5 -312.501 -84.5
c-168 0 -290.5 44.333 -367.5 133s-115.5 221.667 -115.5 399c0 354.667 159.667 532 479 532c297.333 0 446.333 -178 447 -534c0 -5.33301 -0.5 -13.5 -1.5 -24.5s-1.5 -19.167 -1.5 -24.5h-757zM557.001 912.999c-102.667 0 -178.832 -27.5 -228.499 -82.5
s-77.834 -141.5 -84.501 -259.5h596c-6.66699 116 -33 202 -79 258s-114 84 -204 84z" />
    <glyph glyph-name="ecircumflex" unicode="&#xea;" horiz-adv-x="1071" 
d="M555 1348l-141 -191h-158l223 289h152l223 -289h-158zM244 461c5.33301 -116 32.834 -203.001 82.501 -261.001s127.834 -87 234.501 -87c82 0 145.167 17 189.5 51s68.5 81.667 72.5 143h162c-2.66699 -105.333 -39.834 -186.166 -111.501 -242.499
s-175.834 -84.5 -312.501 -84.5c-168 0 -290.5 44.333 -367.5 133s-115.5 221.667 -115.5 399c0 354.667 159.667 532 479 532c297.333 0 446.333 -178 447 -534c0 -5.33301 -0.5 -13.5 -1.5 -24.5s-1.5 -19.167 -1.5 -24.5h-757zM557.001 912.999
c-102.667 0 -178.832 -27.5 -228.499 -82.5s-77.834 -141.5 -84.501 -259.5h596c-6.66699 116 -33 202 -79 258s-114 84 -204 84z" />
    <glyph glyph-name="edieresis" unicode="&#xeb;" horiz-adv-x="1071" 
d="M461 1313v-174h-152v174h152zM807 1313v-174h-154v174h154zM244 461c5.33301 -116 32.834 -203.001 82.501 -261.001s127.834 -87 234.501 -87c82 0 145.167 17 189.5 51s68.5 81.667 72.5 143h162c-2.66699 -105.333 -39.834 -186.166 -111.501 -242.499
s-175.834 -84.5 -312.501 -84.5c-168 0 -290.5 44.333 -367.5 133s-115.5 221.667 -115.5 399c0 354.667 159.667 532 479 532c297.333 0 446.333 -178 447 -534c0 -5.33301 -0.5 -13.5 -1.5 -24.5s-1.5 -19.167 -1.5 -24.5h-757zM557.001 912.999
c-102.667 0 -178.832 -27.5 -228.499 -82.5s-77.834 -141.5 -84.501 -259.5h596c-6.66699 116 -33 202 -79 258s-114 84 -204 84z" />
    <glyph glyph-name="igrave" unicode="&#xec;" horiz-adv-x="434" 
d="M283 1157h-162l-248 289h209zM135 0v1024h164v-1024h-164z" />
    <glyph glyph-name="iacute" unicode="&#xed;" horiz-adv-x="434" 
d="M139 1157l201 289h209l-248 -289h-162zM135 0v1024h164v-1024h-164z" />
    <glyph glyph-name="icircumflex" unicode="&#xee;" horiz-adv-x="434" 
d="M295 1446l223 -289h-158l-141 191l-141 -191h-158l223 289h152zM135 0v1024h164v-1024h-164z" />
    <glyph glyph-name="idieresis" unicode="&#xef;" horiz-adv-x="428" 
d="M0 1139v174h152v-174h-152zM274 1139v174h154v-174h-154zM135 0v1024h164v-1024h-164z" />
    <glyph glyph-name="eth" unicode="&#xf0;" horiz-adv-x="1112" 
d="M793 1296c161.333 -157.333 241.667 -392.001 241 -704.001c0 -195.333 -37.5 -345.833 -112.5 -451.5s-201.167 -158.5 -378.5 -158.5c-316.667 0 -475 154.667 -475 464c0 142 36.833 254.333 110.5 337s181.5 124 323.5 124c168 0 290 -47.667 366 -143
c-15.333 192.667 -80.666 344.334 -195.999 455.001l-236 -150l-57 88l205 131c-108 69.333 -235 104.333 -381 105l53 100c177.333 0 327.666 -42.333 450.999 -127l194 125l57 -88zM543.001 114.999c52 0 95.6641 4.99902 130.997 14.999s68.333 29.333 99 58
s53.834 70.667 69.501 126s24.834 125.333 27.501 210c-6.66699 76.667 -39.667 137.834 -99 183.501s-139 68.5 -239 68.5c-95.333 0 -169.666 -27 -222.999 -81s-80 -134 -80 -240c0 -110.667 27.333 -195 82 -253s132 -87 232 -87z" />
    <glyph glyph-name="ntilde" unicode="&#xf1;" horiz-adv-x="1120" 
d="M424 1229c-28.667 0 -51.5 -7.16699 -68.5 -21.5s-25.5 -34.5 -25.5 -60.5h-101c0 64 16.5 114.167 49.5 150.5s78.167 54.5 135.5 54.5c34 0 69.333 -7.66699 106 -23l86 -35c31.333 -12 60 -18 86 -18c28.667 0 51.5 7.16699 68.5 21.5s25.5 34.5 25.5 60.5h101
c0 -62.667 -16.833 -112.167 -50.5 -148.5s-79.167 -54.5 -136.5 -54.5c-35.333 0 -69.333 7 -102 21l-88 34c-31.333 12.667 -60 19 -86 19zM655 1044c228 0 342 -123.333 342 -370v-674h-163v668c0 82 -17.5 144.5 -52.5 187.5s-92.833 64.5 -173.5 64.5
c-91.333 0 -166.333 -26.667 -225 -80s-88 -123 -88 -209v-631h-164v1024h158v-150c77.333 113.333 199.333 170 366 170z" />
    <glyph glyph-name="ograve" unicode="&#xf2;" horiz-adv-x="1122" 
d="M629 1163h-162l-248 289h209zM561 -20c-168 0 -290.5 44.333 -367.5 133s-115.5 221.667 -115.5 399c0 178.667 38.5 312 115.5 400s199.5 132 367.5 132s290.5 -44 367.5 -132s115.5 -221.333 115.5 -400c0 -177.333 -38.5 -310.333 -115.5 -399
s-199.5 -133 -367.5 -133zM561 113c112 0 193.333 33 244 99s76 166 76 300c0 135.333 -25.333 235.666 -76 300.999s-132 98 -244 98s-193.167 -32.667 -243.5 -98s-75.5 -165.666 -75.5 -300.999c0 -134 25.167 -234 75.5 -300s131.5 -99 243.5 -99z" />
    <glyph glyph-name="oacute" unicode="&#xf3;" horiz-adv-x="1122" 
d="M485 1163l201 289h209l-248 -289h-162zM561 -20c-168 0 -290.5 44.333 -367.5 133s-115.5 221.667 -115.5 399c0 178.667 38.5 312 115.5 400s199.5 132 367.5 132s290.5 -44 367.5 -132s115.5 -221.333 115.5 -400c0 -177.333 -38.5 -310.333 -115.5 -399
s-199.5 -133 -367.5 -133zM561 113c112 0 193.333 33 244 99s76 166 76 300c0 135.333 -25.333 235.666 -76 300.999s-132 98 -244 98s-193.167 -32.667 -243.5 -98s-75.5 -165.666 -75.5 -300.999c0 -134 25.167 -234 75.5 -300s131.5 -99 243.5 -99z" />
    <glyph glyph-name="ocircumflex" unicode="&#xf4;" horiz-adv-x="1122" 
d="M565 1354l-141 -191h-158l223 289h152l223 -289h-157zM561 1044c168 0 290.5 -44 367.5 -132s115.5 -221.333 115.5 -400c0 -177.333 -38.5 -310.333 -115.5 -399s-199.5 -133 -367.5 -133s-290.5 44.333 -367.5 133s-115.5 221.667 -115.5 399
c0 178.667 38.5 312 115.5 400s199.5 132 367.5 132zM561 113c112 0 193.333 33 244 99s76 166 76 300c0 135.333 -25.333 235.666 -76 300.999s-132 98 -244 98s-193.167 -32.667 -243.5 -98s-75.5 -165.666 -75.5 -300.999c0 -134 25.167 -234 75.5 -300
s131.5 -99 243.5 -99z" />
    <glyph glyph-name="otilde" unicode="&#xf5;" horiz-adv-x="1122" 
d="M238 1153c0 64 16.3311 114.167 48.998 150.5s77.667 54.5 135 54.5c34 0 69.333 -7.66699 106 -23l86 -35c30 -12 58.667 -18 86 -18c28.667 0 51.667 7.16699 69 21.5s26 34.5 26 60.5h100c0 -62.667 -16.667 -112.167 -50 -148.5s-78.666 -54.5 -135.999 -54.5
c-35.333 0 -69.666 7 -102.999 21l-88 35c-30 12 -58.667 18 -86 18c-28.667 0 -51.5 -7.16699 -68.5 -21.5s-25.5 -34.5 -25.5 -60.5h-100zM560.998 -20c-168 0 -290.5 44.333 -367.5 133s-115.5 221.667 -115.5 399c0 178.667 38.5 312 115.5 400s199.5 132 367.5 132
s290.5 -44 367.5 -132s115.5 -221.333 115.5 -400c0 -177.333 -38.5 -310.333 -115.5 -399s-199.5 -133 -367.5 -133zM560.998 113c112 0 193.333 33 244 99s76 166 76 300c0 135.333 -25.333 235.666 -76 300.999s-132 98 -244 98s-193.167 -32.667 -243.5 -98
s-75.5 -165.666 -75.5 -300.999c0 -134 25.167 -234 75.5 -300s131.5 -99 243.5 -99z" />
    <glyph glyph-name="odieresis" unicode="&#xf6;" horiz-adv-x="1122" 
d="M319 1145v174h152v-174h-152zM664 1145v174h153v-174h-153zM561 -20c-168 0 -290.5 44.333 -367.5 133s-115.5 221.667 -115.5 399c0 178.667 38.5 312 115.5 400s199.5 132 367.5 132s290.5 -44 367.5 -132s115.5 -221.333 115.5 -400
c0 -177.333 -38.5 -310.333 -115.5 -399s-199.5 -133 -367.5 -133zM561 113c112 0 193.333 33 244 99s76 166 76 300c0 135.333 -25.333 235.666 -76 300.999s-132 98 -244 98s-193.167 -32.667 -243.5 -98s-75.5 -165.666 -75.5 -300.999c0 -134 25.167 -234 75.5 -300
s131.5 -99 243.5 -99z" />
    <glyph glyph-name="divide" unicode="&#xf7;" 
d="M541 840v215h151v-215h-151zM131 451v147h969v-147h-969zM541 -16v215h151v-215h-151z" />
    <glyph glyph-name="oslash" unicode="&#xf8;" horiz-adv-x="1122" 
d="M1044 1063l-111.999 -154c75.333 -84.667 112.666 -217 111.999 -397c0 -177.333 -38.5 -310.333 -115.5 -399s-199.5 -133 -367.5 -133c-112 0 -204 19.667 -276 59l-41 -55h-166l104 141c-69.333 87.333 -104 216.333 -104 387c0 178.667 38.5 312 115.5 400
s199.5 132 367.5 132c105.333 0 193.333 -17.667 264 -53l54 72h165zM242.001 512c0 -101.333 14.334 -184.001 43.001 -248.001l452 608c-46.667 26 -105.334 39 -176.001 39c-112 0 -193.167 -32.667 -243.5 -98s-75.5 -165.666 -75.5 -300.999zM881.002 511.999
c0 110.667 -17.333 198 -52 262l-454 -614c48 -31.333 110 -47 186 -47c112 0 193.333 33 244 99s76 166 76 300z" />
    <glyph glyph-name="ugrave" unicode="&#xf9;" horiz-adv-x="1103" 
d="M608 1157h-162l-247 289h209zM811 1024l162 0.000976562v-1024h-156v141c-72.667 -108 -188.667 -161.667 -348 -161c-118.667 0 -207 31.667 -265 95s-87 151.666 -87 264.999v684h164v-664c0 -169.333 74.333 -254 223 -254c83.333 0 155.333 24 216 72
s91 115.667 91 203v643z" />
    <glyph glyph-name="uacute" unicode="&#xfa;" horiz-adv-x="1103" 
d="M874 1446l-247 -289h-162l201 289h208zM811 1024l162 0.000976562v-1024h-156v141c-72.667 -108 -188.667 -161.667 -348 -161c-118.667 0 -207 31.667 -265 95s-87 151.666 -87 264.999v684h164v-664c0 -169.333 74.333 -254 223 -254c83.333 0 155.333 24 216 72
s91 115.667 91 203v643z" />
    <glyph glyph-name="ucircumflex" unicode="&#xfb;" horiz-adv-x="1103" 
d="M545 1348l-142 -191h-157l223 289h152l223 -289h-158zM811 1024l162 0.000976562v-1024h-156v141c-72.667 -108 -188.667 -161.667 -348 -161c-118.667 0 -207 31.667 -265 95s-87 151.666 -87 264.999v684h164v-664c0 -169.333 74.333 -254 223 -254
c83.333 0 155.333 24 216 72s91 115.667 91 203v643z" />
    <glyph glyph-name="udieresis" unicode="&#xfc;" horiz-adv-x="1103" 
d="M451 1313v-174h-152v174h152zM797 1313v-174h-154v174h154zM811 1024l162 0.000976562v-1024h-156v141c-72.667 -108 -188.667 -161.667 -348 -161c-118.667 0 -207 31.667 -265 95s-87 151.666 -87 264.999v684h164v-664c0 -169.333 74.333 -254 223 -254
c83.333 0 155.333 24 216 72s91 115.667 91 203v643z" />
    <glyph glyph-name="yacute" unicode="&#xfd;" horiz-adv-x="1036" 
d="M852 1446l-248 -289h-162l201 289h209zM827 1024h177l-551 -1434h-156l160 410h-35l-389 1024h176l307 -868z" />
    <glyph glyph-name="thorn" unicode="&#xfe;" horiz-adv-x="1140" 
d="M651 1042c274.667 0 412.001 -173.333 412.001 -520c0 -360.667 -146.667 -540.667 -440 -540c-143.333 0 -249.333 47 -318 141v-533h-164v1844h164v-551c75.333 106 190.666 159 345.999 159zM612.001 109c191.333 0 287 135.667 287 407
c0 138 -23.5 238.333 -70.5 301s-119.167 94 -216.5 94c-87.333 0 -160.333 -25.833 -219 -77.5s-88 -121.167 -88 -208.5v-230c0 -84.667 29.667 -153.5 89 -206.5s132 -79.5 218 -79.5z" />
    <glyph glyph-name="ydieresis" unicode="&#xff;" horiz-adv-x="1036" 
d="M428 1313v-174h-152v174h152zM774 1313v-174h-153v174h153zM827 1024h177l-551 -1434h-156l160 410h-35l-389 1024h176l307 -868z" />
    <glyph glyph-name="Amacron" unicode="&#x100;" horiz-adv-x="1361" 
d="M920 1694v-123h-482v123h482zM1116 0l-127 365h-616l-127 -365h-185l527 1434h186l526 -1434h-184zM418 498h526l-262 762z" />
    <glyph glyph-name="amacron" unicode="&#x101;" horiz-adv-x="1046" 
d="M772 1284v-123h-481v123h481zM528 1044c144.667 0 247.501 -30 308.501 -90s91.5 -145.333 91.5 -256v-698h-158v147c-72.667 -112 -190 -167.667 -352 -167c-116 0 -203.333 28.667 -262 86s-88 134.333 -88 231c0 109.333 35.167 188.833 105.5 238.5
s157.833 74.5 262.5 74.5h328v97c0 74 -20.167 128 -60.5 162s-101.5 51 -183.5 51c-80.667 0 -142.834 -16.5 -186.501 -49.5s-65.5 -80.833 -65.5 -143.5h-153c0 112 37.833 192.833 113.5 242.5s175.5 74.5 299.5 74.5zM444.001 106
c84.667 0 159.167 25.668 223.5 77.001s96.5 124 96.5 218v99h-295c-70.667 0 -128 -16.833 -172 -50.5s-66 -83.834 -66 -150.501c0 -65.333 19.5 -113.833 58.5 -145.5s90.5 -47.5 154.5 -47.5z" />
    <glyph glyph-name="Abreve" unicode="&#x102;" horiz-adv-x="1361" 
d="M678 1552c-112 0 -190.166 22.668 -234.499 68.001s-66.5 111.666 -66.5 198.999h119c0 -57.333 14.667 -99.333 44 -126s75.333 -40 138 -40c122.667 0 184 55.333 184 166h119c0 -100 -26.333 -169.5 -79 -208.5s-127.334 -58.5 -224.001 -58.5zM1116 0.000976562
l-127 365h-616l-127 -365h-185l527 1434h186l526 -1434h-184zM418.001 498.001h526l-262 762z" />
    <glyph glyph-name="abreve" unicode="&#x103;" horiz-adv-x="1046" 
d="M530 1143c-112 0 -190.168 22.5 -234.501 67.5s-66.5 111.167 -66.5 198.5h119c0 -57.333 14.667 -99.333 44 -126s75.333 -40 138 -40c122.667 0 184.334 55.333 185.001 166h119c0 -100 -26.5 -169.333 -79.5 -208s-127.833 -58 -224.5 -58zM527.999 1044
c144.667 0 247.501 -30 308.501 -90s91.5 -145.333 91.5 -256v-698h-158v147c-72.667 -112 -190 -167.667 -352 -167c-116 0 -203.333 28.667 -262 86s-88 134.333 -88 231c0 109.333 35.167 188.833 105.5 238.5s157.833 74.5 262.5 74.5h328v97
c0 74 -20.167 128 -60.5 162s-101.5 51 -183.5 51c-80.667 0 -142.834 -16.5 -186.501 -49.5s-65.5 -80.833 -65.5 -143.5h-153c0 112 37.833 192.833 113.5 242.5s175.5 74.5 299.5 74.5zM444 106c84.667 0 159.167 25.668 223.5 77.001s96.5 124 96.5 218v99h-295
c-70.667 0 -128 -16.833 -172 -50.5s-66 -83.834 -66 -150.501c0 -65.333 19.5 -113.833 58.5 -145.5s90.5 -47.5 154.5 -47.5z" />
    <glyph glyph-name="Aogonek" unicode="&#x104;" horiz-adv-x="1361" 
d="M1253 -287c32.667 0 69.668 6.33203 111.001 18.999v-105c-54.667 -19.333 -105.334 -28.666 -152.001 -27.999c-70.667 0 -126.5 16.333 -167.5 49s-61.5 76.334 -61.5 131.001c0 86 58.667 159.667 176 221h-43l-127 365h-616l-127 -365h-185l527 1434h186l526 -1434
h-30c-44 -22 -81 -49.333 -111 -82s-45 -67.334 -45 -104.001c0 -32.667 12.667 -57.667 38 -75s59 -26 101 -26zM418.001 497.999h526l-262 762z" />
    <glyph glyph-name="aogonek" unicode="&#x105;" horiz-adv-x="1046" 
d="M893 -287c32.667 0 69.6689 6.33203 111.002 18.999v-105c-54.667 -19.333 -105.334 -28.666 -152.001 -27.999c-70.667 0 -126.5 16.333 -167.5 49s-61.5 76.334 -61.5 131.001c0 86 58.667 159.667 176 221h-29v147c-72.667 -112 -190 -167.667 -352 -167
c-116 0 -203.333 28.667 -262 86s-88 134.333 -88 231c0 109.333 35.167 188.833 105.5 238.5s157.833 74.5 262.5 74.5h328v97c0 74 -20.167 128 -60.5 162s-101.5 51 -183.5 51c-80.667 0 -142.834 -16.5 -186.501 -49.5s-65.5 -80.833 -65.5 -143.5h-153
c0 112 37.833 192.833 113.5 242.5s175.5 74.5 299.5 74.5c144.667 0 247.5 -30 308.5 -90s91.5 -145.333 91.5 -256v-698h-19c-44 -22 -80.833 -49.333 -110.5 -82s-44.5 -67.334 -44.5 -104.001c0 -32.667 12.667 -57.667 38 -75s59 -26 101 -26zM444.002 105.999
c84.667 0 159.167 25.668 223.5 77.001s96.5 124 96.5 218v99h-295c-70.667 0 -128 -16.833 -172 -50.5s-66 -83.834 -66 -150.501c0 -65.333 19.5 -113.833 58.5 -145.5s90.5 -47.5 154.5 -47.5z" />
    <glyph glyph-name="Cacute" unicode="&#x106;" horiz-adv-x="1310" 
d="M623 1567l200 288h209l-248 -288h-161zM698 -20c-392 0 -587.667 246.332 -587 738.999c0 244.667 47.667 428.334 143 551.001s246.333 184 453 184c168 0 298.333 -38.167 391 -114.5s139 -186.833 139 -331.5h-164c0 206 -121.333 309 -364 309
c-154 0 -263.833 -48.5 -329.5 -145.5s-98.5 -249.167 -98.5 -456.5c0 -206 32 -356.5 96 -451.5s171 -142.5 321 -142.5c116 0 206.5 25.167 271.5 75.5s99.5 125.5 103.5 225.5h164c-4 -140.667 -53.833 -249.5 -149.5 -326.5s-225.5 -115.5 -389.5 -115.5z" />
    <glyph glyph-name="cacute" unicode="&#x107;" horiz-adv-x="1052" 
d="M453 1157l200 289h209l-248 -289h-161zM561 -20c-168 0 -290.5 44.332 -367.5 132.999s-115.5 221.667 -115.5 399c0 178.667 38.5 312 115.5 400s199.5 132 367.5 132c278.667 0 420 -116.667 424 -350h-162c-6.66699 144.667 -94 217 -262 217
c-112 0 -193.167 -32.667 -243.5 -98s-75.5 -165.666 -75.5 -300.999c0 -134 25.167 -234 75.5 -300s131.5 -99 243.5 -99c166.667 0 254 70.333 262 211h162c-6.66699 -229.333 -148 -344 -424 -344z" />
    <glyph glyph-name="Cdotaccent" unicode="&#x10a;" horiz-adv-x="1310" 
d="M623 1544v182h161v-182h-161zM698 -20c-392 0 -587.667 246.332 -587 738.999c0 244.667 47.667 428.334 143 551.001s246.333 184 453 184c168 0 298.333 -38.167 391 -114.5s139 -186.833 139 -331.5h-164c0 206 -121.333 309 -364 309
c-154 0 -263.833 -48.5 -329.5 -145.5s-98.5 -249.167 -98.5 -456.5c0 -206 32 -356.5 96 -451.5s171 -142.5 321 -142.5c116 0 206.5 25.167 271.5 75.5s99.5 125.5 103.5 225.5h164c-4 -140.667 -53.833 -249.5 -149.5 -326.5s-225.5 -115.5 -389.5 -115.5z" />
    <glyph glyph-name="cdotaccent" unicode="&#x10b;" horiz-adv-x="1052" 
d="M453 1135v182h161v-182h-161zM561 -20c-168 0 -290.5 44.332 -367.5 132.999s-115.5 221.667 -115.5 399c0 178.667 38.5 312 115.5 400s199.5 132 367.5 132c278.667 0 420 -116.667 424 -350h-162c-6.66699 144.667 -94 217 -262 217
c-112 0 -193.167 -32.667 -243.5 -98s-75.5 -165.666 -75.5 -300.999c0 -134 25.167 -234 75.5 -300s131.5 -99 243.5 -99c166.667 0 254 70.333 262 211h162c-6.66699 -229.333 -148 -344 -424 -344z" />
    <glyph glyph-name="Ccaron" unicode="&#x10c;" horiz-adv-x="1310" 
d="M627 1569l-224 289h158l141 -191l142 191h157l-223 -289h-151zM698 121c116 0 206.5 25.166 271.5 75.499s99.5 125.5 103.5 225.5h164c-4 -140.667 -53.833 -249.5 -149.5 -326.5s-225.5 -115.5 -389.5 -115.5c-392 0 -587.667 246.333 -587 739
c0 244.667 47.667 428.334 143 551.001s246.333 184 453 184c168 0 298.333 -38.167 391 -114.5s139 -186.833 139 -331.5h-164c0 206 -121.333 309 -364 309c-154 0 -263.833 -48.5 -329.5 -145.5s-98.5 -249.167 -98.5 -456.5c0 -206 32 -356.5 96 -451.5
s171 -142.5 321 -142.5z" />
    <glyph glyph-name="ccaron" unicode="&#x10d;" horiz-adv-x="1052" 
d="M457 1159l-224 289h158l141 -191l142 191h157l-223 -289h-151zM561 113c166.667 0 254 70.332 262 210.999h162c-6.66699 -229.333 -148 -344 -424 -344c-168 0 -290.5 44.333 -367.5 133s-115.5 221.667 -115.5 399c0 178.667 38.5 312 115.5 400s199.5 132 367.5 132
c278.667 0 420 -116.667 424 -350h-162c-6.66699 144.667 -94 217 -262 217c-112 0 -193.167 -32.667 -243.5 -98s-75.5 -165.666 -75.5 -300.999c0 -134 25.167 -234 75.5 -300s131.5 -99 243.5 -99z" />
    <glyph glyph-name="Dcaron" unicode="&#x10e;" horiz-adv-x="1374" 
d="M557 1569l-223 289h158l141 -191l141 191h158l-223 -289h-152zM715 1434c82 0 154.669 -11.333 218.002 -34s120.666 -60 171.999 -112s90.666 -125 117.999 -219s41 -208.667 41 -344c0 -483.333 -183 -725 -549 -725h-551v1434h551zM715.002 139
c54.667 0 102.5 7.83105 143.5 23.498s80.167 43.334 117.5 83.001s66.333 99.834 87 180.501s31 180.334 31 299.001c0 120 -10.333 219.667 -31 299s-50.5 137.666 -89.5 174.999s-78.167 62.5 -117.5 75.5s-86.333 19.5 -141 19.5h-381v-1155h381z" />
    <glyph glyph-name="dcaron" unicode="&#x10f;" horiz-adv-x="1263" 
d="M836 907v527.001h163v-1434h-157v150c-74 -113.333 -193 -170 -357 -170c-272 0 -407.667 173.333 -407 520c0 363.333 146.667 544.666 440 543.999c146.667 0 252.667 -45.667 318 -137zM1116 1434h184v-226l-118 -290h-103l92 290h-55v226zM522 111.001
c91.333 0 166.501 25.832 225.501 77.499s88.5 121.834 88.5 210.501v230c0 86 -29.833 155.667 -89.5 209s-133.834 80 -222.501 80c-188.667 0 -282.667 -136.667 -282 -410c0 -136.667 23.167 -237 69.5 -301s116.5 -96 210.5 -96z" />
    <glyph glyph-name="Dcroat" unicode="&#x110;" horiz-adv-x="1374" 
d="M715 1434c82 0 154.669 -11.333 218.002 -34s120.666 -60 171.999 -112s90.666 -125 117.999 -219s41 -208.667 41 -344c0 -483.333 -183 -725 -549 -725h-551v659h-164v127h164v648h551zM715.002 139c54.667 0 102.5 7.83105 143.5 23.498s80.167 43.334 117.5 83.001
s66.333 99.834 87 180.501s31 180.334 31 299.001c0 120 -10.333 219.667 -31 299s-50.5 137.666 -89.5 174.999s-78.167 62.5 -117.5 75.5s-86.333 19.5 -141 19.5h-381v-508h426v-127h-426v-520h381z" />
    <glyph glyph-name="dcroat" unicode="&#x111;" horiz-adv-x="1140" 
d="M1161 1253v-99.999h-162v-1153h-157v150c-74 -113.333 -193 -170 -357 -170c-272 0 -407.667 173.333 -407 520c0 363.333 146.667 544.666 440 543.999c146 0 252 -45.667 318 -137v246h-342v100h342v181h163v-181h162zM522 111.001
c91.333 0 166.501 25.832 225.501 77.499s88.5 121.834 88.5 210.501v230c0 86 -29.833 155.667 -89.5 209s-133.834 80 -222.501 80c-188.667 0 -282.667 -136.667 -282 -410c0 -136.667 23.167 -237 69.5 -301s116.5 -96 210.5 -96z" />
    <glyph glyph-name="Emacron" unicode="&#x112;" horiz-adv-x="1146" 
d="M852 1694v-123h-481v123h481zM334 139h741v-139h-911v1434h885v-140h-715v-477h688v-139h-688v-539z" />
    <glyph glyph-name="emacron" unicode="&#x113;" horiz-adv-x="1071" 
d="M795 1284v-123h-482v123h482zM244 461c5.33301 -116 32.834 -203.001 82.501 -261.001s127.834 -87 234.501 -87c82 0 145.167 17 189.5 51s68.5 81.667 72.5 143h162c-2.66699 -105.333 -39.834 -186.166 -111.501 -242.499s-175.834 -84.5 -312.501 -84.5
c-168 0 -290.5 44.333 -367.5 133s-115.5 221.667 -115.5 399c0 354.667 159.667 532 479 532c297.333 0 446.333 -178 447 -534c0 -5.33301 -0.5 -13.5 -1.5 -24.5s-1.5 -19.167 -1.5 -24.5h-757zM557.001 912.999c-102.667 0 -178.832 -27.5 -228.499 -82.5
s-77.834 -141.5 -84.501 -259.5h596c-6.66699 116 -33 202 -79 258s-114 84 -204 84z" />
    <glyph glyph-name="Edotaccent" unicode="&#x116;" horiz-adv-x="1146" 
d="M694 1726v-182h-162v182h162zM334 139h741v-139h-911v1434h885v-140h-715v-477h688v-139h-688v-539z" />
    <glyph glyph-name="edotaccent" unicode="&#x117;" horiz-adv-x="1071" 
d="M637 1317v-182h-162v182h162zM244 461c5.33301 -116 32.834 -203.001 82.501 -261.001s127.834 -87 234.501 -87c82 0 145.167 17 189.5 51s68.5 81.667 72.5 143h162c-2.66699 -105.333 -39.834 -186.166 -111.501 -242.499s-175.834 -84.5 -312.501 -84.5
c-168 0 -290.5 44.333 -367.5 133s-115.5 221.667 -115.5 399c0 354.667 159.667 532 479 532c297.333 0 446.333 -178 447 -534c0 -5.33301 -0.5 -13.5 -1.5 -24.5s-1.5 -19.167 -1.5 -24.5h-757zM557.001 912.999c-102.667 0 -178.832 -27.5 -228.499 -82.5
s-77.834 -141.5 -84.501 -259.5h596c-6.66699 116 -33 202 -79 258s-114 84 -204 84z" />
    <glyph glyph-name="Eogonek" unicode="&#x118;" horiz-adv-x="1146" 
d="M979 0c-44 -22 -81.001 -49.334 -111.001 -82.001s-45 -67.334 -45 -104.001c0 -32.667 12.667 -57.667 38 -75s59.333 -26 102 -26c32.667 0 69.334 6.33301 110.001 19v-105c-54.667 -19.333 -105 -28.666 -151 -27.999c-70.667 0 -126.667 16.333 -168 49
s-62 76.334 -62 131.001c0 86 58.667 159.667 176 221h-704v1434h885v-140h-715v-477h688v-139h-688v-539h741v-139h-96z" />
    <glyph glyph-name="eogonek" unicode="&#x119;" horiz-adv-x="1071" 
d="M244 461c5.33301 -116 32.834 -203.002 82.501 -261.002s127.834 -87 234.501 -87c82 0 145.167 17 189.5 51s68.5 81.667 72.5 143h162c-4 -131.333 -60 -224 -168 -278l-53 -27c-106.667 -56 -160 -118.667 -160 -188c0 -32.667 12.667 -57.667 38 -75s59 -26 101 -26
c32.667 0 69.667 6.33301 111 19v-105c-54.667 -19.333 -105.334 -28.666 -152.001 -27.999c-70.667 0 -126.5 16.333 -167.5 49s-61.5 76.334 -61.5 131.001c0 78 47 145.667 141 203c-10.667 -1.33301 -28.334 -2 -53.001 -2c-168 0 -290.5 44.333 -367.5 133
s-115.5 221.667 -115.5 399c0 354.667 159.667 532 479 532c297.333 0 446.333 -178 447 -534c0 -5.33301 -0.5 -13.5 -1.5 -24.5s-1.5 -19.167 -1.5 -24.5h-757zM557.001 912.998c-102.667 0 -178.832 -27.5 -228.499 -82.5s-77.834 -141.5 -84.501 -259.5h596
c-6.66699 116 -33 202 -79 258s-114 84 -204 84z" />
    <glyph glyph-name="Ecaron" unicode="&#x11a;" horiz-adv-x="1146" 
d="M537 1569l-224 289h158l141 -191l142 191h157l-223 -289h-151zM334 139h741v-139h-911v1434h885v-140h-715v-477h688v-139h-688v-539z" />
    <glyph glyph-name="ecaron" unicode="&#x11b;" horiz-adv-x="1071" 
d="M479 1159l-223 289h158l141 -191l141 191h158l-223 -289h-152zM244 461c5.33301 -116 32.834 -203.001 82.501 -261.001s127.834 -87 234.501 -87c82 0 145.167 17 189.5 51s68.5 81.667 72.5 143h162c-2.66699 -105.333 -39.834 -186.166 -111.501 -242.499
s-175.834 -84.5 -312.501 -84.5c-168 0 -290.5 44.333 -367.5 133s-115.5 221.667 -115.5 399c0 354.667 159.667 532 479 532c297.333 0 446.333 -178 447 -534c0 -5.33301 -0.5 -13.5 -1.5 -24.5s-1.5 -19.167 -1.5 -24.5h-757zM557.001 912.999
c-102.667 0 -178.832 -27.5 -228.499 -82.5s-77.834 -141.5 -84.501 -259.5h596c-6.66699 116 -33 202 -79 258s-114 84 -204 84z" />
    <glyph glyph-name="Gbreve" unicode="&#x11e;" horiz-adv-x="1392" 
d="M705 1552c-112 0 -190.331 22.668 -234.998 68.001s-67 111.666 -67 198.999h119c0 -57.333 14.667 -99.333 44 -126s75.666 -40 138.999 -40c122.667 0 184 55.333 184 166h119c0 -100 -26.333 -169.5 -79 -208.5s-127.334 -58.5 -224.001 -58.5zM1268 723.001v-722.998
h-146v174c-78 -130 -218.667 -194.833 -422 -194.5s-352.333 62.833 -447 187.5s-142 309.167 -142 553.5s49.5 427.666 148.5 549.999s254.167 183.5 465.5 183.5c169.333 0 301.166 -38.167 395.499 -114.5s141.5 -186.833 141.5 -331.5h-164
c0 102.667 -32.167 179.834 -96.5 231.501s-156.5 77.5 -276.5 77.5c-160 0 -274 -48.167 -342 -144.5s-102 -249.5 -102 -459.5c0 -206 34.333 -355.5 103 -448.5s186.334 -139.5 353.001 -139.5c42 0 81.833 4.16699 119.5 12.5s76.667 22.666 117 42.999
s72.5 52.666 96.5 96.999s36 98.5 36 162.5v158h-383v125h545z" />
    <glyph glyph-name="gbreve" unicode="&#x11f;" horiz-adv-x="1122" 
d="M559 1143c-112 0 -190.166 22.5 -234.499 67.5s-66.5 111.167 -66.5 198.5h119c0 -57.333 14.667 -99.333 44 -126s75.333 -40 138 -40c122.667 0 184 55.333 184 166h119c0 -100 -26.333 -169.333 -79 -208s-127.334 -58 -224.001 -58zM842.001 1024h157.001v-1018
c0 -135.333 -33.333 -238.5 -100 -309.5s-184 -106.5 -352 -106.5c-273.333 0 -410 106.667 -410 320h158c2.66699 -130 94 -195 274 -195c94 0 162 21.167 204 63.5s63 115.5 63 219.5v201c-75.333 -106.667 -192.333 -160 -351 -160c-131.333 0 -232 40 -302 120
s-105 197 -105 351c0 180 38.5 314 115.5 402s185.833 132 326.5 132c151.333 0 258.666 -48.333 321.999 -145v125zM522.002 170c91.333 0 166.502 26 225.502 78s88.5 121.667 88.5 209v172c0 86 -29.833 155.667 -89.5 209s-133.834 80 -222.501 80
c-188.667 0 -282.667 -133.333 -282 -400c-0.666992 -232 92.666 -348 279.999 -348z" />
    <glyph glyph-name="Gdotaccent" unicode="&#x120;" horiz-adv-x="1392" 
d="M788 1726v-182h-161v182h161zM1268 723v-722.998h-146v174c-78 -130 -218.667 -194.833 -422 -194.5s-352.333 62.833 -447 187.5s-142 309.167 -142 553.5s49.5 427.666 148.5 549.999s254.167 183.5 465.5 183.5c169.333 0 301.166 -38.167 395.499 -114.5
s141.5 -186.833 141.5 -331.5h-164c0 102.667 -32.167 179.834 -96.5 231.501s-156.5 77.5 -276.5 77.5c-160 0 -274 -48.167 -342 -144.5s-102 -249.5 -102 -459.5c0 -206 34.333 -355.5 103 -448.5s186.334 -139.5 353.001 -139.5c42 0 81.833 4.16699 119.5 12.5
s76.667 22.666 117 42.999s72.5 52.666 96.5 96.999s36 98.5 36 162.5v158h-383v125h545z" />
    <glyph glyph-name="gdotaccent" unicode="&#x121;" horiz-adv-x="1122" 
d="M643 1317v-182h-162v182h162zM842 1024h157.001v-1018c0 -135.333 -33.333 -238.5 -100 -309.5s-184 -106.5 -352 -106.5c-273.333 0 -410 106.667 -410 320h158c2.66699 -130 94 -195 274 -195c94 0 162 21.167 204 63.5s63 115.5 63 219.5v201
c-75.333 -106.667 -192.333 -160 -351 -160c-131.333 0 -232 40 -302 120s-105 197 -105 351c0 180 38.5 314 115.5 402s185.833 132 326.5 132c151.333 0 258.666 -48.333 321.999 -145v125zM522.001 170c91.333 0 166.502 26 225.502 78s88.5 121.667 88.5 209v172
c0 86 -29.833 155.667 -89.5 209s-133.834 80 -222.501 80c-188.667 0 -282.667 -133.333 -282 -400c-0.666992 -232 92.666 -348 279.999 -348z" />
    <glyph glyph-name="uni0122" unicode="&#x122;" horiz-adv-x="1392" 
d="M1268 723v-722.998h-146v174c-78 -130 -218.667 -194.833 -422 -194.5s-352.333 62.833 -447 187.5s-142 309.167 -142 553.5s49.5 427.666 148.5 549.999s254.167 183.5 465.5 183.5c169.333 0 301.166 -38.167 395.499 -114.5s141.5 -186.833 141.5 -331.5h-164
c0 102.667 -32.167 179.834 -96.5 231.501s-156.5 77.5 -276.5 77.5c-160 0 -274 -48.167 -342 -144.5s-102 -249.5 -102 -459.5c0 -206 34.333 -355.5 103 -448.5s186.334 -139.5 353.001 -139.5c42 0 81.833 4.16699 119.5 12.5s76.667 22.666 117 42.999
s72.5 52.666 96.5 96.999s36 98.5 36 162.5v158h-383v125h545zM653 -235.998v158h140v-158l-74 -188h-78l53 188h-41z" />
    <glyph glyph-name="uni0123" unicode="&#x123;" horiz-adv-x="1122" 
d="M629 1260v-158h-140v158l74 188h78l-53 -188h41zM842 1024h157.001v-1018c0 -135.333 -33.333 -238.5 -100 -309.5s-184 -106.5 -352 -106.5c-273.333 0 -410 106.667 -410 320h158c2.66699 -130 94 -195 274 -195c94 0 162 21.167 204 63.5s63 115.5 63 219.5v201
c-75.333 -106.667 -192.333 -160 -351 -160c-131.333 0 -232 40 -302 120s-105 197 -105 351c0 180 38.5 314 115.5 402s185.833 132 326.5 132c151.333 0 258.666 -48.333 321.999 -145v125zM522.001 170c91.333 0 166.502 26 225.502 78s88.5 121.667 88.5 209v172
c0 86 -29.833 155.667 -89.5 209s-133.834 80 -222.501 80c-188.667 0 -282.667 -133.333 -282 -400c-0.666992 -232 92.666 -348 279.999 -348z" />
    <glyph glyph-name="Hbar" unicode="&#x126;" horiz-adv-x="1390" 
d="M1391 1204v-108h-164v-1096h-170v676h-723v-676h-170v1096h-164v108h164v230h170v-230h723v230h170v-230h164zM1057 815v281h-723v-281h723z" />
    <glyph glyph-name="hbar" unicode="&#x127;" horiz-adv-x="1130" 
d="M666 1044c228 0 342 -123.333 342 -370v-674h-164v668c0 82 -17.5 144.5 -52.5 187.5s-92.833 64.5 -173.5 64.5c-91.333 0 -166.333 -26.667 -225 -80s-88 -123 -88 -209v-631h-164v1153h-141v100h141v181h164v-181h359v-100h-359v-270c76.667 107.333 197 161 361 161z
" />
    <glyph glyph-name="Itilde" unicode="&#x128;" horiz-adv-x="497" 
d="M-78 1556c0 64 16.333 114.168 49 150.501s77.667 54.5 135 54.5c34 0 69.667 -7.33301 107 -22l86 -35c31.333 -12 60 -18 86 -18c28.667 0 51.5 7.16699 68.5 21.5s25.5 34.166 25.5 59.499h101c0 -62.667 -16.833 -112 -50.5 -148s-79.167 -54 -136.5 -54
c-35.333 0 -69.333 6.66699 -102 20l-88 35c-31.333 12 -60 18 -86 18c-28.667 0 -51.5 -7.16699 -68.5 -21.5s-25.5 -34.5 -25.5 -60.5h-101zM164 0.000976562v1434h170v-1434h-170z" />
    <glyph glyph-name="itilde" unicode="&#x129;" horiz-adv-x="434" 
d="M-82 1147c0 64 15 114.167 45 150.5s71 54.5 123 54.5c31.333 0 63.333 -7.66699 96 -23l80 -35c26 -12 50 -18 72 -18c26 0 46.833 7.16699 62.5 21.5s23.5 34.5 23.5 60.5h96c0 -62.667 -15.333 -112.167 -46 -148.5s-72 -54.5 -124 -54.5c-27.333 0 -58 7 -92 21
l-82 34c-31.333 12 -55.333 18.333 -72 19c-26 0 -46.833 -7.16699 -62.5 -21.5s-23.5 -34.5 -23.5 -60.5h-96zM135 0v1024h164v-1024h-164z" />
    <glyph glyph-name="Imacron" unicode="&#x12a;" horiz-adv-x="497" 
d="M8 1571v123h481v-123h-481zM164 0v1434h170v-1434h-170z" />
    <glyph glyph-name="imacron" unicode="&#x12b;" horiz-adv-x="434" 
d="M-23 1161v123h482v-123h-482zM135 0v1024h164v-1024h-164z" />
    <glyph glyph-name="Iogonek" unicode="&#x12e;" horiz-adv-x="497" 
d="M295 -287c32.667 0 69.668 6.33203 111.001 18.999v-105c-54.667 -19.333 -105.334 -28.666 -152.001 -27.999c-70.667 0 -126.5 16.333 -167.5 49s-61.5 76.334 -61.5 131.001c0 86 58.667 159.667 176 221h-37v1434h170v-1434h-23c-44 -22 -80.833 -49.333 -110.5 -82
s-44.5 -67.334 -44.5 -104.001c0 -32.667 12.667 -57.667 38 -75s59 -26 101 -26z" />
    <glyph glyph-name="iogonek" unicode="&#x12f;" horiz-adv-x="434" 
d="M301 1348v-209h-168v209h168zM252 -287c32.667 0 69.333 6.33203 110 18.999v-105c-54.667 -19.333 -105 -28.666 -151 -27.999c-70.667 0 -126.5 16.333 -167.5 49s-61.5 76.334 -61.5 131.001c0 86 58.667 159.667 176 221h-23v1024h164v-1024h-31
c-44 -22 -80.833 -49.333 -110.5 -82s-44.5 -67.334 -44.5 -104.001c0 -32.667 12.667 -57.667 38 -75s59 -26 101 -26z" />
    <glyph glyph-name="Idotaccent" unicode="&#x130;" horiz-adv-x="497" 
d="M170 1544v182h162v-182h-162zM164 0v1434h170v-1434h-170z" />
    <glyph glyph-name="dotlessi" unicode="&#x131;" horiz-adv-x="434" 
d="M135 0v1024h164v-1024h-164z" />
    <glyph glyph-name="IJ" unicode="&#x132;" horiz-adv-x="1570" 
d="M164 0v1434h170v-1434h-170zM993 -20c-165.333 0 -278.999 32.334 -340.999 97.001s-93 159 -93 283h170c0 -87.333 20.5 -149.333 61.5 -186s107.167 -55 198.5 -55c95.333 0 162.166 22.167 200.499 66.5s57.5 125.166 57.5 242.499v1006h170v-1006
c0 -172 -35.5 -289.667 -106.5 -353s-176.833 -95 -317.5 -95z" />
    <glyph glyph-name="ij" unicode="&#x133;" horiz-adv-x="882" 
d="M133 1139v209h168v-209h-168zM582 1139v209h168v-209h-168zM135 0v1024h164v-1024h-164zM342 -410v131.001c80.667 0 142 18.667 184 56c38 34 57.333 88.667 58 164v1083h164v-1083c0 -132.667 -43.333 -228.334 -130 -287.001c-61.333 -42.667 -153.333 -64 -276 -64z
" />
    <glyph glyph-name="uni0136" unicode="&#x136;" horiz-adv-x="1251" 
d="M596 864l598 -864h-215l-494 752l-151 -154v-598h-170v1434h170v-635l602 635h221zM571 -236v158h140v-158l-74 -188h-78l53 188h-41z" />
    <glyph glyph-name="uni0137" unicode="&#x137;" horiz-adv-x="1054" 
d="M567 645l463 -645h-199l-376 543l-150 -137v-406h-164v1434h164v-842l465 432h217zM479 -236v158h139v-158l-73 -188h-78l53 188h-41z" />
    <glyph glyph-name="Lacute" unicode="&#x139;" horiz-adv-x="1083" 
d="M578 1855l-248 -288h-162l201 288h209zM334 139h696v-139h-866v1434h170v-1295z" />
    <glyph glyph-name="lacute" unicode="&#x13a;" horiz-adv-x="446" 
d="M143 1567l201 288h209l-248 -288h-162zM141 0v1434h164v-1434h-164z" />
    <glyph glyph-name="uni013B" unicode="&#x13b;" horiz-adv-x="1083" 
d="M334 139h696v-139h-866v1434h170v-1295zM555 -236v158h139v-158l-73 -188h-78l53 188h-41z" />
    <glyph glyph-name="uni013C" unicode="&#x13c;" horiz-adv-x="446" 
d="M141 1434h164v-1434h-164v1434zM156 -236v158h139v-158l-74 -188h-78l54 188h-41z" />
    <glyph glyph-name="Lcaron" unicode="&#x13d;" horiz-adv-x="1083" 
d="M334 139h696v-139h-866v1434h170v-1295zM719 1087h-78l53 189h-41v158h140v-158z" />
    <glyph glyph-name="lcaron" unicode="&#x13e;" horiz-adv-x="569" 
d="M141 0v1434h164v-1434h-164zM420 1434h184v-226l-119 -290h-102l92 290h-55v226z" />
    <glyph glyph-name="Ldot" unicode="&#x13f;" horiz-adv-x="1083" 
d="M334 139h696v-139h-866v1434h170v-1295zM737 813v-195h-172v195h172z" />
    <glyph glyph-name="ldot" unicode="&#x140;" horiz-adv-x="688" 
d="M141 0v1434h164v-1434h-164zM481 618v195h172v-195h-172z" />
    <glyph glyph-name="Lslash" unicode="&#x141;" horiz-adv-x="1083" 
d="M334 139h696v-139h-866v541l-164 -92v145l164 92v748h170v-652l405 228v-146l-405 -227v-498z" />
    <glyph glyph-name="lslash" unicode="&#x142;" horiz-adv-x="446" 
d="M446 952v-170l-141 -108v-674h-164v545l-141 -109v170l141 109v719h164v-590z" />
    <glyph glyph-name="Nacute" unicode="&#x143;" horiz-adv-x="1402" 
d="M1038 1855l-247 -288h-162l200 288h209zM1237 4l2 -4h-178l-731 1196v-1196h-166v1434h198l709 -1160v1160h166v-1430z" />
    <glyph glyph-name="nacute" unicode="&#x144;" horiz-adv-x="1120" 
d="M887 1446l-248 -289h-162l201 289h209zM655 1044c228 0 342 -123.333 342 -370v-674h-163v668c0 82 -17.5 144.5 -52.5 187.5s-92.833 64.5 -173.5 64.5c-91.333 0 -166.333 -26.667 -225 -80s-88 -123 -88 -209v-631h-164v1024h158v-150
c77.333 113.333 199.333 170 366 170z" />
    <glyph glyph-name="uni0145" unicode="&#x145;" horiz-adv-x="1402" 
d="M1237 4l2 -4h-178l-731 1196v-1196h-166v1434h198l709 -1160v1160h166v-1430zM641 -236v158h139v-158l-73 -188h-78l53 188h-41z" />
    <glyph glyph-name="uni0146" unicode="&#x146;" horiz-adv-x="1120" 
d="M655 1044c228 0 342 -123.333 342 -370v-674h-163v668c0 82 -17.5 144.5 -52.5 187.5s-92.833 64.5 -173.5 64.5c-91.333 0 -166.333 -26.667 -225 -80s-88 -123 -88 -209v-631h-164v1024h158v-150c77.333 113.333 199.333 170 366 170zM489 -236v158h140v-158l-74 -188
h-78l53 188h-41z" />
    <glyph glyph-name="Ncaron" unicode="&#x147;" horiz-adv-x="1402" 
d="M633 1569l-223 289h157l142 -191l141 191h158l-224 -289h-151zM1237 4l2 -4h-178l-731 1196v-1196h-166v1434h198l709 -1160v1160h166v-1430z" />
    <glyph glyph-name="ncaron" unicode="&#x148;" horiz-adv-x="1120" 
d="M481 1159l-223 289h158l141 -191l141 191h158l-223 -289h-152zM655 1044c228 0 342 -123.333 342 -370v-674h-163v668c0 82 -17.5 144.5 -52.5 187.5s-92.833 64.5 -173.5 64.5c-91.333 0 -166.333 -26.667 -225 -80s-88 -123 -88 -209v-631h-164v1024h158v-150
c77.333 113.333 199.333 170 366 170z" />
    <glyph glyph-name="Eng" unicode="&#x14a;" horiz-adv-x="1402" 
d="M1073 1434h166.001v-1475c0 -143.333 -37.833 -243.333 -113.5 -300s-203.834 -85 -384.501 -85v143c117.333 0 202 16.5 254 49.5s78 97.833 78 194.5v39l-743 1200v-1200h-166v1434h198l711 -1143v1143z" />
    <glyph glyph-name="eng" unicode="&#x14b;" horiz-adv-x="1120" 
d="M655 1042c228 0 342 -122.668 342 -368.001v-733c0 -117.333 -35.5 -205.166 -106.5 -263.499s-168.5 -87.5 -292.5 -87.5v119c157.333 0 236 77.333 236 232v727c0 166.667 -75.333 250 -226 250c-91.333 0 -166.333 -26.333 -225 -79s-88 -122 -88 -208v-631h-164v1024
h158v-152c77.333 113.333 199.333 170 366 170z" />
    <glyph glyph-name="Omacron" unicode="&#x14c;" horiz-adv-x="1404" 
d="M461 1571v123h481v-123h-481zM702.5 -20c-394.333 0 -591.5 245.667 -591.5 737c0 246 47.333 430.333 142 553s244.5 184 449.5 184s354.833 -61.5 449.5 -184.5s142 -307.167 142 -552.5c0 -491.333 -197.167 -737 -591.5 -737zM702.5 121
c151.667 0 259.834 47.5 324.501 142.5s97 246.167 97 453.5s-32.333 359.166 -97 455.499s-172.834 144.5 -324.501 144.5s-259.834 -48.167 -324.501 -144.5s-97 -248.166 -97 -455.499s32.333 -358.5 97 -453.5s172.834 -142.5 324.501 -142.5z" />
    <glyph glyph-name="omacron" unicode="&#x14d;" horiz-adv-x="1122" 
d="M324 1167v123h481v-123h-481zM561 -20c-168 0 -290.5 44.333 -367.5 133s-115.5 221.667 -115.5 399c0 178.667 38.5 312 115.5 400s199.5 132 367.5 132s290.5 -44 367.5 -132s115.5 -221.333 115.5 -400c0 -177.333 -38.5 -310.333 -115.5 -399
s-199.5 -133 -367.5 -133zM561 113c112 0 193.333 33 244 99s76 166 76 300c0 135.333 -25.333 235.666 -76 300.999s-132 98 -244 98s-193.167 -32.667 -243.5 -98s-75.5 -165.666 -75.5 -300.999c0 -134 25.167 -234 75.5 -300s131.5 -99 243.5 -99z" />
    <glyph glyph-name="Ohungarumlaut" unicode="&#x150;" horiz-adv-x="1404" 
d="M475 1567l211 288h195l-258 -288h-148zM795 1567l211 288h194l-258 -288h-147zM702.5 -20c-394.333 0 -591.5 245.667 -591.5 737c0 246 47.333 430.333 142 553s244.5 184 449.5 184s354.833 -61.5 449.5 -184.5s142 -307.167 142 -552.5
c0 -491.333 -197.167 -737 -591.5 -737zM702.5 121c151.667 0 259.834 47.5 324.501 142.5s97 246.167 97 453.5s-32.333 359.166 -97 455.499s-172.834 144.5 -324.501 144.5s-259.834 -48.167 -324.501 -144.5s-97 -248.166 -97 -455.499s32.333 -358.5 97 -453.5
s172.834 -142.5 324.501 -142.5z" />
    <glyph glyph-name="ohungarumlaut" unicode="&#x151;" horiz-adv-x="1122" 
d="M338 1163l211 289h194l-258 -289h-147zM657 1163l211 289h195l-258 -289h-148zM561 -20c-168 0 -290.5 44.333 -367.5 133s-115.5 221.667 -115.5 399c0 178.667 38.5 312 115.5 400s199.5 132 367.5 132s290.5 -44 367.5 -132s115.5 -221.333 115.5 -400
c0 -177.333 -38.5 -310.333 -115.5 -399s-199.5 -133 -367.5 -133zM561 113c112 0 193.333 33 244 99s76 166 76 300c0 135.333 -25.333 235.666 -76 300.999s-132 98 -244 98s-193.167 -32.667 -243.5 -98s-75.5 -165.666 -75.5 -300.999c0 -134 25.167 -234 75.5 -300
s131.5 -99 243.5 -99z" />
    <glyph glyph-name="OE" unicode="&#x152;" horiz-adv-x="2117" 
d="M1294 139l741.999 -0.000976562v-139h-912v137c-98 -105.333 -238.667 -157.666 -422 -156.999c-394.667 0 -591.667 245.667 -591 737c0 246 47.333 430.333 142 553s244.334 184 449.001 184c184 0 324.667 -51.333 422 -154v134h885v-140h-715v-477h688v-139h-688
v-539zM702.499 120.999c151.667 0 259.834 47.5 324.501 142.5s97 246.167 97 453.5c0 206 -32.333 357.5 -97 454.5s-172.834 145.5 -324.501 145.5s-259.834 -48.5 -324.501 -145.5s-97 -248.5 -97 -454.5c0 -207.333 32.333 -358.5 97 -453.5
s172.834 -142.5 324.501 -142.5z" />
    <glyph glyph-name="oe" unicode="&#x153;" horiz-adv-x="1873" 
d="M1047 461c5.33301 -116 32.835 -203 82.502 -261s127.834 -87 234.501 -87c82 0 145.167 17 189.5 51s68.5 81 72.5 141h162c-2.66699 -104 -39.834 -184.167 -111.501 -240.5s-175.834 -84.5 -312.501 -84.5c-192.667 0 -326.334 60 -401.001 180
c-75.333 -120 -209.333 -180 -402 -180c-168 0 -290.5 44.333 -367.5 133s-115.5 221.667 -115.5 399c0 178.667 38.5 312 115.5 400s199.5 132 367.5 132c195.333 0 330 -61.333 404 -184c78 122.667 209.667 184 395 184c297.333 0 446 -166.333 446 -499
c0 -36.667 -0.666992 -64.667 -2 -84h-757zM1360 913c-102.667 0 -178.833 -27.499 -228.5 -82.499s-77.834 -141.5 -84.501 -259.5h595c-5.33301 117.333 -30.166 203.666 -74.499 258.999s-113.5 83 -207.5 83zM561.003 113.001c112 0 193.333 33 244 99s76 166 76 300
c0 135.333 -25.333 235.666 -76 300.999s-132 98 -244 98s-193.167 -32.667 -243.5 -98s-75.5 -165.666 -75.5 -300.999c0 -134 25.167 -234 75.5 -300s131.5 -99 243.5 -99z" />
    <glyph glyph-name="Racute" unicode="&#x154;" horiz-adv-x="1253" 
d="M920 1855l-248 -288h-162l201 288h209zM1036 461l152.001 -460.999h-178l-146 465c-20.667 66.667 -49.667 112 -87 136s-96.333 36 -177 36h-266v-637h-170v1434h467c143.333 0 257.666 -31.833 342.999 -95.5s128 -165.167 128 -304.5
c0 -174.667 -69.667 -292 -209 -352c35.333 -15.333 62.5 -39.333 81.5 -72s39.5 -82.334 61.5 -149.001zM627.001 1296h-293v-522h293c91.333 0 165 21.167 221 63.5s84 108.5 84 198.5c0 88.667 -28 154.167 -84 196.5s-129.667 63.5 -221 63.5z" />
    <glyph glyph-name="racute" unicode="&#x155;" horiz-adv-x="704" 
d="M684 1446l-248 -289h-162l201 289h209zM289 864c68 120 172.333 180.001 313 180.001c19.333 0 40 -1.33301 62 -4v-143c-22 5.33301 -48.667 8 -80 8c-83.333 0 -152.333 -27.333 -207 -82s-82 -132.334 -82 -233.001v-590h-164v1024h158v-160z" />
    <glyph glyph-name="uni0156" unicode="&#x156;" horiz-adv-x="1253" 
d="M1036 461l152.001 -460.999h-178l-146 465c-20.667 66.667 -49.667 112 -87 136s-96.333 36 -177 36h-266v-637h-170v1434h467c143.333 0 257.666 -31.833 342.999 -95.5s128 -165.167 128 -304.5c0 -174.667 -69.667 -292 -209 -352
c35.333 -15.333 62.5 -39.333 81.5 -72s39.5 -82.334 61.5 -149.001zM627.001 1296h-293v-522h293c91.333 0 165 21.167 221 63.5s84 108.5 84 198.5c0 88.667 -28 154.167 -84 196.5s-129.667 63.5 -221 63.5zM584.001 -235.999v158h139v-158l-74 -188h-78l54 188h-41z" />
    <glyph glyph-name="uni0157" unicode="&#x157;" horiz-adv-x="704" 
d="M602 1044c19.333 0 40 -1.33203 62 -3.99902v-143c-22 5.33301 -48.667 8 -80 8c-83.333 0 -152.333 -27.333 -207 -82s-82 -132.334 -82 -233.001v-590h-164v1024h158v-160c68 120 172.333 180 313 180zM143 -235.999v158h140v-158l-74 -188h-78l53 188h-41z" />
    <glyph glyph-name="Rcaron" unicode="&#x158;" horiz-adv-x="1253" 
d="M514 1569l-223 289h158l141 -191l141 191h158l-223 -289h-152zM1036 461l152.001 -460.999h-178l-146 465c-20.667 66.667 -49.667 112 -87 136s-96.333 36 -177 36h-266v-637h-170v1434h467c143.333 0 257.666 -31.833 342.999 -95.5s128 -165.167 128 -304.5
c0 -174.667 -69.667 -292 -209 -352c35.333 -15.333 62.5 -39.333 81.5 -72s39.5 -82.334 61.5 -149.001zM627.001 1296h-293v-522h293c91.333 0 165 21.167 221 63.5s84 108.5 84 198.5c0 88.667 -28 154.167 -84 196.5s-129.667 63.5 -221 63.5z" />
    <glyph glyph-name="rcaron" unicode="&#x159;" horiz-adv-x="704" 
d="M279 1159l-224 289h158l141 -191l142 191h157l-223 -289h-151zM602 1044c19.333 0 40 -1.33203 62 -3.99902v-143c-22 5.33301 -48.667 8 -80 8c-83.333 0 -152.333 -27.333 -207 -82s-82 -132.334 -82 -233.001v-590h-164v1024h158v-160c68 120 172.333 180 313 180z
" />
    <glyph glyph-name="Sacute" unicode="&#x15a;" horiz-adv-x="1204" 
d="M520 1567l201 288h209l-248 -288h-162zM592 -20c-166.667 0 -293.999 34.998 -381.999 104.998s-132 172 -132 306h170c0 -181.333 116 -272 348 -272s348 92 348 276c0 154 -84 239.333 -252 256l-192 19c-120 12 -214.833 51.167 -284.5 117.5
s-104.5 157.5 -104.5 273.5c0 132.667 44.667 231.334 134 296.001s213 97 371 97c157.333 0 275.166 -31 353.499 -93s117.5 -150.333 117.5 -265h-167c0 148.667 -102 223 -306 223c-222.667 0 -333.667 -86 -333 -258c0 -72.667 20.833 -127 62.5 -163
s104.5 -59 188.5 -69l201 -22c116 -12 208.5 -52.833 277.5 -122.5s103.5 -165.5 103.5 -287.5c0 -139.333 -46 -243.666 -138 -312.999s-220 -104 -384 -104z" />
    <glyph glyph-name="sacute" unicode="&#x15b;" horiz-adv-x="985" 
d="M420 1157l201 289h208l-247 -289h-162zM492 -20c-277.333 0 -417.999 107.001 -421.999 321.001h166c0 -66.667 23.5 -116.167 70.5 -148.5s109.5 -48.5 187.5 -48.5c87.333 0 151.5 16.833 192.5 50.5s61.5 79.167 61.5 136.5c0 46.667 -15.833 84.167 -47.5 112.5
s-76.167 46.166 -133.5 53.499l-149 16c-208.667 24.667 -313.334 119.667 -314.001 285c0 191.333 131.333 286.666 394 285.999c254 0 382.333 -97.333 385 -292h-158c0 113.333 -75 170 -225 170c-74 0 -131.167 -13.667 -171.5 -41s-60.5 -65.666 -60.5 -114.999
c0 -95.333 59.333 -150 178 -164l156 -18c206 -24.667 309 -123 309 -295c0.666992 -206 -139 -309 -419 -309z" />
    <glyph glyph-name="Scedilla" unicode="&#x15e;" horiz-adv-x="1204" 
d="M1114 397c0 -128.667 -39.499 -227.669 -118.499 -297.002s-190.167 -108.666 -333.5 -117.999l-21 -52c122.667 0 184 -49.667 184 -149c0 -61.333 -21.167 -106.666 -63.5 -135.999s-98.833 -44 -169.5 -44c-134 0 -201 55.333 -201 166h109c0 -48 30.667 -72 92 -72
c76.667 0 115 28 115 84c0 48 -33 71.667 -99 71h-90l45 130c-157.333 4 -277.5 41.167 -360.5 111.5s-124.5 170.166 -124.5 299.499h170c0 -181.333 116 -272 348 -272s348 92 348 276c0 154 -84 239.333 -252 256l-192 19c-120 12 -214.833 51.167 -284.5 117.5
s-104.5 157.5 -104.5 273.5c0 132.667 44.667 231.334 134 296.001s213 97 371 97c157.333 0 275.166 -31 353.499 -93s117.5 -150.333 117.5 -265h-167c0 148.667 -102 223 -306 223c-222.667 0 -333.667 -86 -333 -258c0 -72.667 20.833 -127 62.5 -163
s104.5 -59 188.5 -69l201 -22c116 -12 208.5 -53 277.5 -123s103.5 -165.667 103.5 -287z" />
    <glyph glyph-name="scedilla" unicode="&#x15f;" horiz-adv-x="985" 
d="M911 289c0 -188.667 -116.666 -291 -349.999 -307l-20 -52c122.667 0 184 -49.667 184 -149c0 -61.333 -21.167 -106.666 -63.5 -135.999s-98.833 -44 -169.5 -44c-134 0 -201 55.333 -201 166h108c0 -48 31 -72 93 -72c76.667 0 114.667 28 114 84
c0 48 -32.667 71.667 -98 71h-90l45 130c-258 8 -389 115 -393 321h166c0 -66.667 23.5 -116.167 70.5 -148.5s109.5 -48.5 187.5 -48.5c87.333 0 151.5 16.833 192.5 50.5s61.5 79.167 61.5 136.5c0 46.667 -15.833 84.167 -47.5 112.5s-76.167 46.166 -133.5 53.499
l-149 16c-208.667 24.667 -313.334 119.667 -314.001 285c0 191.333 131.333 286.666 394 285.999c254 0 382.333 -97.333 385 -292h-158c0 113.333 -75 170 -225 170c-74 0 -131.167 -13.667 -171.5 -41s-60.5 -65.666 -60.5 -114.999c0 -95.333 59.333 -150 178 -164
l156 -18c206 -24.667 309 -123 309 -295z" />
    <glyph glyph-name="Scaron" unicode="&#x160;" horiz-adv-x="1204" 
d="M524 1569l-223 289h158l141 -191l141 191h158l-223 -289h-152zM733 807c116 -12 208.501 -52.835 277.501 -122.502s103.5 -165.5 103.5 -287.5c0 -139.333 -46 -243.666 -138 -312.999s-220 -104 -384 -104c-166.667 0 -294 35 -382 105s-132 172 -132 306h170
c0 -181.333 116 -272 348 -272s348 92 348 276c0 154 -84 239.333 -252 256l-192 19c-120 12 -214.833 51.167 -284.5 117.5s-104.5 157.5 -104.5 273.5c0 132.667 44.667 231.334 134 296.001s213 97 371 97c157.333 0 275.166 -31 353.499 -93s117.5 -150.333 117.5 -265
h-167c0 148.667 -102 223 -306 223c-222.667 0 -333.667 -86 -333 -258c0 -72.667 20.833 -127 62.5 -163s104.5 -59 188.5 -69z" />
    <glyph glyph-name="scaron" unicode="&#x161;" horiz-adv-x="985" 
d="M424 1159l-223 289h157l142 -191l141 191h158l-224 -289h-151zM602 584c206 -24.667 309.001 -122.999 309.001 -294.999c0 -206 -139.667 -309 -419 -309c-277.333 0 -418 107 -422 321h166c0 -66.667 23.5 -116.167 70.5 -148.5s109.5 -48.5 187.5 -48.5
c87.333 0 151.5 16.833 192.5 50.5s61.5 79.167 61.5 136.5c0 46.667 -15.833 84.167 -47.5 112.5s-76.167 46.166 -133.5 53.499l-149 16c-208.667 24.667 -313.334 119.667 -314.001 285c0 191.333 131.333 286.666 394 285.999c254 0 382.333 -97.333 385 -292h-158
c0 113.333 -75 170 -225 170c-74 0 -131.167 -13.667 -171.5 -41s-60.5 -65.666 -60.5 -114.999c0 -95.333 59.333 -150 178 -164z" />
    <glyph glyph-name="uni0162" unicode="&#x162;" horiz-adv-x="1179" 
d="M676 0l-17 -0.000976562l-28 -70c122.667 0 184 -49.667 184 -149c0 -61.333 -21.167 -106.666 -63.5 -135.999s-98.833 -44 -169.5 -44c-134 0 -201 55.333 -201 166h108c0 -48 31 -72 93 -72c76.667 0 114.667 28 114 84c0 48 -32.667 71.667 -98 71h-90l51 150h-53
v1294h-455v140h1077v-140h-452v-1294z" />
    <glyph glyph-name="uni0163" unicode="&#x163;" horiz-adv-x="700" 
d="M487 -70c122.667 0 184.332 -49.668 184.999 -149.001c0 -61.333 -21.167 -106.666 -63.5 -135.999s-99.166 -44 -170.499 -44c-134 0 -200.667 55.333 -200 166h108c0 -48 30.667 -72 92 -72c76.667 0 115 28 115 84c0 48 -32.667 71.667 -98 71h-90l47 138
c-60 10.667 -104.333 37.5 -133 80.5s-43 108.833 -43 197.5v639h-187v119h187v276h159v-276h232v-119h-232v-629c0 -58.667 11.333 -100.5 34 -125.5s60.667 -37.5 114 -37.5c20.667 0 46.667 1.33301 78 4v-129c-38 -5.33301 -75.667 -8 -113 -8z" />
    <glyph glyph-name="Tcaron" unicode="&#x164;" horiz-adv-x="1179" 
d="M514 1569l-223 289h158l141 -191l141 191h158l-223 -289h-152zM1128 1434v-140h-452v-1294h-170v1294h-455v140h1077z" />
    <glyph glyph-name="tcaron" unicode="&#x165;" horiz-adv-x="700" 
d="M553 1434h139v-158l-74 -189h-77l53 189h-41v158zM395 1300v-276h232v-119h-232v-629c0 -58.667 11.333 -100.5 34 -125.5s60.667 -37.5 114 -37.5c20.667 0 46.667 1.33301 78 4v-129c-38 -5.33301 -76.333 -8 -115 -8c-94 0 -162.5 20.333 -205.5 61
s-64.5 115.667 -64.5 225v639h-187v119h187v276h159z" />
    <glyph glyph-name="Tbar" unicode="&#x166;" horiz-adv-x="1179" 
d="M1128 1294h-452v-497h352v-101h-352v-696h-170v696h-352v101h352v497h-455v140h1077v-140z" />
    <glyph glyph-name="tbar" unicode="&#x167;" horiz-adv-x="700" 
d="M627 905h-232v-221h230v-100h-230v-308c0 -58.667 11.333 -100.5 34 -125.5s60.667 -37.5 114 -37.5c20.667 0 46.667 1.33301 78 4v-129c-38 -5.33301 -76.333 -8 -115 -8c-94 0 -162.5 20.333 -205.5 61s-64.5 115.667 -64.5 225v318h-187v100h187v221h-187v119h187
v276h159v-276h232v-119z" />
    <glyph glyph-name="Utilde" unicode="&#x168;" horiz-adv-x="1370" 
d="M362 1556c0 64 16.498 114.168 49.498 150.501s78.167 54.5 135.5 54.5c34 0 69.333 -7.33301 106 -22l86 -35c31.333 -12 60 -18 86 -18c28.667 0 51.667 7.16699 69 21.5s26 34.166 26 59.499h100c0 -62.667 -16.667 -112 -50 -148s-78.666 -54 -135.999 -54
c-35.333 0 -69.666 6.66699 -102.999 20l-88 35c-31.333 12 -60 18 -86 18c-28.667 0 -51.5 -7.16699 -68.5 -21.5s-25.5 -34.5 -25.5 -60.5h-101zM689.998 -19.999c-195.333 0 -334.667 49.333 -418 148s-125 239.667 -125 423v883h170v-883
c0 -157.333 32.167 -269 96.5 -335s156.5 -99 276.5 -99c134 0 229.333 37.5 286 112.5s85 182.167 85 321.5v883h170v-883c0 -206 -46.833 -352.667 -140.5 -440s-227.167 -131 -400.5 -131z" />
    <glyph glyph-name="utilde" unicode="&#x169;" horiz-adv-x="1103" 
d="M412 1229c-28.667 0 -51.668 -7.16699 -69.001 -21.5s-26 -34.5 -26 -60.5h-100c0 64 16.333 114.167 49 150.5s77.667 54.5 135 54.5c34 0 69.667 -7.66699 107 -23l86 -35c30 -12 58.667 -18 86 -18c28.667 0 51.5 7.16699 68.5 21.5s25.5 34.5 25.5 60.5h100
c0 -62.667 -16.667 -112.167 -50 -148.5s-78.666 -54.5 -135.999 -54.5c-35.333 0 -69.333 7 -102 21l-88 34c-30 12.667 -58.667 19 -86 19zM810.999 1024l162 0.000976562v-1024h-156v141c-72.667 -108 -188.667 -161.667 -348 -161c-118.667 0 -207 31.667 -265 95
s-87 151.666 -87 264.999v684h164v-664c0 -169.333 74.333 -254 223 -254c83.333 0 155.333 24 216 72s91 115.667 91 203v643z" />
    <glyph glyph-name="Umacron" unicode="&#x16a;" horiz-adv-x="1370" 
d="M449 1571v123h481v-123h-481zM690 -20c-195.333 0 -334.667 49.333 -418 148s-125 239.667 -125 423v883h170v-883c0 -157.333 32.167 -269 96.5 -335s156.5 -99 276.5 -99c134 0 229.333 37.5 286 112.5s85 182.167 85 321.5v883h170v-883
c0 -206 -46.833 -352.667 -140.5 -440s-227.167 -131 -400.5 -131z" />
    <glyph glyph-name="umacron" unicode="&#x16b;" horiz-adv-x="1103" 
d="M784 1284v-123h-481v123h481zM811 1024l162 0.000976562v-1024h-156v141c-72.667 -108 -188.667 -161.667 -348 -161c-118.667 0 -207 31.667 -265 95s-87 151.666 -87 264.999v684h164v-664c0 -169.333 74.333 -254 223 -254c83.333 0 155.333 24 216 72
s91 115.667 91 203v643z" />
    <glyph glyph-name="Uring" unicode="&#x16e;" horiz-adv-x="1370" 
d="M690.5 1513c-132.333 0 -198.5 66.333 -198.5 199c0 130 66.167 195 198.5 195s198.5 -65 198.5 -195c0 -132.667 -66.167 -199 -198.5 -199zM690.5 1602c69.667 0 104.5 36.667 104.5 110c0 70.667 -34.833 106.167 -104.5 106.5s-104.5 -35.167 -104.5 -106.5
c0 -73.333 34.833 -110 104.5 -110zM690 -20c-195.333 0 -334.667 49.333 -418 148s-125 239.667 -125 423v883h170v-883c0 -157.333 32.167 -269 96.5 -335s156.5 -99 276.5 -99c134 0 229.333 37.5 286 112.5s85 182.167 85 321.5v883h170v-883
c0 -206 -46.833 -352.667 -140.5 -440s-227.167 -131 -400.5 -131z" />
    <glyph glyph-name="uring" unicode="&#x16f;" horiz-adv-x="1103" 
d="M544.5 1104c-132.333 0 -198.5 66.332 -198.5 198.999c0 130 66.167 194.833 198.5 194.5s198.5 -65.166 198.5 -194.499c0 -132.667 -66.167 -199 -198.5 -199zM544.5 1409c-69.667 0 -104.5 -35.333 -104.5 -106c0 -74 34.833 -111 104.5 -111s104.5 37 104.5 111
c0 70.667 -34.833 106 -104.5 106zM811 1024l162 0.000976562v-1024h-156v141c-72.667 -108 -188.667 -161.667 -348 -161c-118.667 0 -207 31.667 -265 95s-87 151.666 -87 264.999v684h164v-664c0 -169.333 74.333 -254 223 -254c83.333 0 155.333 24 216 72
s91 115.667 91 203v643z" />
    <glyph glyph-name="Uhungarumlaut" unicode="&#x170;" horiz-adv-x="1370" 
d="M463 1567l211 288h194l-258 -288h-147zM782 1567l211 288h195l-258 -288h-148zM690 -20c-195.333 0 -334.667 49.333 -418 148s-125 239.667 -125 423v883h170v-883c0 -157.333 32.167 -269 96.5 -335s156.5 -99 276.5 -99c134 0 229.333 37.5 286 112.5
s85 182.167 85 321.5v883h170v-883c0 -206 -46.833 -352.667 -140.5 -440s-227.167 -131 -400.5 -131z" />
    <glyph glyph-name="uhungarumlaut" unicode="&#x171;" horiz-adv-x="1103" 
d="M723 1446l-258 -289h-148l211 289h195zM784 1157h-147l211 289h194zM811 381v643.001h162v-1024h-156v141c-72.667 -108 -188.667 -161.667 -348 -161c-118.667 0 -207 31.667 -265 95s-87 151.666 -87 264.999v684h164v-664c0 -169.333 74.333 -254 223 -254
c83.333 0 155.333 24 216 72s91 115.667 91 203z" />
    <glyph glyph-name="Uogonek" unicode="&#x172;" horiz-adv-x="1370" 
d="M1061 1434l170 -0.00195312v-883c0 -192.667 -40.667 -333 -122 -421s-197.666 -137.333 -348.999 -148c-82 -49.333 -123 -105.333 -123 -168c0 -32.667 12.667 -57.667 38 -75s59 -26 101 -26c32.667 0 69.667 6.33301 111 19v-105
c-54.667 -19.333 -105.334 -28.666 -152.001 -27.999c-70.667 0 -126.5 16.333 -167.5 49s-61.5 76.334 -61.5 131.001c0 79.333 47 146.333 141 201c-180 8 -308.333 61.167 -385 159.5s-115 235.5 -115 411.5v883h170v-883c0 -157.333 32.167 -269 96.5 -335
s156.5 -99 276.5 -99c134 0 229.333 37.5 286 112.5s85 182.167 85 321.5v883z" />
    <glyph glyph-name="uogonek" unicode="&#x173;" horiz-adv-x="1103" 
d="M936 -287c32.667 0 69.668 6.33301 111.001 19v-105c-54.667 -19.333 -105.334 -28.666 -152.001 -27.999c-70.667 0 -126.5 16.333 -167.5 49s-61.5 76.334 -61.5 131.001c0 86 58.667 159.667 176 221h-25v141c-72.667 -108 -188.667 -161.667 -348 -161
c-118.667 0 -207 31.667 -265 95s-87 151.666 -87 264.999v684h164v-664c0 -169.333 74.333 -254 223 -254c83.333 0 155.333 24 216 72s91 115.667 91 203v643h162v-1024h-21c-44 -22 -80.833 -49.333 -110.5 -82s-44.5 -67.334 -44.5 -104.001
c0 -32.667 12.667 -57.667 38 -75s59 -26 101 -26z" />
    <glyph glyph-name="Wcircumflex" unicode="&#x174;" horiz-adv-x="1906" 
d="M954 1757l-141 -190h-158l224 288h151l223 -288h-157zM1671 1434h178l-381 -1434h-176l-338 1214l-340 -1214h-174l-383 1434h179l294 -1217l338 1217h172l336 -1221z" />
    <glyph glyph-name="wcircumflex" unicode="&#x175;" horiz-adv-x="1652" 
d="M821 1348l-141 -191h-158l223 289h152l223 -289h-157zM1423 1024h176l-346 -1024h-188l-244 838l-252 -838h-188l-328 1024h176l248 -862l256 862h174l252 -866z" />
    <glyph glyph-name="Ycircumflex" unicode="&#x176;" horiz-adv-x="1304" 
d="M649 1757l-141 -190h-158l223 288h152l223 -288h-157zM1247 1434l-514 -848v-586h-170v584l-506 850h195l397 -707l406 707h192z" />
    <glyph glyph-name="ycircumflex" unicode="&#x177;" horiz-adv-x="1036" 
d="M522 1348l-141 -191h-158l223 289h152l223 -289h-157zM827 1024h177l-551 -1434h-156l160 410h-35l-389 1024h176l307 -868z" />
    <glyph glyph-name="Ydieresis" unicode="&#x178;" horiz-adv-x="1304" 
d="M555 1722v-174h-152v174h152zM901 1722v-174h-153v174h153zM1247 1434l-514 -848v-586h-170v584l-506 850h195l397 -707l406 707h192z" />
    <glyph glyph-name="Zacute" unicode="&#x179;" horiz-adv-x="1150" 
d="M891 1855l-248 -288h-162l201 288h209zM246 137h844v-137h-1033v137l830 1159h-776v138h958v-138z" />
    <glyph glyph-name="zacute" unicode="&#x17a;" horiz-adv-x="950" 
d="M807 1446l-248 -289h-162l201 289h209zM260 133h633v-133h-842v133l629 758h-594v133h795v-133z" />
    <glyph glyph-name="Zdotaccent" unicode="&#x17b;" horiz-adv-x="1150" 
d="M643 1726v-182h-162v182h162zM246 137h844v-137h-1033v137l830 1159h-776v138h958v-138z" />
    <glyph glyph-name="zdotaccent" unicode="&#x17c;" horiz-adv-x="950" 
d="M559 1317v-182h-162v182h162zM260 133h633v-133h-842v133l629 758h-594v133h795v-133z" />
    <glyph glyph-name="Zcaron" unicode="&#x17d;" horiz-adv-x="1150" 
d="M485 1569l-223 289h158l141 -191l141 191h158l-223 -289h-152zM246 137h844v-137h-1033v137l830 1159h-776v138h958v-138z" />
    <glyph glyph-name="zcaron" unicode="&#x17e;" horiz-adv-x="950" 
d="M401 1159l-223 289h158l141 -191l141 191h158l-223 -289h-152zM260 133h633v-133h-842v133l629 758h-594v133h795v-133z" />
    <glyph glyph-name="florin" unicode="&#x192;" horiz-adv-x="937" 
d="M705 1325c-57.333 0 -98.334 -13.6699 -123.001 -41.0029s-37 -69.666 -37 -126.999v-287h219v-120h-219v-809c0 -105.333 -27.333 -187.666 -82 -246.999s-132.667 -92.666 -234 -99.999c-38 -2.66699 -68 -4 -90 -4v131c15.333 0 35.333 1.66699 60 5
c121.333 15.333 182 87 182 215v809h-195v120h195v291c0 106.667 25.167 182.167 75.5 226.5s123.5 66.5 219.5 66.5c40.667 0 80.334 -2.66699 119.001 -8v-129c-31.333 5.33301 -61.333 8 -90 8z" />
    <glyph glyph-name="uni01CD" unicode="&#x1cd;" horiz-adv-x="1361" 
d="M604 1569l-223 289h158l141 -191l141 191h158l-223 -289h-152zM1116 0l-127 365h-616l-127 -365h-185l527 1434h186l526 -1434h-184zM418 498h526l-262 762z" />
    <glyph glyph-name="uni01CE" unicode="&#x1ce;" horiz-adv-x="1046" 
d="M457 1159l-224 289h158l141 -191l142 191h157l-223 -289h-151zM528 1044c144.667 0 247.501 -30 308.501 -90s91.5 -145.333 91.5 -256v-698h-158v147c-72.667 -112 -190 -167.667 -352 -167c-116 0 -203.333 28.667 -262 86s-88 134.333 -88 231
c0 109.333 35.167 188.833 105.5 238.5s157.833 74.5 262.5 74.5h328v97c0 74 -20.167 128 -60.5 162s-101.5 51 -183.5 51c-80.667 0 -142.834 -16.5 -186.501 -49.5s-65.5 -80.833 -65.5 -143.5h-153c0 112 37.833 192.833 113.5 242.5s175.5 74.5 299.5 74.5z
M444.001 106c84.667 0 159.167 25.668 223.5 77.001s96.5 124 96.5 218v99h-295c-70.667 0 -128 -16.833 -172 -50.5s-66 -83.834 -66 -150.501c0 -65.333 19.5 -113.833 58.5 -145.5s90.5 -47.5 154.5 -47.5z" />
    <glyph glyph-name="uni01CF" unicode="&#x1cf;" horiz-adv-x="497" 
d="M174 1569l-223 289h158l141 -191l141 191h158l-223 -289h-152zM164 0v1434h170v-1434h-170z" />
    <glyph glyph-name="uni01D0" unicode="&#x1d0;" horiz-adv-x="434" 
d="M143 1159l-223 289h158l141 -191l141 191h158l-223 -289h-152zM135 0v1024h164v-1024h-164z" />
    <glyph glyph-name="uni01D1" unicode="&#x1d1;" horiz-adv-x="1404" 
d="M627 1569l-224 289h158l141 -191l142 191h157l-223 -289h-151zM702.5 1454c205 0 354.833 -61.5 449.5 -184.5s142 -307.167 142 -552.5c0 -491.333 -197.167 -737 -591.5 -737s-591.5 245.667 -591.5 737c0 246 47.333 430.333 142 553s244.5 184 449.5 184zM702.5 121
c151.667 0 259.834 47.5 324.501 142.5s97 246.167 97 453.5s-32.333 359.166 -97 455.499s-172.834 144.5 -324.501 144.5s-259.834 -48.167 -324.501 -144.5s-97 -248.166 -97 -455.499s32.333 -358.5 97 -453.5s172.834 -142.5 324.501 -142.5z" />
    <glyph glyph-name="uni01D2" unicode="&#x1d2;" horiz-adv-x="1122" 
d="M489 1165l-223 289h158l141 -190l142 190h157l-223 -289h-152zM561 1044c168 0 290.5 -44 367.5 -132s115.5 -221.333 115.5 -400c0 -177.333 -38.5 -310.333 -115.5 -399s-199.5 -133 -367.5 -133s-290.5 44.333 -367.5 133s-115.5 221.667 -115.5 399
c0 178.667 38.5 312 115.5 400s199.5 132 367.5 132zM561 113c112 0 193.333 33 244 99s76 166 76 300c0 135.333 -25.333 235.666 -76 300.999s-132 98 -244 98s-193.167 -32.667 -243.5 -98s-75.5 -165.666 -75.5 -300.999c0 -134 25.167 -234 75.5 -300
s131.5 -99 243.5 -99z" />
    <glyph glyph-name="uni01D3" unicode="&#x1d3;" horiz-adv-x="1370" 
d="M614 1569l-223 289h158l141 -191l141 191h158l-223 -289h-152zM1061 1434h169.999v-883c0 -206 -46.833 -352.667 -140.5 -440s-227.167 -131 -400.5 -131c-195.333 0 -334.666 49.333 -417.999 148s-125 239.667 -125 423v883h170v-883
c0 -157.333 32.167 -269 96.5 -335s156.5 -99 276.5 -99c134 0 229.333 37.5 286 112.5s85 182.167 85 321.5v883z" />
    <glyph glyph-name="uni01D4" unicode="&#x1d4;" horiz-adv-x="1103" 
d="M469 1159l-223 289h157l142 -191l141 191h158l-223 -289h-152zM811 1024l162 0.000976562v-1024h-156v141c-72.667 -108 -188.667 -161.667 -348 -161c-118.667 0 -207 31.667 -265 95s-87 151.666 -87 264.999v684h164v-664c0 -169.333 74.333 -254 223 -254
c83.333 0 155.333 24 216 72s91 115.667 91 203v643z" />
    <glyph glyph-name="uni01D5" unicode="&#x1d5;" horiz-adv-x="1370" 
d="M453 1831v123h481v-123h-481zM444 1548v174h152v-174h-152zM788 1548v174h154v-174h-154zM690 -20c-195.333 0 -334.667 49.333 -418 148s-125 239.667 -125 423v883h170v-883c0 -157.333 32.167 -269 96.5 -335s156.5 -99 276.5 -99c134 0 229.333 37.5 286 112.5
s85 182.167 85 321.5v883h170v-883c0 -206 -46.833 -352.667 -140.5 -440s-227.167 -131 -400.5 -131z" />
    <glyph glyph-name="uni01D6" unicode="&#x1d6;" horiz-adv-x="1103" 
d="M788 1544v-123h-481v123h481zM451 1313v-174h-152v174h152zM643 1139v174h154v-174h-154zM811 1024l162 0.000976562v-1024h-156v141c-72.667 -108 -188.667 -161.667 -348 -161c-118.667 0 -207 31.667 -265 95s-87 151.666 -87 264.999v684h164v-664
c0 -169.333 74.333 -254 223 -254c83.333 0 155.333 24 216 72s91 115.667 91 203v643z" />
    <glyph glyph-name="uni01D7" unicode="&#x1d7;" horiz-adv-x="1370" 
d="M610 1827l201 289h209l-248 -289h-162zM440 1548v174h152v-174h-152zM784 1548v174h154v-174h-154zM690 -20c-195.333 0 -334.667 49.333 -418 148s-125 239.667 -125 423v883h170v-883c0 -157.333 32.167 -269 96.5 -335s156.5 -99 276.5 -99
c134 0 229.333 37.5 286 112.5s85 182.167 85 321.5v883h170v-883c0 -206 -46.833 -352.667 -140.5 -440s-227.167 -131 -400.5 -131z" />
    <glyph glyph-name="uni01D8" unicode="&#x1d8;" horiz-adv-x="1103" 
d="M874 1706l-247 -289h-162l201 289h208zM446 1313v-174h-151v174h151zM793 1139h-154v174h154v-174zM811 1024l162 0.000976562v-1024h-156v141c-72.667 -108 -188.667 -161.667 -348 -161c-118.667 0 -207 31.667 -265 95s-87 151.666 -87 264.999v684h164v-664
c0 -169.333 74.333 -254 223 -254c83.333 0 155.333 24 216 72s91 115.667 91 203v643z" />
    <glyph glyph-name="uni01D9" unicode="&#x1d9;" horiz-adv-x="1370" 
d="M616 1831l-223 289h158l141 -191l142 191h157l-223 -289h-152zM594 1550h-152v174h152v-174zM940 1550h-154v174h154v-174zM1061 1434h169.999v-883c0 -206 -46.833 -352.667 -140.5 -440s-227.167 -131 -400.5 -131c-195.333 0 -334.666 49.333 -417.999 148
s-125 239.667 -125 423v883h170v-883c0 -157.333 32.167 -269 96.5 -335s156.5 -99 276.5 -99c134 0 229.333 37.5 286 112.5s85 182.167 85 321.5v883z" />
    <glyph glyph-name="uni01DA" unicode="&#x1da;" horiz-adv-x="1103" 
d="M471 1421l-223 289h158l141 -190l141 190h158l-223 -289h-152zM449 1141h-152v174h152v-174zM795 1141h-154v174h154v-174zM811 1024l162 0.000976562v-1024h-156v141c-72.667 -108 -188.667 -161.667 -348 -161c-118.667 0 -207 31.667 -265 95s-87 151.666 -87 264.999
v684h164v-664c0 -169.333 74.333 -254 223 -254c83.333 0 155.333 24 216 72s91 115.667 91 203v643z" />
    <glyph glyph-name="uni01DB" unicode="&#x1db;" horiz-adv-x="1370" 
d="M772 1827h-162l-248 289h209zM459 1548v174h151v-174h-151zM803 1548v174h153v-174h-153zM690 -20c-195.333 0 -334.667 49.333 -418 148s-125 239.667 -125 423v883h170v-883c0 -157.333 32.167 -269 96.5 -335s156.5 -99 276.5 -99c134 0 229.333 37.5 286 112.5
s85 182.167 85 321.5v883h170v-883c0 -206 -46.833 -352.667 -140.5 -440s-227.167 -131 -400.5 -131z" />
    <glyph glyph-name="uni01DC" unicode="&#x1dc;" horiz-adv-x="1103" 
d="M627 1417h-162l-248 289h209zM465 1139h-152v174h152v-174zM811 1313v-174h-154v174h154zM811 1024l162 0.000976562v-1024h-156v141c-72.667 -108 -188.667 -161.667 -348 -161c-118.667 0 -207 31.667 -265 95s-87 151.666 -87 264.999v684h164v-664
c0 -169.333 74.333 -254 223 -254c83.333 0 155.333 24 216 72s91 115.667 91 203v643z" />
    <glyph glyph-name="uni01DE" unicode="&#x1de;" horiz-adv-x="1361" 
d="M924 1954v-123h-482v123h482zM586 1722v-174h-152v174h152zM778 1548v174h154v-174h-154zM1116 0l-127 365h-616l-127 -365h-185l527 1434h186l526 -1434h-184zM418 498h526l-262 762z" />
    <glyph glyph-name="uni01DF" unicode="&#x1df;" horiz-adv-x="1046" 
d="M776 1544v-123h-481v123h481zM438 1313v-174h-151v174h151zM631 1139v174h153v-174h-153zM528 1044c144.667 0 247.501 -30 308.501 -90s91.5 -145.333 91.5 -256v-698h-158v147c-72.667 -112 -190 -167.667 -352 -167c-116 0 -203.333 28.667 -262 86
s-88 134.333 -88 231c0 109.333 35.167 188.833 105.5 238.5s157.833 74.5 262.5 74.5h328v97c0 74 -20.167 128 -60.5 162s-101.5 51 -183.5 51c-80.667 0 -142.834 -16.5 -186.501 -49.5s-65.5 -80.833 -65.5 -143.5h-153c0 112 37.833 192.833 113.5 242.5
s175.5 74.5 299.5 74.5zM444.001 106c84.667 0 159.167 25.668 223.5 77.001s96.5 124 96.5 218v99h-295c-70.667 0 -128 -16.833 -172 -50.5s-66 -83.834 -66 -150.501c0 -65.333 19.5 -113.833 58.5 -145.5s90.5 -47.5 154.5 -47.5z" />
    <glyph glyph-name="Gcaron" unicode="&#x1e6;" horiz-adv-x="1392" 
d="M631 1569l-223 289h157l142 -191l141 191h158l-224 -289h-151zM1268 723v-722.998h-146v174c-78 -130 -218.667 -194.833 -422 -194.5s-352.333 62.833 -447 187.5s-142 309.167 -142 553.5s49.5 427.666 148.5 549.999s254.167 183.5 465.5 183.5
c169.333 0 301.166 -38.167 395.499 -114.5s141.5 -186.833 141.5 -331.5h-164c0 102.667 -32.167 179.834 -96.5 231.501s-156.5 77.5 -276.5 77.5c-160 0 -274 -48.167 -342 -144.5s-102 -249.5 -102 -459.5c0 -206 34.333 -355.5 103 -448.5
s186.334 -139.5 353.001 -139.5c42 0 81.833 4.16699 119.5 12.5s76.667 22.666 117 42.999s72.5 52.666 96.5 96.999s36 98.5 36 162.5v158h-383v125h545z" />
    <glyph glyph-name="gcaron" unicode="&#x1e7;" horiz-adv-x="1122" 
d="M485 1159l-223 289h158l141 -191l141 191h158l-223 -289h-152zM842 1024h157.001v-1018c0 -135.333 -33.333 -238.5 -100 -309.5s-184 -106.5 -352 -106.5c-273.333 0 -410 106.667 -410 320h158c2.66699 -130 94 -195 274 -195c94 0 162 21.167 204 63.5
s63 115.5 63 219.5v201c-75.333 -106.667 -192.333 -160 -351 -160c-131.333 0 -232 40 -302 120s-105 197 -105 351c0 180 38.5 314 115.5 402s185.833 132 326.5 132c151.333 0 258.666 -48.333 321.999 -145v125zM522.001 170c91.333 0 166.502 26 225.502 78
s88.5 121.667 88.5 209v172c0 86 -29.833 155.667 -89.5 209s-133.834 80 -222.501 80c-188.667 0 -282.667 -133.333 -282 -400c-0.666992 -232 92.666 -348 279.999 -348z" />
    <glyph glyph-name="Oslashacute" unicode="&#x1fe;" horiz-adv-x="1404" 
d="M1032 1855l-248 -288h-161l200 288h209zM1135 1290c106.667 -118.667 159.666 -309.667 158.999 -573c0 -491.333 -197.333 -737 -592 -737c-134 0 -243.667 26.333 -329 79l-101 -161h-153l153 247c-108 121.333 -161.667 312 -161 572c0 246 47.333 430.333 142 553
s244.334 184 449.001 184c134 0 244 -26.667 330 -80l101 162h153zM280.999 717c0 -191.333 26.333 -334.001 79 -428.001l594 958c-62.667 46.667 -146.667 70 -252 70c-151.333 0 -259.333 -48.167 -324 -144.5s-97 -248.166 -97 -455.499zM701.999 120.999
c151.333 0 259.5 47.5 324.5 142.5s97.5 246.167 97.5 453.5c0 191.333 -26.667 334 -80 428l-591 -957c60.667 -44.667 143.667 -67 249 -67z" />
    <glyph glyph-name="oslashacute" unicode="&#x1ff;" horiz-adv-x="1122" 
d="M895 1452l-248 -289h-162l201 289h209zM1044 1063l-111.999 -154c75.333 -84.667 112.666 -217 111.999 -397c0 -177.333 -38.5 -310.333 -115.5 -399s-199.5 -133 -367.5 -133c-112 0 -204 19.667 -276 59l-41 -55h-166l104 141c-69.333 87.333 -104 216.333 -104 387
c0 178.667 38.5 312 115.5 400s199.5 132 367.5 132c105.333 0 193.333 -17.667 264 -53l54 72h165zM242.001 512c0 -101.333 14.334 -184.001 43.001 -248.001l452 608c-46.667 26 -105.334 39 -176.001 39c-112 0 -193.167 -32.667 -243.5 -98
s-75.5 -165.666 -75.5 -300.999zM881.002 511.999c0 110.667 -17.333 198 -52 262l-454 -614c48 -31.333 110 -47 186 -47c112 0 193.333 33 244 99s76 166 76 300z" />
    <glyph glyph-name="uni0218" unicode="&#x218;" horiz-adv-x="1204" 
d="M733 807c116 -12 208.501 -52.835 277.501 -122.502s103.5 -165.5 103.5 -287.5c0 -139.333 -46 -243.666 -138 -312.999s-220 -104 -384 -104c-166.667 0 -294 35 -382 105s-132 172 -132 306h170c0 -181.333 116 -272 348 -272s348 92 348 276
c0 154 -84 239.333 -252 256l-192 19c-120 12 -214.833 51.167 -284.5 117.5s-104.5 157.5 -104.5 273.5c0 132.667 44.667 231.334 134 296.001s213 97 371 97c157.333 0 275.166 -31 353.499 -93s117.5 -150.333 117.5 -265h-167c0 148.667 -102 223 -306 223
c-222.667 0 -333.667 -86 -333 -258c0 -72.667 20.833 -127 62.5 -163s104.5 -59 188.5 -69zM532.001 -236.002v158h140v-158l-74 -188h-78l53 188h-41z" />
    <glyph glyph-name="uni0219" unicode="&#x219;" horiz-adv-x="985" 
d="M602 584c206 -24.667 309.001 -122.999 309.001 -294.999c0 -206 -139.667 -309 -419 -309c-277.333 0 -418 107 -422 321h166c0 -66.667 23.5 -116.167 70.5 -148.5s109.5 -48.5 187.5 -48.5c87.333 0 151.5 16.833 192.5 50.5s61.5 79.167 61.5 136.5
c0 46.667 -15.833 84.167 -47.5 112.5s-76.167 46.166 -133.5 53.499l-149 16c-208.667 24.667 -313.334 119.667 -314.001 285c0 191.333 131.333 286.666 394 285.999c254 0 382.333 -97.333 385 -292h-158c0 113.333 -75 170 -225 170c-74 0 -131.167 -13.667 -171.5 -41
s-60.5 -65.666 -60.5 -114.999c0 -95.333 59.333 -150 178 -164zM432.001 -235.999v158h139v-158l-73 -188h-78l53 188h-41z" />
    <glyph glyph-name="uni021A" unicode="&#x21a;" horiz-adv-x="1179" 
d="M1128 1434v-140h-452v-1294h-170v1294h-455v140h1077zM522 -236v158h140v-158l-74 -188h-78l53 188h-41z" />
    <glyph glyph-name="uni021B" unicode="&#x21b;" horiz-adv-x="700" 
d="M627 905h-232v-629c0 -58.667 11.333 -100.5 34 -125.5s60.667 -37.5 114 -37.5c20.667 0 46.667 1.33301 78 4v-129c-38 -5.33301 -76.333 -8 -115 -8c-94 0 -162.5 20.333 -205.5 61s-64.5 115.667 -64.5 225v639h-187v119h187v276h159v-276h232v-119zM379 -236v158
h139v-158l-74 -188h-77l53 188h-41z" />
    <glyph glyph-name="uni0228" unicode="&#x228;" horiz-adv-x="1146" 
d="M1075 0l-381.001 -0.000976562l-28 -70c122.667 0 184 -49.667 184 -149c0 -61.333 -21.167 -106.666 -63.5 -135.999s-99.166 -44 -170.499 -44c-134 0 -200.667 55.333 -200 166h108c0 -48 30.667 -72 92 -72c76.667 0 115 28 115 84c0 48 -32.667 71.667 -98 71h-90
l51 150h-430v1434h885v-140h-715v-477h688v-139h-688v-539h741v-139z" />
    <glyph glyph-name="uni0229" unicode="&#x229;" horiz-adv-x="1071" 
d="M244 461c5.33301 -116 32.832 -203.001 82.499 -261.001s127.834 -87 234.501 -87c82 0 145.167 17 189.5 51s68.5 81.667 72.5 143h162c-6.66699 -200.667 -129 -309 -367 -325l-20 -52c122.667 0 184 -49.667 184 -149c0 -61.333 -21.167 -106.666 -63.5 -135.999
s-98.833 -44 -169.5 -44c-134 0 -201 55.333 -201 166h109c0 -48 30.667 -72 92 -72c76.667 0 115 28 115 84c0 48 -33 71.667 -99 71h-90l45 130c-154 8 -266.167 56 -336.5 144s-105.5 217.333 -105.5 388c0 354.667 159.667 532 479 532c297.333 0 446.333 -178 447 -534
c0 -5.33301 -0.5 -13.5 -1.5 -24.5s-1.5 -19.167 -1.5 -24.5h-757zM556.999 912.999c-102.667 0 -178.832 -27.5 -228.499 -82.5s-77.834 -141.5 -84.501 -259.5h596c-6.66699 116 -33 202 -79 258s-114 84 -204 84z" />
    <glyph glyph-name="uni0237" unicode="&#x237;" horiz-adv-x="448" 
d="M-92 -410v131.001c80.667 0 142 18.667 184 56c38 34 57.333 88.667 58 164v1083h163v-1083c0 -132.667 -43 -228.334 -129 -287.001c-61.333 -42.667 -153.333 -64 -276 -64z" />
    <glyph glyph-name="circumflex" unicode="&#x2c6;" horiz-adv-x="802" 
d="M700 1157h-157l-142 191l-141 -191h-158l224 289h151z" />
    <glyph glyph-name="caron" unicode="&#x2c7;" horiz-adv-x="802" 
d="M543 1448h157l-223 -289h-151l-224 289h158l141 -191z" />
    <glyph glyph-name="breve" unicode="&#x2d8;" horiz-adv-x="808" 
d="M403 1143c-112 0 -190.168 22.5 -234.501 67.5s-66.5 111.167 -66.5 198.5h119c0 -57.333 14.667 -99.333 44 -126s75.333 -40 138 -40c122.667 0 184.334 55.333 185.001 166h119c0 -100 -26.5 -169.333 -79.5 -208s-127.833 -58 -224.5 -58z" />
    <glyph glyph-name="dotaccent" unicode="&#x2d9;" horiz-adv-x="372" 
d="M102 1135v182h162v-182h-162z" />
    <glyph glyph-name="ring" unicode="&#x2da;" horiz-adv-x="602" 
d="M301 1104c-132.667 0 -199 66.332 -199 198.999c0 130 66.333 194.833 199 194.5s199 -65.166 199 -194.499c0 -132.667 -66.333 -199 -199 -199zM301.5 1192c69.667 0 104.5 37 104.5 111c0 70.667 -34.833 106 -104.5 106s-104.5 -35.333 -104.5 -106
c0 -74 34.833 -111 104.5 -111z" />
    <glyph glyph-name="ogonek" unicode="&#x2db;" horiz-adv-x="585" 
d="M332 -401c-70.667 0 -126.668 16.333 -168.001 49s-62 76.334 -62 131.001c0 87.333 60.333 161.666 181 222.999h110c-45.333 -22 -83.333 -49.667 -114 -83s-46 -68.333 -46 -105c0 -32.667 12.667 -57.667 38 -75s59.333 -26 102 -26
c32.667 0 69.334 6.33301 110.001 19v-105c-54 -18.667 -104.333 -28 -151 -28z" />
    <glyph glyph-name="tilde" unicode="&#x2dc;" horiz-adv-x="862" 
d="M102 1147c0 64 16.5 114.167 49.5 150.5s78.167 54.5 135.5 54.5c34 0 69.333 -7.66699 106 -23l86 -35c30 -12 58.667 -18 86 -18c28.667 0 51.5 7.16699 68.5 21.5s25.5 34.5 25.5 60.5h101c0 -62.667 -16.833 -112.167 -50.5 -148.5s-79.167 -54.5 -136.5 -54.5
c-35.333 0 -69.333 7 -102 21l-88 34c-31.333 12 -60 18.333 -86 19c-28.667 0 -51.5 -7.16699 -68.5 -21.5s-25.5 -34.5 -25.5 -60.5h-101z" />
    <glyph glyph-name="hungarumlaut" unicode="&#x2dd;" horiz-adv-x="929" 
d="M102 1157l211 289h195l-258 -289h-148zM422 1157l211 289h194l-258 -289h-147z" />
    <glyph glyph-name="gravecomb" unicode="&#x300;" horiz-adv-x="0" 
d="M-102 1157h-162l-248 289h209z" />
    <glyph glyph-name="acutecomb" unicode="&#x301;" horiz-adv-x="0" 
d="M-512 1157l201 289h209l-248 -289h-162z" />
    <glyph glyph-name="uni0302" unicode="&#x302;" horiz-adv-x="0" 
d="M-102 1157h-158l-141 191l-142 -191h-157l223 289h151z" />
    <glyph glyph-name="tildecomb" unicode="&#x303;" horiz-adv-x="0" 
d="M-760 1147c0 64 16.333 114.167 49 150.5s78 54.5 136 54.5c34 0 69.333 -7.66699 106 -23l86 -35c31.333 -12 60 -18 86 -18c28.667 0 51.5 7.16699 68.5 21.5s25.5 34.5 25.5 60.5h101c0 -62.667 -16.833 -112.167 -50.5 -148.5s-79.167 -54.5 -136.5 -54.5
c-35.333 0 -69.333 7 -102 21l-88 34c-30 12 -58.667 18.333 -86 19c-28.667 0 -51.5 -7.16699 -68.5 -21.5s-25.5 -34.5 -25.5 -60.5h-101z" />
    <glyph glyph-name="uni0304" unicode="&#x304;" horiz-adv-x="0" 
d="M-584 1161v123h482v-123h-482z" />
    <glyph glyph-name="uni0306" unicode="&#x306;" horiz-adv-x="0" 
d="M-406 1143c-112 0 -190.168 22.5 -234.501 67.5s-66.5 111.167 -66.5 198.5h119c0 -57.333 14.667 -99.333 44 -126s75.333 -40 138 -40c122.667 0 184.334 55.333 185.001 166h119c0 -100 -26.5 -169.333 -79.5 -208s-127.833 -58 -224.5 -58z" />
    <glyph glyph-name="uni0307" unicode="&#x307;" horiz-adv-x="0" 
d="M-270 1135v182h161v-182h-161z" />
    <glyph glyph-name="uni0308" unicode="&#x308;" horiz-adv-x="0" 
d="M-600 1143v174h151v-174h-151zM-256 1143v174h154v-174h-154z" />
    <glyph glyph-name="uni030A" unicode="&#x30a;" horiz-adv-x="0" 
d="M-301 1104c-132.667 0 -199 66.332 -199 198.999c0 130 66.333 194.833 199 194.5s199 -65.166 199 -194.499c0 -132.667 -66.333 -199 -199 -199zM-301.5 1192c69.667 0 104.5 37 104.5 111c0 70.667 -34.833 106 -104.5 106s-104.5 -35.333 -104.5 -106
c0 -74 34.833 -111 104.5 -111z" />
    <glyph glyph-name="uni030B" unicode="&#x30b;" horiz-adv-x="0" 
d="M-827 1157l211 289h194l-258 -289h-147zM-508 1157l211 289h195l-258 -289h-148z" />
    <glyph glyph-name="uni030C" unicode="&#x30c;" horiz-adv-x="0" 
d="M-260 1448h158l-224 -289h-151l-223 289h157l142 -191z" />
    <glyph glyph-name="uni0312" unicode="&#x312;" horiz-adv-x="0" 
d="M-102 1378l-54 -188h41v-158h-139v158l74 188h78z" />
    <glyph glyph-name="dotbelowcomb" unicode="&#x323;" horiz-adv-x="0" 
d="M-270 -342v182h161v-182h-161z" />
    <glyph glyph-name="uni0326" unicode="&#x326;" horiz-adv-x="0" 
d="M-242 -78h140v-158l-74 -188h-78l53 188h-41v158z" />
    <glyph glyph-name="uni0327" unicode="&#x327;" horiz-adv-x="0" 
d="M-287 -70c122.667 0 184.332 -49.668 184.999 -149.001c0 -61.333 -21.167 -106.666 -63.5 -135.999s-99.166 -44 -170.499 -44c-134 0 -201 55.333 -201 166h109c0 -48 30.667 -72 92 -72c76.667 0 115 28 115 84c0 48 -32.667 71.667 -98 71h-91l56 162h100z" />
    <glyph glyph-name="uni0328" unicode="&#x328;" horiz-adv-x="0" 
d="M-254 -401c-70.667 0 -126.5 16.333 -167.5 49s-61.5 76.334 -61.5 131.001c0 87.333 60 161.666 180 222.999h110c-45.333 -22 -83.166 -49.667 -113.499 -83s-45.5 -68.333 -45.5 -105c0 -32.667 12.667 -57.667 38 -75s59 -26 101 -26c32.667 0 69.667 6.33301 111 19
v-105c-54.667 -18.667 -105.334 -28 -152.001 -28z" />
    <glyph glyph-name="uni032D" unicode="&#x32d;" horiz-adv-x="0" 
d="M-102 -367h-158l-141 191l-142 -191h-157l223 289h151z" />
    <glyph glyph-name="uni0331" unicode="&#x331;" horiz-adv-x="0" 
d="M-633 -336v123h531v-123h-531z" />
    <glyph glyph-name="uni1E04" unicode="&#x1e04;" horiz-adv-x="1257" 
d="M903 745c173.333 -39.333 259.999 -153.331 259.999 -341.998c0 -140.667 -42.667 -243 -128 -307s-199.666 -96 -342.999 -96h-528v1434h467c142 0 256 -29.833 342 -89.5s129 -152.834 129 -279.501c0 -150.667 -66.333 -257.334 -199 -320.001zM626.999 1296h-293
v-489h336c87.333 0 153.5 20.833 198.5 62.5s67.5 101.5 67.5 179.5c0 164.667 -103 247 -309 247zM663.999 137.002c222.667 0 333.667 92.333 333 277c0 176 -103 264 -309 264h-354v-541h330zM544.999 -341.998v182h162v-182h-162z" />
    <glyph glyph-name="uni1E05" unicode="&#x1e05;" horiz-adv-x="1140" 
d="M651 1044c274.667 0 412.001 -174 412.001 -522c0 -362 -146.667 -542.667 -440 -542c-150 0 -258 49.667 -324 149v-129h-158v1434h164v-549c75.333 106 190.666 159 345.999 159zM612.001 106c94 0 165.333 32.499 214 97.499s73 169.167 73 312.5
c0 138 -23.5 238.667 -70.5 302s-119.167 95 -216.5 95c-87.333 0 -160.333 -26.167 -219 -78.5s-88 -122.166 -88 -209.499v-230c0 -86 29.667 -155.667 89 -209s132 -80 218 -80zM578.001 -342.001v182h161v-182h-161z" />
    <glyph glyph-name="uni1E0C" unicode="&#x1e0c;" horiz-adv-x="1374" 
d="M715 1434c82 0 154.669 -11.333 218.002 -34s120.666 -60 171.999 -112s90.666 -125 117.999 -219s41 -208.667 41 -344c0 -483.333 -183 -725 -549 -725h-551v1434h551zM715.002 139c54.667 0 102.5 7.83105 143.5 23.498s80.167 43.334 117.5 83.001
s66.333 99.834 87 180.501s31 180.334 31 299.001c0 120 -10.333 219.667 -31 299s-50.5 137.666 -89.5 174.999s-78.167 62.5 -117.5 75.5s-86.333 19.5 -141 19.5h-381v-1155h381zM537.002 -342.002v182h161v-182h-161z" />
    <glyph glyph-name="uni1E0D" unicode="&#x1e0d;" horiz-adv-x="1140" 
d="M836 1434l163 0.000976562v-1434h-157v150c-74 -113.333 -193 -170 -357 -170c-272 0 -407.667 173.333 -407 520c0 363.333 146.667 544.666 440 543.999c146 0 252 -45.667 318 -137v527zM522 111.001c91.333 0 166.501 25.832 225.501 77.499
s88.5 121.834 88.5 210.501v230c0 86 -29.833 155.667 -89.5 209s-133.834 80 -222.501 80c-188.667 0 -282.667 -136.667 -282 -410c0 -136.667 23.167 -237 69.5 -301s116.5 -96 210.5 -96zM442.001 -342v182h162v-182h-162z" />
    <glyph glyph-name="uni1E0E" unicode="&#x1e0e;" horiz-adv-x="1374" 
d="M715 1434c82 0 154.669 -11.333 218.002 -34s120.666 -60 171.999 -112s90.666 -125 117.999 -219s41 -208.667 41 -344c0 -483.333 -183 -725 -549 -725h-551v1434h551zM715.002 139c54.667 0 102.5 7.83105 143.5 23.498s80.167 43.334 117.5 83.001
s66.333 99.834 87 180.501s31 180.334 31 299.001c0 120 -10.333 219.667 -31 299s-50.5 137.666 -89.5 174.999s-78.167 62.5 -117.5 75.5s-86.333 19.5 -141 19.5h-381v-1155h381zM354.002 -336.002v123h531v-123h-531z" />
    <glyph glyph-name="uni1E0F" unicode="&#x1e0f;" horiz-adv-x="1140" 
d="M836 1434l163 0.000976562v-1434h-157v150c-74 -113.333 -193 -170 -357 -170c-272 0 -407.667 173.333 -407 520c0 363.333 146.667 544.666 440 543.999c146 0 252 -45.667 318 -137v527zM522 111.001c91.333 0 166.501 25.832 225.501 77.499
s88.5 121.834 88.5 210.501v230c0 86 -29.833 155.667 -89.5 209s-133.834 80 -222.501 80c-188.667 0 -282.667 -136.667 -282 -410c0 -136.667 23.167 -237 69.5 -301s116.5 -96 210.5 -96zM260.001 -336v123h531v-123h-531z" />
    <glyph glyph-name="uni1E12" unicode="&#x1e12;" horiz-adv-x="1374" 
d="M715 1434c82 0 154.669 -11.333 218.002 -34s120.666 -60 171.999 -112s90.666 -125 117.999 -219s41 -208.667 41 -344c0 -483.333 -183 -725 -549 -725h-551v1434h551zM715.002 139c54.667 0 102.5 7.83105 143.5 23.498s80.167 43.334 117.5 83.001
s66.333 99.834 87 180.501s31 180.334 31 299.001c0 120 -10.333 219.667 -31 299s-50.5 137.666 -89.5 174.999s-78.167 62.5 -117.5 75.5s-86.333 19.5 -141 19.5h-381v-1155h381zM694.002 -78.002l224 -289h-158l-142 191l-141 -191h-158l224 289h151z" />
    <glyph glyph-name="uni1E13" unicode="&#x1e13;" horiz-adv-x="1140" 
d="M836 1434l163 0.000976562v-1434h-157v150c-74 -113.333 -193 -170 -357 -170c-272 0 -407.667 173.333 -407 520c0 363.333 146.667 544.666 440 543.999c146 0 252 -45.667 318 -137v527zM522 111.001c91.333 0 166.501 25.832 225.501 77.499
s88.5 121.834 88.5 210.501v230c0 86 -29.833 155.667 -89.5 209s-133.834 80 -222.501 80c-188.667 0 -282.667 -136.667 -282 -410c0 -136.667 23.167 -237 69.5 -301s116.5 -96 210.5 -96zM600.001 -78l223 -289h-157l-142 191l-141 -191h-158l224 289h151z" />
    <glyph glyph-name="uni1E24" unicode="&#x1e24;" horiz-adv-x="1390" 
d="M1057 1434h170v-1434h-170v676h-723v-676h-170v1434h170v-619h723v619zM608 -342v182h162v-182h-162z" />
    <glyph glyph-name="uni1E25" unicode="&#x1e25;" horiz-adv-x="1130" 
d="M666 1044c228 0 342 -123.333 342 -370v-674h-164v668c0 82 -17.5 144.5 -52.5 187.5s-92.833 64.5 -173.5 64.5c-91.333 0 -166.333 -26.667 -225 -80s-88 -123 -88 -209v-631h-164v1434h164v-551c76.667 107.333 197 161 361 161zM496 -342v182h161v-182h-161z" />
    <glyph glyph-name="uni1E2E" unicode="&#x1e2e;" horiz-adv-x="497" 
d="M170 1827l201 289h209l-248 -289h-162zM0 1548v174h152v-174h-152zM344 1548v174h154v-174h-154zM164 0v1434h170v-1434h-170z" />
    <glyph glyph-name="uni1E2F" unicode="&#x1e2f;" horiz-adv-x="428" 
d="M98 1417l201 289h209l-248 -289h-162zM0 1139v174h152v-174h-152zM274 1139v174h154v-174h-154zM135 0v1024h164v-1024h-164z" />
    <glyph glyph-name="uni1E36" unicode="&#x1e36;" horiz-adv-x="1083" 
d="M334 139h696v-139h-866v1434h170v-1295zM541 -342v182h161v-182h-161z" />
    <glyph glyph-name="uni1E37" unicode="&#x1e37;" horiz-adv-x="446" 
d="M141 0v1434h164v-1434h-164zM141 -342v182h162v-182h-162z" />
    <glyph glyph-name="uni1E3C" unicode="&#x1e3c;" horiz-adv-x="1083" 
d="M334 139h696v-139h-866v1434h170v-1295zM698 -78l224 -289h-158l-141 191l-142 -191h-157l223 289h151z" />
    <glyph glyph-name="uni1E3D" unicode="&#x1e3d;" horiz-adv-x="446" 
d="M305 1434v-1434h-164v1434h164zM522 -367h-157l-142 191l-141 -191h-158l223 289h152z" />
    <glyph glyph-name="uni1E3E" unicode="&#x1e3e;" horiz-adv-x="1677" 
d="M1169 1855l-247 -288h-162l201 288h208zM1513 1434v-1434h-159v1167l-422 -1167h-184l-424 1167v-1167h-160v1434h231l445 -1260l442 1260h231z" />
    <glyph glyph-name="uni1E3F" unicode="&#x1e3f;" horiz-adv-x="1734" 
d="M1200 1446l-248 -289h-161l200 289h209zM1274 1044c225.333 0 338 -123.333 338 -370v-674h-164v668c0 168 -70.333 252 -211 252c-86 0 -154.333 -26.333 -205 -79s-76 -122.667 -76 -210v-631h-163v668c0 168 -70.333 252 -211 252c-83.333 0 -152 -28.333 -206 -85
s-81 -124.667 -81 -204v-631h-164v1024h158v-141c70.667 108 182.667 161.667 336 161c150 0 249.667 -59.333 299 -178c68 118.667 184.667 178 350 178z" />
    <glyph glyph-name="uni1E44" unicode="&#x1e44;" horiz-adv-x="1402" 
d="M791 1726v-182h-162v182h162zM1237 4l2 -4h-178l-731 1196v-1196h-166v1434h198l709 -1160v1160h166v-1430z" />
    <glyph glyph-name="uni1E45" unicode="&#x1e45;" horiz-adv-x="1120" 
d="M639 1317v-182h-162v182h162zM655 1044c228 0 342 -123.333 342 -370v-674h-163v668c0 82 -17.5 144.5 -52.5 187.5s-92.833 64.5 -173.5 64.5c-91.333 0 -166.333 -26.667 -225 -80s-88 -123 -88 -209v-631h-164v1024h158v-150c77.333 113.333 199.333 170 366 170z" />
    <glyph glyph-name="uni1E46" unicode="&#x1e46;" horiz-adv-x="1402" 
d="M1237 4l2 -4h-178l-731 1196v-1196h-166v1434h198l709 -1160v1160h166v-1430zM627 -342v182h161v-182h-161z" />
    <glyph glyph-name="uni1E47" unicode="&#x1e47;" horiz-adv-x="1120" 
d="M655 1044c228 0 342 -123.333 342 -370v-674h-163v668c0 82 -17.5 144.5 -52.5 187.5s-92.833 64.5 -173.5 64.5c-91.333 0 -166.333 -26.667 -225 -80s-88 -123 -88 -209v-631h-164v1024h158v-150c77.333 113.333 199.333 170 366 170zM475 -342v182h162v-182h-162z" />
    <glyph glyph-name="uni1E4A" unicode="&#x1e4a;" horiz-adv-x="1402" 
d="M1237 4l2 -4h-178l-731 1196v-1196h-166v1434h198l709 -1160v1160h166v-1430zM784 -78l224 -289h-158l-141 191l-142 -191h-157l223 289h151z" />
    <glyph glyph-name="uni1E4B" unicode="&#x1e4b;" horiz-adv-x="1120" 
d="M655 1044c228 0 342 -123.333 342 -370v-674h-163v668c0 82 -17.5 144.5 -52.5 187.5s-92.833 64.5 -173.5 64.5c-91.333 0 -166.333 -26.667 -225 -80s-88 -123 -88 -209v-631h-164v1024h158v-150c77.333 113.333 199.333 170 366 170zM633 -78l223 -289h-158l-141 191
l-141 -191h-158l223 289h152z" />
    <glyph glyph-name="uni1E4C" unicode="&#x1e4c;" horiz-adv-x="1404" 
d="M621 1819l200 288h209l-248 -288h-161zM373 1536c0 64 16.3311 114.167 48.998 150.5s77.667 54.5 135 54.5c34 0 69.667 -7.66699 107 -23l86 -35c31.333 -12 60 -18 86 -18c28.667 0 51.5 7.16699 68.5 21.5s25.5 34.5 25.5 60.5h100
c0 -62.667 -16.667 -112.167 -50 -148.5s-78.666 -54.5 -135.999 -54.5c-35.333 0 -69.666 7 -102.999 21l-88 34c-31.333 12 -60 18.333 -86 19c-28.667 0 -51.5 -7.16699 -68.5 -21.5s-25.5 -34.5 -25.5 -60.5h-100zM702.498 -20c-394.333 0 -591.5 245.667 -591.5 737
c0 246 47.333 430.333 142 553s244.5 184 449.5 184s354.833 -61.5 449.5 -184.5s142 -307.167 142 -552.5c0 -491.333 -197.167 -737 -591.5 -737zM702.498 121c151.667 0 259.834 47.5 324.501 142.5s97 246.167 97 453.5s-32.333 359.166 -97 455.499
s-172.834 144.5 -324.501 144.5s-259.834 -48.167 -324.501 -144.5s-97 -248.166 -97 -455.499s32.333 -358.5 97 -453.5s172.834 -142.5 324.501 -142.5z" />
    <glyph glyph-name="uni1E4D" unicode="&#x1e4d;" horiz-adv-x="1122" 
d="M483 1415l201 289h209l-248 -289h-162zM236 1133c0 64 16.3311 114 48.998 150s77.667 54 135 54c34 0 69.333 -7.33301 106 -22l86 -35c30 -12 58.667 -18 86 -18c28.667 0 51.667 7.16699 69 21.5s26 34.166 26 59.499h100c0 -62.667 -16.667 -112 -50 -148
s-78.666 -54 -135.999 -54c-35.333 0 -69.666 6.66699 -102.999 20l-88 35c-31.333 12 -60 18 -86 18c-28.667 0 -51.5 -7.16699 -68.5 -21.5s-25.5 -34.166 -25.5 -59.499h-100zM560.998 -20c-168 0 -290.5 44.333 -367.5 133s-115.5 221.667 -115.5 399
c0 178.667 38.5 312 115.5 400s199.5 132 367.5 132s290.5 -44 367.5 -132s115.5 -221.333 115.5 -400c0 -177.333 -38.5 -310.333 -115.5 -399s-199.5 -133 -367.5 -133zM560.998 113c112 0 193.333 33 244 99s76 166 76 300c0 135.333 -25.333 235.666 -76 300.999
s-132 98 -244 98s-193.167 -32.667 -243.5 -98s-75.5 -165.666 -75.5 -300.999c0 -134 25.167 -234 75.5 -300s131.5 -99 243.5 -99z" />
    <glyph glyph-name="uni1E50" unicode="&#x1e50;" horiz-adv-x="1404" 
d="M897 1821h-162l-248 288h209zM459 1565v123h481v-123h-481zM702.5 -20c-394.333 0 -591.5 245.667 -591.5 737c0 246 47.333 430.333 142 553s244.5 184 449.5 184s354.833 -61.5 449.5 -184.5s142 -307.167 142 -552.5c0 -491.333 -197.167 -737 -591.5 -737zM702.5 121
c151.667 0 259.834 47.5 324.501 142.5s97 246.167 97 453.5s-32.333 359.166 -97 455.499s-172.834 144.5 -324.501 144.5s-259.834 -48.167 -324.501 -144.5s-97 -248.166 -97 -455.499s32.333 -358.5 97 -453.5s172.834 -142.5 324.501 -142.5z" />
    <glyph glyph-name="uni1E51" unicode="&#x1e51;" horiz-adv-x="1122" 
d="M760 1417h-162l-248 289h209zM322 1161v123h481v-123h-481zM561 -20c-168 0 -290.5 44.333 -367.5 133s-115.5 221.667 -115.5 399c0 178.667 38.5 312 115.5 400s199.5 132 367.5 132s290.5 -44 367.5 -132s115.5 -221.333 115.5 -400
c0 -177.333 -38.5 -310.333 -115.5 -399s-199.5 -133 -367.5 -133zM561 113c112 0 193.333 33 244 99s76 166 76 300c0 135.333 -25.333 235.666 -76 300.999s-132 98 -244 98s-193.167 -32.667 -243.5 -98s-75.5 -165.666 -75.5 -300.999c0 -134 25.167 -234 75.5 -300
s131.5 -99 243.5 -99z" />
    <glyph glyph-name="uni1E52" unicode="&#x1e52;" horiz-adv-x="1404" 
d="M623 1821l200 288h209l-248 -288h-161zM461 1565v123h481v-123h-481zM702.5 -20c-394.333 0 -591.5 245.667 -591.5 737c0 246 47.333 430.333 142 553s244.5 184 449.5 184s354.833 -61.5 449.5 -184.5s142 -307.167 142 -552.5c0 -491.333 -197.167 -737 -591.5 -737z
M702.5 121c151.667 0 259.834 47.5 324.501 142.5s97 246.167 97 453.5s-32.333 359.166 -97 455.499s-172.834 144.5 -324.501 144.5s-259.834 -48.167 -324.501 -144.5s-97 -248.166 -97 -455.499s32.333 -358.5 97 -453.5s172.834 -142.5 324.501 -142.5z" />
    <glyph glyph-name="uni1E53" unicode="&#x1e53;" horiz-adv-x="1122" 
d="M485 1417l201 289h209l-248 -289h-162zM324 1161v123h481v-123h-481zM561 -20c-168 0 -290.5 44.333 -367.5 133s-115.5 221.667 -115.5 399c0 178.667 38.5 312 115.5 400s199.5 132 367.5 132s290.5 -44 367.5 -132s115.5 -221.333 115.5 -400
c0 -177.333 -38.5 -310.333 -115.5 -399s-199.5 -133 -367.5 -133zM561 113c112 0 193.333 33 244 99s76 166 76 300c0 135.333 -25.333 235.666 -76 300.999s-132 98 -244 98s-193.167 -32.667 -243.5 -98s-75.5 -165.666 -75.5 -300.999c0 -134 25.167 -234 75.5 -300
s131.5 -99 243.5 -99z" />
    <glyph glyph-name="uni1E62" unicode="&#x1e62;" horiz-adv-x="1204" 
d="M592 -20c-166.667 0 -293.999 34.998 -381.999 104.998s-132 172 -132 306h170c0 -181.333 116 -272 348 -272s348 92 348 276c0 154 -84 239.333 -252 256l-192 19c-120 12 -214.833 51.167 -284.5 117.5s-104.5 157.5 -104.5 273.5
c0 132.667 44.667 231.334 134 296.001s213 97 371 97c157.333 0 275.166 -31 353.499 -93s117.5 -150.333 117.5 -265h-167c0 148.667 -102 223 -306 223c-222.667 0 -333.667 -86 -333 -258c0 -72.667 20.833 -127 62.5 -163s104.5 -59 188.5 -69l201 -22
c116 -12 208.5 -52.833 277.5 -122.5s103.5 -165.5 103.5 -287.5c0 -139.333 -46 -243.666 -138 -312.999s-220 -104 -384 -104zM518.001 -342.002v182h162v-182h-162z" />
    <glyph glyph-name="uni1E63" unicode="&#x1e63;" horiz-adv-x="985" 
d="M492 -20c-277.333 0 -417.999 107.001 -421.999 321.001h166c0 -66.667 23.5 -116.167 70.5 -148.5s109.5 -48.5 187.5 -48.5c87.333 0 151.5 16.833 192.5 50.5s61.5 79.167 61.5 136.5c0 46.667 -15.833 84.167 -47.5 112.5s-76.167 46.166 -133.5 53.499l-149 16
c-208.667 24.667 -313.334 119.667 -314.001 285c0 191.333 131.333 286.666 394 285.999c254 0 382.333 -97.333 385 -292h-158c0 113.333 -75 170 -225 170c-74 0 -131.167 -13.667 -171.5 -41s-60.5 -65.666 -60.5 -114.999c0 -95.333 59.333 -150 178 -164l156 -18
c206 -24.667 309 -123 309 -295c0.666992 -206 -139 -309 -419 -309zM418.001 -341.999v182h162v-182h-162z" />
    <glyph glyph-name="uni1E6C" unicode="&#x1e6c;" horiz-adv-x="1179" 
d="M1128 1434v-140h-452v-1294h-170v1294h-455v140h1077zM508 -342v182h162v-182h-162z" />
    <glyph glyph-name="uni1E6D" unicode="&#x1e6d;" horiz-adv-x="700" 
d="M627 905h-232v-629c0 -58.667 11.333 -100.5 34 -125.5s60.667 -37.5 114 -37.5c20.667 0 46.667 1.33301 78 4v-129c-38 -5.33301 -76.333 -8 -115 -8c-94 0 -162.5 20.333 -205.5 61s-64.5 115.667 -64.5 225v639h-187v119h187v276h159v-276h232v-119zM365 -342v182
h161v-182h-161z" />
    <glyph glyph-name="uni1E6E" unicode="&#x1e6e;" horiz-adv-x="1179" 
d="M1128 1434v-140h-452v-1294h-170v1294h-455v140h1077zM326 -336v123h530v-123h-530z" />
    <glyph glyph-name="uni1E6F" unicode="&#x1e6f;" horiz-adv-x="700" 
d="M236 266v639h-187v119h187v276h159v-276h232v-119h-232v-629c0 -58.667 11.333 -100.5 34 -125.5s60.667 -37.5 114 -37.5c20.667 0 46.667 1.33301 78 4v-129c-38 -5.33301 -76.333 -8 -115 -8c-94 0 -162.5 20.333 -205.5 61s-64.5 115.667 -64.5 225zM182 -213h531
v-123h-531v123z" />
    <glyph glyph-name="uni1E70" unicode="&#x1e70;" horiz-adv-x="1179" 
d="M1128 1434v-140h-452v-1294h-170v1294h-455v140h1077zM666 -78l223 -289h-158l-141 191l-141 -191h-158l223 289h152z" />
    <glyph glyph-name="uni1E71" unicode="&#x1e71;" horiz-adv-x="700" 
d="M236 266v639h-187v119h187v276h159v-276h232v-119h-232v-629c0 -58.667 11.333 -100.5 34 -125.5s60.667 -37.5 114 -37.5c20.667 0 46.667 1.33301 78 4v-129c-38 -5.33301 -76.333 -8 -115 -8c-94 0 -162.5 20.333 -205.5 61s-64.5 115.667 -64.5 225zM745 -367h-157
l-142 191l-141 -191h-158l224 289h151z" />
    <glyph glyph-name="Wgrave" unicode="&#x1e80;" horiz-adv-x="1906" 
d="M1018 1567h-162l-248 288h209zM1671 1434h178l-381 -1434h-176l-338 1214l-340 -1214h-174l-383 1434h179l294 -1217l338 1217h172l336 -1221z" />
    <glyph glyph-name="wgrave" unicode="&#x1e81;" horiz-adv-x="1652" 
d="M885 1157h-162l-248 289h209zM1423 1024h176l-346 -1024h-188l-244 838l-252 -838h-188l-328 1024h176l248 -862l256 862h174l252 -866z" />
    <glyph glyph-name="Wacute" unicode="&#x1e82;" horiz-adv-x="1906" 
d="M1284 1855l-248 -288h-162l201 288h209zM1671 1434h178l-381 -1434h-176l-338 1214l-340 -1214h-174l-383 1434h179l294 -1217l338 1217h172l336 -1221z" />
    <glyph glyph-name="wacute" unicode="&#x1e83;" horiz-adv-x="1652" 
d="M1151 1446l-248 -289h-162l201 289h209zM1423 1024h176l-346 -1024h-188l-244 838l-252 -838h-188l-328 1024h176l248 -862l256 862h174l252 -866z" />
    <glyph glyph-name="Wdieresis" unicode="&#x1e84;" horiz-adv-x="1906" 
d="M860 1722v-174h-151v174h151zM1206 1722v-174h-153v174h153zM1671 1434h178l-381 -1434h-176l-338 1214l-340 -1214h-174l-383 1434h179l294 -1217l338 1217h172l336 -1221z" />
    <glyph glyph-name="wdieresis" unicode="&#x1e85;" horiz-adv-x="1652" 
d="M727 1313v-174h-152v174h152zM1073 1313v-174h-153v174h153zM1423 1024h176l-346 -1024h-188l-244 838l-252 -838h-188l-328 1024h176l248 -862l256 862h174l252 -866z" />
    <glyph glyph-name="uni1E92" unicode="&#x1e92;" horiz-adv-x="1150" 
d="M246 137h844v-137h-1033v137l830 1159h-776v138h958v-138zM520 -342v182h162v-182h-162z" />
    <glyph glyph-name="uni1E93" unicode="&#x1e93;" horiz-adv-x="950" 
d="M260 133h633v-133h-842v133l629 758h-594v133h795v-133zM395 -342v182h162v-182h-162z" />
    <glyph glyph-name="uni1E9E" unicode="&#x1e9e;" horiz-adv-x="1247" 
d="M758 827c157.333 -24.667 264.499 -71.9971 321.499 -141.997s85.5 -155.667 85.5 -257c0 -143.333 -47.333 -253.833 -142 -331.5s-231 -116.5 -409 -116.5c-60 0 -116 4 -168 12v139c38 -8 95.333 -12 172 -12c134 0 230.333 26.167 289 78.5s88 129.166 88 230.499
c0 95.333 -29.667 167 -89 215s-160.666 74 -303.999 78v129l289 328c-45.333 79.333 -134 118.666 -266 117.999h-291v-1296h-170v1434h463c118.667 0 215.5 -26.333 290.5 -79s118.833 -119.334 131.5 -200.001z" />
    <glyph glyph-name="uni1EA1" unicode="&#x1ea1;" horiz-adv-x="1046" 
d="M528 1044c144.667 0 247.501 -30 308.501 -90s91.5 -145.333 91.5 -256v-698h-158v147c-72.667 -112 -190 -167.667 -352 -167c-116 0 -203.333 28.667 -262 86s-88 134.333 -88 231c0 109.333 35.167 188.833 105.5 238.5s157.833 74.5 262.5 74.5h328v97
c0 74 -20.167 128 -60.5 162s-101.5 51 -183.5 51c-80.667 0 -142.834 -16.5 -186.501 -49.5s-65.5 -80.833 -65.5 -143.5h-153c0 112 37.833 192.833 113.5 242.5s175.5 74.5 299.5 74.5zM444.001 106c84.667 0 159.167 25.668 223.5 77.001s96.5 124 96.5 218v99h-295
c-70.667 0 -128 -16.833 -172 -50.5s-66 -83.834 -66 -150.501c0 -65.333 19.5 -113.833 58.5 -145.5s90.5 -47.5 154.5 -47.5zM393.001 -341.999v182h162v-182h-162z" />
    <glyph glyph-name="uni1EAC" unicode="&#x1eac;" horiz-adv-x="1361" 
d="M680 1757l-141 -190h-158l223 288h152l223 -288h-158zM1300 0h-184l-127 365h-616l-127 -365h-185l527 1434h186zM418 498h526l-262 762zM604 -342v182h162v-182h-162z" />
    <glyph glyph-name="uni1EAD" unicode="&#x1ead;" horiz-adv-x="1046" 
d="M532 1348l-141 -191h-158l224 289h151l223 -289h-157zM528 1044c144.667 0 247.501 -30 308.501 -90s91.5 -145.333 91.5 -256v-698h-158v147c-72.667 -112 -190 -167.667 -352 -167c-116 0 -203.333 28.667 -262 86s-88 134.333 -88 231
c0 109.333 35.167 188.833 105.5 238.5s157.833 74.5 262.5 74.5h328v97c0 74 -20.167 128 -60.5 162s-101.5 51 -183.5 51c-80.667 0 -142.834 -16.5 -186.501 -49.5s-65.5 -80.833 -65.5 -143.5h-153c0 112 37.833 192.833 113.5 242.5s175.5 74.5 299.5 74.5z
M444.001 106c84.667 0 159.167 25.668 223.5 77.001s96.5 124 96.5 218v99h-295c-70.667 0 -128 -16.833 -172 -50.5s-66 -83.834 -66 -150.501c0 -65.333 19.5 -113.833 58.5 -145.5s90.5 -47.5 154.5 -47.5zM393.001 -341.999v182h162v-182h-162z" />
    <glyph glyph-name="uni1EB8" unicode="&#x1eb8;" horiz-adv-x="1146" 
d="M334 139h741v-139h-911v1434h885v-140h-715v-477h688v-139h-688v-539zM543 -342v182h162v-182h-162z" />
    <glyph glyph-name="uni1EB9" unicode="&#x1eb9;" horiz-adv-x="1071" 
d="M244 461c5.33301 -116 32.834 -203.001 82.501 -261.001s127.834 -87 234.501 -87c82 0 145.167 17 189.5 51s68.5 81.667 72.5 143h162c-2.66699 -105.333 -39.834 -186.166 -111.501 -242.499s-175.834 -84.5 -312.501 -84.5c-168 0 -290.5 44.333 -367.5 133
s-115.5 221.667 -115.5 399c0 354.667 159.667 532 479 532c297.333 0 446.333 -178 447 -534c0 -5.33301 -0.5 -13.5 -1.5 -24.5s-1.5 -19.167 -1.5 -24.5h-757zM557.001 912.999c-102.667 0 -178.832 -27.5 -228.499 -82.5s-77.834 -141.5 -84.501 -259.5h596
c-6.66699 116 -33 202 -79 258s-114 84 -204 84zM475.003 -342.001v182h162v-182h-162z" />
    <glyph glyph-name="uni1EBC" unicode="&#x1ebc;" horiz-adv-x="1146" 
d="M479 1638c-28.667 0 -51.502 -7.16602 -68.502 -21.499s-25.5 -34.5 -25.5 -60.5h-100c0 64 16.333 114.167 49 150.5s77.667 54.5 135 54.5c34 0 69.333 -7.33301 106 -22l87 -35c31.333 -12 60 -18 86 -18c28.667 0 51.5 7.16699 68.5 21.5s25.5 34.166 25.5 59.499
h100c0 -62.667 -16.667 -112 -50 -148s-78.666 -54 -135.999 -54c-35.333 0 -69.666 6.66699 -102.999 20l-88 35c-30 12 -58.667 18 -86 18zM333.998 139.001h741v-139h-911v1434h885v-140h-715v-477h688v-139h-688v-539z" />
    <glyph glyph-name="uni1EBD" unicode="&#x1ebd;" horiz-adv-x="1071" 
d="M422 1229c-28.667 0 -51.5 -7.16699 -68.5 -21.5s-25.5 -34.5 -25.5 -60.5h-101c0 64 16.5 114.167 49.5 150.5s78.167 54.5 135.5 54.5c34 0 69.333 -7.66699 106 -23l86 -35c31.333 -12 60 -18 86 -18c28.667 0 51.5 7.16699 68.5 21.5s25.5 34.5 25.5 60.5h101
c0 -62.667 -16.833 -112.167 -50.5 -148.5s-79.167 -54.5 -136.5 -54.5c-35.333 0 -69.333 7 -102 21l-88 34c-30 12.667 -58.667 19 -86 19zM244 461c5.33301 -116 32.834 -203.001 82.501 -261.001s127.834 -87 234.501 -87c82 0 145.167 17 189.5 51
s68.5 81.667 72.5 143h162c-2.66699 -105.333 -39.834 -186.166 -111.501 -242.499s-175.834 -84.5 -312.501 -84.5c-168 0 -290.5 44.333 -367.5 133s-115.5 221.667 -115.5 399c0 354.667 159.667 532 479 532c297.333 0 446.333 -178 447 -534
c0 -5.33301 -0.5 -13.5 -1.5 -24.5s-1.5 -19.167 -1.5 -24.5h-757zM557.001 912.999c-102.667 0 -178.832 -27.5 -228.499 -82.5s-77.834 -141.5 -84.501 -259.5h596c-6.66699 116 -33 202 -79 258s-114 84 -204 84z" />
    <glyph glyph-name="uni1EC6" unicode="&#x1ec6;" horiz-adv-x="1146" 
d="M612 1757l-141 -190h-158l224 288h151l223 -288h-157zM334 139h741v-139h-911v1434h885v-140h-715v-477h688v-139h-688v-539zM543 -342v182h162v-182h-162z" />
    <glyph glyph-name="uni1EC7" unicode="&#x1ec7;" horiz-adv-x="1071" 
d="M555 1348l-141 -191h-158l223 289h152l223 -289h-158zM244 461c5.33301 -116 32.834 -203.001 82.501 -261.001s127.834 -87 234.501 -87c82 0 145.167 17 189.5 51s68.5 81.667 72.5 143h162c-2.66699 -105.333 -39.834 -186.166 -111.501 -242.499
s-175.834 -84.5 -312.501 -84.5c-168 0 -290.5 44.333 -367.5 133s-115.5 221.667 -115.5 399c0 354.667 159.667 532 479 532c297.333 0 446.333 -178 447 -534c0 -5.33301 -0.5 -13.5 -1.5 -24.5s-1.5 -19.167 -1.5 -24.5h-757zM557.001 912.999
c-102.667 0 -178.832 -27.5 -228.499 -82.5s-77.834 -141.5 -84.501 -259.5h596c-6.66699 116 -33 202 -79 258s-114 84 -204 84zM475.003 -342.001v182h162v-182h-162z" />
    <glyph glyph-name="uni1ECA" unicode="&#x1eca;" horiz-adv-x="497" 
d="M164 0v1434h170v-1434h-170zM168 -342v182h162v-182h-162z" />
    <glyph glyph-name="uni1ECB" unicode="&#x1ecb;" horiz-adv-x="434" 
d="M133 1139v209h168v-209h-168zM135 0v1024h164v-1024h-164zM135 -342v182h162v-182h-162z" />
    <glyph glyph-name="uni1ECC" unicode="&#x1ecc;" horiz-adv-x="1404" 
d="M702.5 -20c-394.333 0 -591.5 245.667 -591.5 737c0 246 47.333 430.333 142 553s244.5 184 449.5 184s354.833 -61.5 449.5 -184.5s142 -307.167 142 -552.5c0 -491.333 -197.167 -737 -591.5 -737zM702.5 121c151.667 0 259.834 47.5 324.501 142.5
s97 246.167 97 453.5s-32.333 359.166 -97 455.499s-172.834 144.5 -324.501 144.5s-259.834 -48.167 -324.501 -144.5s-97 -248.166 -97 -455.499s32.333 -358.5 97 -453.5s172.834 -142.5 324.501 -142.5zM621 -342v182h161v-182h-161z" />
    <glyph glyph-name="uni1ECD" unicode="&#x1ecd;" horiz-adv-x="1122" 
d="M561 -20c-168 0 -290.5 44.333 -367.5 133s-115.5 221.667 -115.5 399c0 178.667 38.5 312 115.5 400s199.5 132 367.5 132s290.5 -44 367.5 -132s115.5 -221.333 115.5 -400c0 -177.333 -38.5 -310.333 -115.5 -399s-199.5 -133 -367.5 -133zM561 113
c112 0 193.333 33 244 99s76 166 76 300c0 135.333 -25.333 235.666 -76 300.999s-132 98 -244 98s-193.167 -32.667 -243.5 -98s-75.5 -165.666 -75.5 -300.999c0 -134 25.167 -234 75.5 -300s131.5 -99 243.5 -99zM483 -342v182h162v-182h-162z" />
    <glyph glyph-name="uni1ED8" unicode="&#x1ed8;" horiz-adv-x="1404" 
d="M702 1757l-141 -190h-158l224 288h151l223 -288h-157zM702.5 1454c205 0 354.833 -61.5 449.5 -184.5s142 -307.167 142 -552.5c0 -491.333 -197.167 -737 -591.5 -737s-591.5 245.667 -591.5 737c0 246 47.333 430.333 142 553s244.5 184 449.5 184zM702.5 121
c151.667 0 259.834 47.5 324.501 142.5s97 246.167 97 453.5s-32.333 359.166 -97 455.499s-172.834 144.5 -324.501 144.5s-259.834 -48.167 -324.501 -144.5s-97 -248.166 -97 -455.499s32.333 -358.5 97 -453.5s172.834 -142.5 324.501 -142.5zM621 -342v182h161v-182
h-161z" />
    <glyph glyph-name="uni1ED9" unicode="&#x1ed9;" horiz-adv-x="1122" 
d="M565 1354l-141 -191h-158l223 289h152l223 -289h-157zM561 1044c168 0 290.5 -44 367.5 -132s115.5 -221.333 115.5 -400c0 -177.333 -38.5 -310.333 -115.5 -399s-199.5 -133 -367.5 -133s-290.5 44.333 -367.5 133s-115.5 221.667 -115.5 399
c0 178.667 38.5 312 115.5 400s199.5 132 367.5 132zM561 113c112 0 193.333 33 244 99s76 166 76 300c0 135.333 -25.333 235.666 -76 300.999s-132 98 -244 98s-193.167 -32.667 -243.5 -98s-75.5 -165.666 -75.5 -300.999c0 -134 25.167 -234 75.5 -300
s131.5 -99 243.5 -99zM483 -342v182h162v-182h-162z" />
    <glyph glyph-name="uni1EE4" unicode="&#x1ee4;" horiz-adv-x="1370" 
d="M690 -20c-195.333 0 -334.667 49.333 -418 148s-125 239.667 -125 423v883h170v-883c0 -157.333 32.167 -269 96.5 -335s156.5 -99 276.5 -99c134 0 229.333 37.5 286 112.5s85 182.167 85 321.5v883h170v-883c0 -206 -46.833 -352.667 -140.5 -440
s-227.167 -131 -400.5 -131zM607.999 -342v182h162v-182h-162z" />
    <glyph glyph-name="uni1EE5" unicode="&#x1ee5;" horiz-adv-x="1103" 
d="M811 1024l162 0.000976562v-1024h-156v141c-72.667 -108 -188.667 -161.667 -348 -161c-118.667 0 -207 31.667 -265 95s-87 151.666 -87 264.999v684h164v-664c0 -169.333 74.333 -254 223 -254c83.333 0 155.333 24 216 72s91 115.667 91 203v643zM504 -341.999v182
h162v-182h-162z" />
    <glyph glyph-name="Ygrave" unicode="&#x1ef2;" horiz-adv-x="1304" 
d="M713 1567h-162l-248 288h209zM1247 1434l-514 -848v-586h-170v584l-506 850h195l397 -707l406 707h192z" />
    <glyph glyph-name="ygrave" unicode="&#x1ef3;" horiz-adv-x="1036" 
d="M586 1157h-162l-248 289h209zM827 1024h177l-551 -1434h-156l160 410h-35l-389 1024h176l307 -868z" />
    <glyph glyph-name="endash" unicode="&#x2013;" horiz-adv-x="1181" 
d="M164 524v138h854v-138h-854z" />
    <glyph glyph-name="emdash" unicode="&#x2014;" horiz-adv-x="1816" 
d="M164 524v138h1489v-138h-1489z" />
    <glyph glyph-name="quoteleft" unicode="&#x2018;" horiz-adv-x="497" 
d="M379 1606l-92 -318h55v-246h-184v246l118 318h103z" />
    <glyph glyph-name="quoteright" unicode="&#x2019;" horiz-adv-x="497" 
d="M156 1585h184v-246l-119 -317h-102l92 317h-55v246z" />
    <glyph glyph-name="quotesinglbase" unicode="&#x201a;" horiz-adv-x="497" 
d="M156 246h184v-246l-119 -317h-102l92 317h-55v246z" />
    <glyph glyph-name="quotedblleft" unicode="&#x201c;" horiz-adv-x="886" 
d="M276 1606h103l-92 -318h55v-246h-184v246zM768 1606l-92 -318h55v-246h-184v246l119 318h102z" />
    <glyph glyph-name="quotedblright" unicode="&#x201d;" horiz-adv-x="886" 
d="M156 1339v246h184v-246l-119 -317h-102l92 317h-55zM545 1585h184v-246l-119 -317h-102l92 317h-55v246z" />
    <glyph glyph-name="quotedblbase" unicode="&#x201e;" horiz-adv-x="886" 
d="M156 0v246h184v-246l-119 -317h-102l92 317h-55zM545 246h184v-246l-119 -317h-102l92 317h-55v246z" />
    <glyph glyph-name="dagger" unicode="&#x2020;" horiz-adv-x="1140" 
d="M1026 1004v-125h-381v-1219h-147v1219h-383v125h383v464h147v-464h381z" />
    <glyph glyph-name="daggerdbl" unicode="&#x2021;" horiz-adv-x="1181" 
d="M1047 879h-381v-629h381v-125h-381v-465h-148v465h-383v125h383v629h-383v125h383v464h148v-464h381v-125z" />
    <glyph glyph-name="bullet" unicode="&#x2022;" horiz-adv-x="886" 
d="M444 352c-84.667 0 -148.168 23.332 -190.501 69.999s-63.5 108 -63.5 184c0 84.667 23.667 147.834 71 189.501s109 62.5 185 62.5c83.333 0 145.833 -23.167 187.5 -69.5s62.5 -108.5 62.5 -186.5c0 -83.333 -23.167 -145.833 -69.5 -187.5
s-107.166 -62.5 -182.499 -62.5z" />
    <glyph glyph-name="ellipsis" unicode="&#x2026;" horiz-adv-x="1843" 
d="M215 0v246h184v-246h-184zM829 0v246h185v-246h-185zM1444 0v246h184v-246h-184z" />
    <glyph glyph-name="perthousand" unicode="&#x2030;" horiz-adv-x="2502" 
d="M446 -35l764 1503h131l-761 -1503h-134zM434 643c-104 0 -176 30.9971 -216 92.9971s-60 164 -60 306c0 148.667 21.167 252.834 63.5 312.501s113.833 89.5 214.5 89.5c104 0 176.167 -31.167 216.5 -93.5s60.5 -165.166 60.5 -308.499
c0 -147.333 -21.5 -250.666 -64.5 -309.999s-114.5 -89 -214.5 -89zM434 755.997c58.667 0 99.334 20.5 122.001 61.5s34 116 34 225s-11.333 184.333 -34 226s-63.334 62.5 -122.001 62.5c-57.333 0 -97.166 -20.833 -119.499 -62.5s-33.5 -117.167 -33.5 -226.5
c0 -108 11.167 -182.667 33.5 -224s62.166 -62 119.499 -62zM1364 -12.0029c-104 0 -176.166 30.999 -216.499 92.999s-60.5 164 -60.5 306c0 148.667 21.167 252.667 63.5 312s114.166 89 215.499 89c104 0 176 -31 216 -93s60 -164.667 60 -308
c0 -147.333 -21.333 -250.666 -64 -309.999s-114 -89 -214 -89zM2066 -12.0039c-104 0 -176 30.999 -216 92.999s-60 164 -60 306c0 148.667 21.167 252.667 63.5 312s113.833 89 214.5 89c104 0 176.167 -31 216.5 -93s60.5 -164.667 60.5 -308
c0 -147.333 -21.5 -250.666 -64.5 -309.999s-114.5 -89 -214.5 -89zM1364 99.9951c58.667 0 99.334 20.5 122.001 61.5s34 116.167 34 225.5s-11.333 184.833 -34 226.5s-63.334 62.5 -122.001 62.5c-57.333 0 -97.333 -20.833 -120 -62.5s-34 -117.167 -34 -226.5
c0 -108 11.333 -182.833 34 -224.5s62.667 -62.5 120 -62.5zM2066 99.9951c58.667 0 99.335 20.5 122.001 61.5c22.667 41 34 116.167 34 225.5s-11.333 184.833 -34 226.5s-63.334 62.5 -122.001 62.5c-57.333 0 -97.166 -20.833 -119.499 -62.5
s-33.5 -117.167 -33.5 -226.5c0 -108 11.167 -182.833 33.5 -224.5s62.166 -62.5 119.499 -62.5z" />
    <glyph glyph-name="guilsinglleft" unicode="&#x2039;" horiz-adv-x="696" 
d="M590 973v-148l-410 -313l410 -313v-148l-504 387v148z" />
    <glyph glyph-name="guilsinglright" unicode="&#x203a;" horiz-adv-x="696" 
d="M106 973l504 -387v-148l-504 -387v148l410 313l-410 313v148z" />
    <glyph glyph-name="fraction" unicode="&#x2044;" horiz-adv-x="331" 
d="M-328 -35l848 1503h137l-850 -1503h-135z" />
    <glyph glyph-name="Euro" unicode="&#x20ac;" horiz-adv-x="1605" 
d="M891 121c116 0 206.501 25.167 271.501 75.5s99.5 125.5 103.5 225.5h164c-4 -140.667 -53.833 -249.5 -149.5 -326.5s-225.5 -115.5 -389.5 -115.5c-332 0 -523.333 175.333 -574 526h-159v112h147c-1.33301 22 -2 55.667 -2 101c0 36.667 0.666992 64 2 82h-147v112
h157c23.333 178.667 82.5 313.5 177.5 404.5s230.5 136.5 406.5 136.5c168 0 298.5 -38.167 391.5 -114.5s139.5 -186.833 139.5 -331.5h-164c0 206 -121.667 309 -365 309c-126.667 0 -223.167 -33.167 -289.5 -99.5s-108.5 -167.833 -126.5 -304.5h553v-112h-563
c-1.33301 -18 -2 -46.667 -2 -86c0 -44 0.666992 -76.333 2 -97h563v-112h-553c19.333 -132.667 61.166 -230 125.499 -292s157.833 -93 280.5 -93z" />
    <glyph glyph-name="trademark" unicode="&#x2122;" horiz-adv-x="1695" 
d="M666 1434v-72h-228v-653h-86v653h-229v72h543zM1450 1434v-725h-84v594l-215 -594h-88l-217 600v-600h-84v725h121l225 -635l223 635h119z" />
    <glyph glyph-name="onethird" unicode="&#x2153;" horiz-adv-x="1562" 
d="M1042 1468h138l-850 -1503h-135zM250 598v721l-189 -127v96l181 146h127v-836h-119zM1382 442c79.333 -30 119.001 -101 119.001 -213c0 -160 -97.667 -239.667 -293 -239c-113.333 0 -190.5 20.167 -231.5 60.5s-61.5 95.166 -61.5 164.499h111
c0 -48 14 -82.167 42 -102.5s74.667 -30.5 140 -30.5c66.667 0 113.834 13.333 141.501 40s41.5 66.667 41.5 120c0 60 -13.333 100.5 -40 121.5s-74.334 31.5 -143.001 31.5h-88v92h88c64 0 107.667 9.66699 131 29s35 54.333 35 105c0 90 -55.333 135 -166 135
c-60 0 -102.333 -9.66699 -127 -29s-37.667 -50.666 -39 -93.999h-116c4 65.333 25.5 116.5 64.5 153.5s111.5 55.5 217.5 55.5c187.333 0 281 -71.667 281 -215c-0.666992 -96 -36.334 -157.667 -107.001 -185z" />
    <glyph glyph-name="twothirds" unicode="&#x2154;" horiz-adv-x="1730" 
d="M1235 1468h137l-850 -1503h-135zM627 696l0.000976562 -97.999h-566v201c0 68 17.833 120.5 53.5 157.5s87.5 62.833 155.5 77.5l109 27c49.333 13.333 83.5 31 102.5 53s28.5 52 28.5 90c0 53.333 -12.333 91.333 -37 114s-64.334 34 -119.001 34
c-56 0 -96.167 -12.333 -120.5 -37s-36.5 -65 -36.5 -121h-119c0 90 24.167 153.5 72.5 190.5s116.833 55.5 205.5 55.5c181.333 0 272.333 -80 273 -240c0 -122.667 -71.667 -199.667 -215 -231l-105 -27c-86 -24.667 -129 -74.334 -129 -149.001v-97h447zM1550 442.001
c79.333 -30 119.001 -101 119.001 -213c0 -160 -97.667 -239.667 -293 -239c-113.333 0 -190.5 20.167 -231.5 60.5s-61.5 95.166 -61.5 164.499h111c0 -48 14 -82.167 42 -102.5s74.667 -30.5 140 -30.5c66.667 0 113.834 13.333 141.501 40s41.5 66.667 41.5 120
c0 60 -13.333 100.5 -40 121.5s-74.334 31.5 -143.001 31.5h-88v92h88c64 0 107.667 9.66699 131 29s35 54.333 35 105c0 90 -55.333 135 -166 135c-60 0 -102.333 -9.66699 -127 -29s-37.667 -50.666 -39 -93.999h-116c4 65.333 25.5 116.5 64.5 153.5
s111.5 55.5 217.5 55.5c187.333 0 281 -71.667 281 -215c-0.666992 -96 -36.334 -157.667 -107.001 -185z" />
    <glyph glyph-name="oneeighth" unicode="&#x215b;" horiz-adv-x="1570" 
d="M1042 1468h138l-850 -1503h-135zM250 598v721l-189 -127v96l181 146h127v-836h-119zM1380 442c86 -38 129 -109.669 129 -215.002c0 -75.333 -21.833 -134 -65.5 -176s-120.834 -63 -231.501 -63c-198 0 -297 79.667 -297 239c0 106.667 41.667 178.334 125 215.001
c-75.333 32.667 -112.666 94.334 -111.999 185.001c0 70.667 24.833 124.167 74.5 160.5s119.5 54.5 209.5 54.5c191.333 0 287 -71.667 287 -215c0 -89.333 -39.667 -151 -119 -185zM1214 757.998c-117.333 0 -176 -45.666 -176 -136.999
c0 -92.667 58.667 -139.334 176 -140.001c116 0 174.333 46.667 175 140c-0.666992 91.333 -59 137 -175 137zM1214.5 75.999c127 0 190.5 53.999 190.5 161.999c0 106.667 -63.5 159.834 -190.5 159.501s-190.5 -53.5 -190.5 -159.5c0 -108 63.5 -162 190.5 -162z" />
    <glyph glyph-name="threeeighths" unicode="&#x215c;" horiz-adv-x="1757" 
d="M1229 1468h137l-850 -1503h-135zM647 827c0 -160 -97.667 -239.667 -293 -239c-113.333 0 -190.5 20.167 -231.5 60.5s-61.5 95.166 -61.5 164.499h111c0 -48 14 -82.167 42 -102.5s74.667 -30.5 140 -30.5c66.667 0 113.834 13.333 141.501 40s41.5 66.667 41.5 120
c0 60 -13.333 100.5 -40 121.5s-74.334 31.5 -143.001 31.5h-88v92h88c64 0 107.667 9.66699 131 29s35 54.333 35 105c0 90 -55.333 135 -166 135c-60 0 -102.333 -9.66699 -127 -29s-37.667 -50.666 -39 -93.999h-116c4 65.333 25.5 116.5 64.5 153.5
s111.5 55.5 217.5 55.5c187.333 0 281 -71.667 281 -215c0 -95.333 -35.667 -157 -107 -185c79.333 -30 119 -101 119 -213zM1567 442c86 -38 129.001 -109.669 129.001 -215.002c0 -75.333 -21.833 -134 -65.5 -176s-120.834 -63 -231.501 -63c-198 0 -297 79.667 -297 239
c0 106.667 41.667 178.334 125 215.001c-75.333 32.667 -113 94.334 -113 185.001c0 70.667 25 124.167 75 160.5s120 54.5 210 54.5c191.333 0 287 -71.667 287 -215c0 -89.333 -39.667 -151 -119 -185zM1401 757.998c-117.333 0 -176 -45.666 -176 -136.999
c0 -92.667 58.667 -139.334 176 -140.001c116 0 174 46.667 174 140c0 91.333 -58 137 -174 137zM1400.5 75.999c127 0 190.5 53.999 190.5 161.999c0 106.667 -63.5 159.834 -190.5 159.501s-190.5 -53.5 -190.5 -159.5c0 -108 63.5 -162 190.5 -162z" />
    <glyph glyph-name="fiveeighths" unicode="&#x215d;" horiz-adv-x="1757" 
d="M1229 1468h137l-850 -1503h-135zM647 877c0 -110.667 -24.165 -186.833 -72.498 -228.5s-121.833 -62.5 -220.5 -62.5c-110.667 0 -187.167 18.667 -229.5 56s-63.5 93.666 -63.5 168.999h109c0 -49.333 14 -84.166 42 -104.499s74.667 -30.5 140 -30.5
c69.333 0 118.166 14.667 146.499 44s42.5 78.666 42.5 147.999c0 70.667 -14.333 120.834 -43 150.501s-75.334 44.5 -140.001 44.5c-60 0 -103 -9.5 -129 -28.5s-39 -49.167 -39 -90.5h-110v490h524v-97h-414v-245c42 38 107.667 57 197 57
c96.667 0 164.167 -22.833 202.5 -68.5s57.5 -113.5 57.5 -203.5zM1567 442.001c86 -38 129.001 -109.669 129.001 -215.002c0 -75.333 -21.833 -134 -65.5 -176s-120.834 -63 -231.501 -63c-198 0 -297 79.667 -297 239c0 106.667 41.667 178.334 125 215.001
c-75.333 32.667 -113 94.334 -113 185.001c0 70.667 25 124.167 75 160.5s120 54.5 210 54.5c191.333 0 287 -71.667 287 -215c0 -89.333 -39.667 -151 -119 -185zM1401 757.999c-117.333 0 -176 -45.666 -176 -136.999c0 -92.667 58.667 -139.334 176 -140.001
c116 0 174 46.667 174 140c0 91.333 -58 137 -174 137zM1400.5 76c127 0 190.5 53.999 190.5 161.999c0 106.667 -63.5 159.834 -190.5 159.501s-190.5 -53.5 -190.5 -159.5c0 -108 63.5 -162 190.5 -162z" />
    <glyph glyph-name="seveneighths" unicode="&#x215e;" horiz-adv-x="1609" 
d="M1081 1468h138l-850 -1503h-136zM268 600h-118l317 737h-406v97h521v-97zM1419 442c86 -38 129 -109.669 129 -215.002c0 -75.333 -21.833 -134 -65.5 -176s-120.834 -63 -231.501 -63c-198 0 -297 79.667 -297 239c0 106.667 41.667 178.334 125 215.001
c-75.333 32.667 -112.666 94.334 -111.999 185.001c0 70.667 24.833 124.167 74.5 160.5s119.5 54.5 209.5 54.5c191.333 0 287 -71.667 287 -215c0 -89.333 -39.667 -151 -119 -185zM1253 757.998c-117.333 0 -176 -45.666 -176 -136.999
c0 -92.667 58.667 -139.334 176 -140.001c116 0 174 46.667 174 140c0 91.333 -58 137 -174 137zM1253.5 75.999c127 0 190.5 53.999 190.5 161.999c0 106.667 -63.5 159.834 -190.5 159.501s-190.5 -53.5 -190.5 -159.5c0 -108 63.5 -162 190.5 -162z" />
    <glyph glyph-name="minus" unicode="&#x2212;" 
d="M113 451v147h1005v-147h-1005z" />
    <glyph glyph-name="approxequal" unicode="&#x2248;" 
d="M117 616c0 83.333 21.5 147.667 64.5 193s102.5 68 178.5 68c49.333 0 104.666 -9.66699 165.999 -29l232 -74c40.667 -13.333 80.334 -20 119.001 -20c46.667 0 82.5 11.167 107.5 33.5s37.5 53.5 37.5 93.5h94c0 -80.667 -20.833 -143.167 -62.5 -187.5
s-99.834 -66.5 -174.501 -66.5c-45.333 0 -94 8 -146 24l-229 74c-57.333 18 -104.666 27 -141.999 27c-48 0 -84.833 -11.667 -110.5 -35s-38.5 -57 -38.5 -101h-96zM117 223.001c0 83.333 21.5 147.5 64.5 192.5s102.5 67.5 178.5 67.5
c49.333 0 104.666 -9.33301 165.999 -28l232 -74c40.667 -13.333 80.334 -20.333 119.001 -21c46.667 0 82.5 11.333 107.5 34s37.5 53.667 37.5 93h94c0 -80.667 -20.833 -143.167 -62.5 -187.5s-99.834 -66.5 -174.501 -66.5c-45.333 0 -94 8.33301 -146 25l-229 74
c-57.333 18 -104.666 26.667 -141.999 26c-48 0 -84.833 -11.5 -110.5 -34.5s-38.5 -56.5 -38.5 -100.5h-96z" />
    <glyph glyph-name="notequal" unicode="&#x2260;" 
d="M1118 657h-368l-127 -278h495v-148h-563l-135 -294h-146l136 294h-297v148h364l127 278h-491v148h559l139 307h145l-139 -307h301v-148z" />
    <glyph glyph-name="lessequal" unicode="&#x2264;" 
d="M1067 408v-146l-907 344v150l907 344v-148l-743 -268zM158 129h913v-129h-913v129z" />
    <glyph glyph-name="greaterequal" unicode="&#x2265;" 
d="M1067 606l-907 -344v146l743 276l-743 268v148l907 -344v-150zM158 129h913v-129h-913v129z" />
    <glyph glyph-name="uniFB01" unicode="&#xfb01;" horiz-adv-x="1146" 
d="M1012 1024v-1024h-164v905h-449v-905h-163v905h-173v119h173v131c0 109.333 25.167 186.5 75.5 231.5s123.166 67.5 218.499 67.5c40.667 0 80.334 -2.66699 119.001 -8v-129c-31.333 5.33301 -61.333 8 -90 8c-57.333 0 -98.333 -13.667 -123 -41
s-37 -69.666 -37 -126.999v-133h613zM846 1348h168v-209h-168v209z" />
    <glyph glyph-name="uniFB02" unicode="&#xfb02;" horiz-adv-x="1153" 
d="M236 1155c0 109.333 25.167 186.499 75.5 231.499s123.166 67.5 218.499 67.5c40.667 0 80.334 -2.66699 119.001 -8v-129c-31.333 5.33301 -61.333 8 -90 8c-57.333 0 -98.333 -13.667 -123 -41s-37 -69.666 -37 -126.999v-133h222v-119h-222v-905h-163v905h-173v119
h173v131zM848 1434h164v-1434h-164v1434z" />
    <glyph glyph-name="glyph1" horiz-adv-x="0" 
 />
    <glyph glyph-name="glyph2" horiz-adv-x="681" 
 />
    <glyph glyph-name="Iacute_J.locl" horiz-adv-x="1570" 
d="M182 1567l201 288h209l-248 -288h-162zM1257 1567l201 288h209l-248 -288h-162zM164 0v1434h170v-1434h-170zM993 -20c-165.333 0 -278.999 32.334 -340.999 97.001s-93 159 -93 283h170c0 -87.333 20.5 -149.333 61.5 -186s107.167 -55 198.5 -55
c95.333 0 162.166 22.167 200.499 66.5s57.5 125.166 57.5 242.499v1006h170v-1006c0 -172 -35.5 -289.667 -106.5 -353s-176.833 -95 -317.5 -95z" />
    <glyph glyph-name="R.aalt" horiz-adv-x="1265" 
d="M1200 0h-183.999l-332 639c-12 -1.33301 -29.667 -2 -53 -2h-297v-637h-170v1434h467c143.333 0 257.666 -31.833 342.999 -95.5s128 -165.167 128 -304.5c0 -194 -85.333 -316.667 -256 -368zM627.001 774c94 0 169 21.167 225 63.5s84 108.5 84 198.5
c0 88.667 -28 154.167 -84 196.5s-131 63.5 -225 63.5h-293v-522h293z" />
    <glyph glyph-name="Racute.aalt" horiz-adv-x="1265" 
d="M926 1855l-248 -288h-162l201 288h209zM1200 0h-183.999l-332 639c-12 -1.33301 -29.667 -2 -53 -2h-297v-637h-170v1434h467c143.333 0 257.666 -31.833 342.999 -95.5s128 -165.167 128 -304.5c0 -194 -85.333 -316.667 -256 -368zM627.001 774
c94 0 169 21.167 225 63.5s84 108.5 84 198.5c0 88.667 -28 154.167 -84 196.5s-131 63.5 -225 63.5h-293v-522h293z" />
    <glyph glyph-name="Rcaron.aalt" horiz-adv-x="1265" 
d="M520 1569l-223 289h158l141 -191l141 191h158l-223 -289h-152zM1200 0h-183.999l-332 639c-12 -1.33301 -29.667 -2 -53 -2h-297v-637h-170v1434h467c143.333 0 257.666 -31.833 342.999 -95.5s128 -165.167 128 -304.5c0 -194 -85.333 -316.667 -256 -368zM627.001 774
c94 0 169 21.167 225 63.5s84 108.5 84 198.5c0 88.667 -28 154.167 -84 196.5s-131 63.5 -225 63.5h-293v-522h293z" />
    <glyph glyph-name="uni0156.aalt" horiz-adv-x="1265" 
d="M846 666l354.001 -666h-184l-332 639c-12 -1.33301 -29.667 -2 -53 -2h-297v-637h-170v1434h467c143.333 0 257.666 -31.833 342.999 -95.5s128 -165.167 128 -304.5c0 -193.333 -85.333 -316 -256 -368zM627.001 774c94 0 169 21.167 225 63.5s84 108.5 84 198.5
c0 88.667 -28 154.167 -84 196.5s-131 63.5 -225 63.5h-293v-522h293zM588.001 -236v158h139v-158l-74 -188h-78l54 188h-41z" />
    <glyph glyph-name="i.locl" horiz-adv-x="434" 
d="M139 1135v182h162v-182h-162zM135 0v1024h164v-1024h-164z" />
    <glyph glyph-name="iacute_j.locl" horiz-adv-x="882" 
d="M139 1157l201 289h209l-248 -289h-162zM586 1157l200 289h209l-247 -289h-162zM135 0v1024h164v-1024h-164zM342 -410v131.001c80.667 0 142 18.667 184 56c38 34 57.333 88.667 58 164v1083h164v-1083c0 -132.667 -43.333 -228.334 -130 -287.001
c-61.333 -42.667 -153.333 -64 -276 -64z" />
    <glyph glyph-name="a.ss06" horiz-adv-x="1130" 
d="M842 1024h157v-1024h-157v150c-75.333 -112 -194.333 -168 -357 -168c-272 0 -407.667 172.667 -407 518c0 184 38.167 320.333 114.5 409s184.833 133 325.5 133c152.667 0 260.667 -48.333 324 -145v127zM522 113c91.333 0 166.501 25.833 225.501 77.5
s88.5 121.167 88.5 208.5v230c0 86 -29.833 155.167 -89.5 207.5s-133.834 78.5 -222.501 78.5c-188.667 0 -282.667 -135.667 -282 -407c0 -135.333 23.167 -235 69.5 -299s116.5 -96 210.5 -96z" />
    <glyph glyph-name="aacute.aalt" horiz-adv-x="1130" 
d="M870 1446l-247 -289h-162l201 289h208zM842 1024h157v-1024h-157v150c-75.333 -112 -194.333 -168 -357 -168c-272 0 -407.667 172.667 -407 518c0 184 38.167 320.333 114.5 409s184.833 133 325.5 133c152.667 0 260.667 -48.333 324 -145v127zM522 113
c91.333 0 166.501 25.833 225.501 77.5s88.5 121.167 88.5 208.5v230c0 86 -29.833 155.167 -89.5 207.5s-133.834 78.5 -222.501 78.5c-188.667 0 -282.667 -135.667 -282 -407c0 -135.333 23.167 -235 69.5 -299s116.5 -96 210.5 -96z" />
    <glyph glyph-name="abreve.aalt" horiz-adv-x="1130" 
d="M539 1143c-112 0 -190.165 22.5 -234.498 67.5s-66.5 111.167 -66.5 198.5h118c0 -57.333 14.667 -99.333 44 -126s75.666 -40 138.999 -40c122.667 0 184 55.333 184 166h119c0 -100 -26.333 -169.333 -79 -208s-127.334 -58 -224.001 -58zM842.002 1024h157v-1024h-157
v150c-75.333 -112 -194.333 -168 -357 -168c-272 0 -407.667 172.667 -407 518c0 184 38.167 320.333 114.5 409s184.833 133 325.5 133c152.667 0 260.667 -48.333 324 -145v127zM522.002 113c91.333 0 166.501 25.833 225.501 77.5s88.5 121.167 88.5 208.5v230
c0 86 -29.833 155.167 -89.5 207.5s-133.834 78.5 -222.501 78.5c-188.667 0 -282.667 -135.667 -282 -407c0 -135.333 23.167 -235 69.5 -299s116.5 -96 210.5 -96z" />
    <glyph glyph-name="uni01CE.aalt" horiz-adv-x="1130" 
d="M465 1159l-223 289h157l142 -191l141 191h158l-224 -289h-151zM842 1024h157v-1024h-157v150c-75.333 -112 -194.333 -168 -357 -168c-272 0 -407.667 172.667 -407 518c0 184 38.167 320.333 114.5 409s184.833 133 325.5 133c152.667 0 260.667 -48.333 324 -145v127z
M522 113c91.333 0 166.501 25.833 225.501 77.5s88.5 121.167 88.5 208.5v230c0 86 -29.833 155.167 -89.5 207.5s-133.834 78.5 -222.501 78.5c-188.667 0 -282.667 -135.667 -282 -407c0 -135.333 23.167 -235 69.5 -299s116.5 -96 210.5 -96z" />
    <glyph glyph-name="acircumflex.aalt" horiz-adv-x="1130" 
d="M541 1348l-142 -191h-157l223 289h151l224 -289h-158zM842 1024h157v-1024h-157v150c-75.333 -112 -194.333 -168 -357 -168c-272 0 -407.667 172.667 -407 518c0 184 38.167 320.333 114.5 409s184.833 133 325.5 133c152.667 0 260.667 -48.333 324 -145v127zM522 113
c91.333 0 166.501 25.833 225.501 77.5s88.5 121.167 88.5 208.5v230c0 86 -29.833 155.167 -89.5 207.5s-133.834 78.5 -222.501 78.5c-188.667 0 -282.667 -135.667 -282 -407c0 -135.333 23.167 -235 69.5 -299s116.5 -96 210.5 -96z" />
    <glyph glyph-name="uni1EAD.aalt" horiz-adv-x="1130" 
d="M541 1348l-142 -191h-157l223 289h151l224 -289h-158zM842 1024h157v-1024h-157v150c-75.333 -112 -194.333 -168 -357 -168c-272 0 -407.667 172.667 -407 518c0 184 38.167 320.333 114.5 409s184.833 133 325.5 133c152.667 0 260.667 -48.333 324 -145v127zM522 113
c91.333 0 166.501 25.833 225.501 77.5s88.5 121.167 88.5 208.5v230c0 86 -29.833 155.167 -89.5 207.5s-133.834 78.5 -222.501 78.5c-188.667 0 -282.667 -135.667 -282 -407c0 -135.333 23.167 -235 69.5 -299s116.5 -96 210.5 -96zM500.001 -342v182h162v-182h-162z
" />
    <glyph glyph-name="adieresis.aalt" horiz-adv-x="1130" 
d="M446 1313v-174h-151v174h151zM793 1313v-174h-154v174h154zM842 1024h157v-1024h-157v150c-75.333 -112 -194.333 -168 -357 -168c-272 0 -407.667 172.667 -407 518c0 184 38.167 320.333 114.5 409s184.833 133 325.5 133c152.667 0 260.667 -48.333 324 -145v127z
M522 113c91.333 0 166.501 25.833 225.501 77.5s88.5 121.167 88.5 208.5v230c0 86 -29.833 155.167 -89.5 207.5s-133.834 78.5 -222.501 78.5c-188.667 0 -282.667 -135.667 -282 -407c0 -135.333 23.167 -235 69.5 -299s116.5 -96 210.5 -96z" />
    <glyph glyph-name="uni01DF.aalt" horiz-adv-x="1130" 
d="M784 1544v-123h-481v123h481zM446 1313v-174h-151v174h151zM639 1139v174h154v-174h-154zM842 1024h157v-1024h-157v150c-75.333 -112 -194.333 -168 -357 -168c-272 0 -407.667 172.667 -407 518c0 184 38.167 320.333 114.5 409s184.833 133 325.5 133
c152.667 0 260.667 -48.333 324 -145v127zM522 113c91.333 0 166.501 25.833 225.501 77.5s88.5 121.167 88.5 208.5v230c0 86 -29.833 155.167 -89.5 207.5s-133.834 78.5 -222.501 78.5c-188.667 0 -282.667 -135.667 -282 -407c0 -135.333 23.167 -235 69.5 -299
s116.5 -96 210.5 -96z" />
    <glyph glyph-name="uni1EA1.aalt" horiz-adv-x="1130" 
d="M842 1024h157v-1024h-157v150c-75.333 -112 -194.333 -168 -357 -168c-272 0 -407.667 172.667 -407 518c0 184 38.167 320.333 114.5 409s184.833 133 325.5 133c152.667 0 260.667 -48.333 324 -145v127zM522 113c91.333 0 166.501 25.833 225.501 77.5
s88.5 121.167 88.5 208.5v230c0 86 -29.833 155.167 -89.5 207.5s-133.834 78.5 -222.501 78.5c-188.667 0 -282.667 -135.667 -282 -407c0 -135.333 23.167 -235 69.5 -299s116.5 -96 210.5 -96zM500.001 -342v182h162v-182h-162z" />
    <glyph glyph-name="agrave.aalt" horiz-adv-x="1130" 
d="M604 1157h-162l-247 289h208zM842 1024h157v-1024h-157v150c-75.333 -112 -194.333 -168 -357 -168c-272 0 -407.667 172.667 -407 518c0 184 38.167 320.333 114.5 409s184.833 133 325.5 133c152.667 0 260.667 -48.333 324 -145v127zM522 113
c91.333 0 166.501 25.833 225.501 77.5s88.5 121.167 88.5 208.5v230c0 86 -29.833 155.167 -89.5 207.5s-133.834 78.5 -222.501 78.5c-188.667 0 -282.667 -135.667 -282 -407c0 -135.333 23.167 -235 69.5 -299s116.5 -96 210.5 -96z" />
    <glyph glyph-name="amacron.aalt" horiz-adv-x="1130" 
d="M780 1284v-123h-481v123h481zM842 1024h157v-1024h-157v150c-75.333 -112 -194.333 -168 -357 -168c-272 0 -407.667 172.667 -407 518c0 184 38.167 320.333 114.5 409s184.833 133 325.5 133c152.667 0 260.667 -48.333 324 -145v127zM522 113
c91.333 0 166.501 25.833 225.501 77.5s88.5 121.167 88.5 208.5v230c0 86 -29.833 155.167 -89.5 207.5s-133.834 78.5 -222.501 78.5c-188.667 0 -282.667 -135.667 -282 -407c0 -135.333 23.167 -235 69.5 -299s116.5 -96 210.5 -96z" />
    <glyph glyph-name="aogonek.aalt" horiz-adv-x="1130" 
d="M975 -287c32.667 0 69.333 6.33203 110 18.999v-105c-54.667 -19.333 -105 -28.666 -151 -27.999c-70.667 0 -126.5 16.333 -167.5 49s-61.5 76.334 -61.5 131.001c0 86 58.667 159.667 176 221h-39v150c-75.333 -112 -194.333 -168 -357 -168
c-272 0 -407.667 172.667 -407 518c0 184 38.167 320.333 114.5 409s184.833 133 325.5 133c152.667 0 260.667 -48.333 324 -145v127h157v-1024h-8c-44 -22 -80.833 -49.333 -110.5 -82s-44.5 -67.334 -44.5 -104.001c0 -32.667 12.667 -57.667 38 -75s59 -26 101 -26z
M521.999 112.999c91.333 0 166.501 25.833 225.501 77.5s88.5 121.167 88.5 208.5v230c0 86 -29.833 155.167 -89.5 207.5s-133.834 78.5 -222.501 78.5c-188.667 0 -282.667 -135.667 -282 -407c0 -135.333 23.167 -235 69.5 -299s116.5 -96 210.5 -96z" />
    <glyph glyph-name="aring.aalt" horiz-adv-x="1130" 
d="M540.5 1104c-132.333 0 -198.5 66.332 -198.5 198.999c0 130 66.167 194.833 198.5 194.5s198.5 -65.166 198.5 -194.499c0 -132.667 -66.167 -199 -198.5 -199zM540.5 1409c-69.667 0 -104.5 -35.333 -104.5 -106c0 -74 34.833 -111 104.5 -111s104.5 37 104.5 111
c0 70.667 -34.833 106 -104.5 106zM842 1024h157v-1024h-157v150c-75.333 -112 -194.333 -168 -357 -168c-272 0 -407.667 172.667 -407 518c0 184 38.167 320.333 114.5 409s184.833 133 325.5 133c152.667 0 260.667 -48.333 324 -145v127zM522 112.999
c91.333 0 166.501 25.833 225.501 77.5s88.5 121.167 88.5 208.5v230c0 86 -29.833 155.167 -89.5 207.5s-133.834 78.5 -222.501 78.5c-188.667 0 -282.667 -135.667 -282 -407c0 -135.333 23.167 -235 69.5 -299s116.5 -96 210.5 -96z" />
    <glyph glyph-name="atilde.aalt" horiz-adv-x="1130" 
d="M408 1229c-28.667 0 -51.668 -7.16699 -69.001 -21.5s-26 -34.5 -26 -60.5h-100c0 64 16.333 114.167 49 150.5s77.667 54.5 135 54.5c34 0 69.667 -7.66699 107 -23l86 -35c31.333 -12 60 -18 86 -18c28.667 0 51.5 7.16699 68.5 21.5s25.5 34.5 25.5 60.5h100
c0 -62.667 -16.667 -112.167 -50 -148.5s-78.666 -54.5 -135.999 -54.5c-35.333 0 -69.333 7 -102 21l-88 34c-30 12.667 -58.667 19 -86 19zM841.999 1024h157v-1024h-157v150c-75.333 -112 -194.333 -168 -357 -168c-272 0 -407.667 172.667 -407 518
c0 184 38.167 320.333 114.5 409s184.833 133 325.5 133c152.667 0 260.667 -48.333 324 -145v127zM521.999 113c91.333 0 166.501 25.833 225.501 77.5s88.5 121.167 88.5 208.5v230c0 86 -29.833 155.167 -89.5 207.5s-133.834 78.5 -222.501 78.5
c-188.667 0 -282.667 -135.667 -282 -407c0 -135.333 23.167 -235 69.5 -299s116.5 -96 210.5 -96z" />
    <glyph glyph-name="e.aalt" horiz-adv-x="1056" 
d="M547 111c87.333 0 153.168 16.334 197.501 49.001s66.5 77.667 66.5 135h164c0 -110.667 -40 -190.834 -120 -240.501s-184 -74.5 -312 -74.5c-310 0 -465 175.333 -465 526c0 359.333 163.667 538.666 491 537.999c143.333 0 249.166 -28.667 317.499 -86
s102.5 -135.666 102.5 -234.999c0 -110.667 -53.833 -190.167 -161.5 -238.5s-300.834 -73.833 -579.501 -76.5c20.667 -198 120.334 -297 299.001 -297zM569.002 913.001c-101.333 0 -180.167 -29.666 -236.5 -88.999s-85.833 -160.666 -88.5 -303.999
c225.333 1.33301 378.5 16.666 459.5 45.999s121.5 81.666 121.5 156.999c0 68 -24.5 116.667 -73.5 146s-109.833 44 -182.5 44z" />
    <glyph glyph-name="eacute.aalt" horiz-adv-x="1056" 
d="M872 1446l-247 -289h-162l201 289h208zM547 111c87.333 0 153.168 16.334 197.501 49.001s66.5 77.667 66.5 135h164c0 -110.667 -40 -190.834 -120 -240.501s-184 -74.5 -312 -74.5c-310 0 -465 175.333 -465 526c0 359.333 163.667 538.666 491 537.999
c143.333 0 249.166 -28.667 317.499 -86s102.5 -135.666 102.5 -234.999c0 -110.667 -53.833 -190.167 -161.5 -238.5s-300.834 -73.833 -579.501 -76.5c20.667 -198 120.334 -297 299.001 -297zM569.002 913.001c-101.333 0 -180.167 -29.666 -236.5 -88.999
s-85.833 -160.666 -88.5 -303.999c225.333 1.33301 378.5 16.666 459.5 45.999s121.5 81.666 121.5 156.999c0 68 -24.5 116.667 -73.5 146s-109.833 44 -182.5 44z" />
    <glyph glyph-name="ecaron.aalt" horiz-adv-x="1056" 
d="M467 1159l-223 289h157l142 -191l141 191h158l-224 -289h-151zM547 111c87.333 0 153.168 16.334 197.501 49.001s66.5 77.667 66.5 135h164c0 -110.667 -40 -190.834 -120 -240.501s-184 -74.5 -312 -74.5c-310 0 -465 175.333 -465 526
c0 359.333 163.667 538.666 491 537.999c143.333 0 249.166 -28.667 317.499 -86s102.5 -135.666 102.5 -234.999c0 -110.667 -53.833 -190.167 -161.5 -238.5s-300.834 -73.833 -579.501 -76.5c20.667 -198 120.334 -297 299.001 -297zM569.002 913.001
c-101.333 0 -180.167 -29.666 -236.5 -88.999s-85.833 -160.666 -88.5 -303.999c225.333 1.33301 378.5 16.666 459.5 45.999s121.5 81.666 121.5 156.999c0 68 -24.5 116.667 -73.5 146s-109.833 44 -182.5 44z" />
    <glyph glyph-name="uni0229.aalt" horiz-adv-x="1056" 
d="M547 111c87.333 0 153.168 16.332 197.501 48.999s66.5 77.667 66.5 135h164c0 -191.333 -123.667 -295.666 -371 -312.999l-20 -52c122.667 0 184 -49.667 184 -149c0 -61.333 -21.167 -106.666 -63.5 -135.999s-98.833 -44 -169.5 -44c-134 0 -201 55.333 -201 166h108
c0 -48 31 -72 93 -72c76.667 0 114.667 28 114 84c0 48 -32.667 71.667 -98 71h-90l45 130c-285.333 13.333 -428 188.666 -428 525.999c0 359.333 163.667 538.666 491 537.999c143.333 0 249.166 -28.667 317.499 -86s102.5 -135.666 102.5 -234.999
c0 -110.667 -53.833 -190.167 -161.5 -238.5s-300.834 -73.833 -579.501 -76.5c20.667 -198 120.334 -297 299.001 -297zM569.002 912.999c-101.333 0 -180.167 -29.666 -236.5 -88.999s-85.833 -160.666 -88.5 -303.999c225.333 1.33301 378.5 16.666 459.5 45.999
s121.5 81.666 121.5 156.999c0 68 -24.5 116.667 -73.5 146s-109.833 44 -182.5 44z" />
    <glyph glyph-name="ecircumflex.aalt" horiz-adv-x="1056" 
d="M543 1348l-142 -191h-157l223 289h151l224 -289h-158zM547 111c87.333 0 153.168 16.334 197.501 49.001s66.5 77.667 66.5 135h164c0 -110.667 -40 -190.834 -120 -240.501s-184 -74.5 -312 -74.5c-310 0 -465 175.333 -465 526c0 359.333 163.667 538.666 491 537.999
c143.333 0 249.166 -28.667 317.499 -86s102.5 -135.666 102.5 -234.999c0 -110.667 -53.833 -190.167 -161.5 -238.5s-300.834 -73.833 -579.501 -76.5c20.667 -198 120.334 -297 299.001 -297zM569.002 913.001c-101.333 0 -180.167 -29.666 -236.5 -88.999
s-85.833 -160.666 -88.5 -303.999c225.333 1.33301 378.5 16.666 459.5 45.999s121.5 81.666 121.5 156.999c0 68 -24.5 116.667 -73.5 146s-109.833 44 -182.5 44z" />
    <glyph glyph-name="uni1EC7.aalt" horiz-adv-x="1056" 
d="M543 1348l-142 -191h-157l223 289h151l224 -289h-158zM547 111c87.333 0 153.168 16.334 197.501 49.001s66.5 77.667 66.5 135h164c0 -110.667 -40 -190.834 -120 -240.501s-184 -74.5 -312 -74.5c-310 0 -465 175.333 -465 526c0 359.333 163.667 538.666 491 537.999
c143.333 0 249.166 -28.667 317.499 -86s102.5 -135.666 102.5 -234.999c0 -110.667 -53.833 -190.167 -161.5 -238.5s-300.834 -73.833 -579.501 -76.5c20.667 -198 120.334 -297 299.001 -297zM569.002 913.001c-101.333 0 -180.167 -29.666 -236.5 -88.999
s-85.833 -160.666 -88.5 -303.999c225.333 1.33301 378.5 16.666 459.5 45.999s121.5 81.666 121.5 156.999c0 68 -24.5 116.667 -73.5 146s-109.833 44 -182.5 44zM461.001 -341.998v182h162v-182h-162z" />
    <glyph glyph-name="edieresis.aalt" horiz-adv-x="1056" 
d="M449 1313v-174h-152v174h152zM795 1313v-174h-154v174h154zM547 111c87.333 0 153.168 16.334 197.501 49.001s66.5 77.667 66.5 135h164c0 -110.667 -40 -190.834 -120 -240.501s-184 -74.5 -312 -74.5c-310 0 -465 175.333 -465 526
c0 359.333 163.667 538.666 491 537.999c143.333 0 249.166 -28.667 317.499 -86s102.5 -135.666 102.5 -234.999c0 -110.667 -53.833 -190.167 -161.5 -238.5s-300.834 -73.833 -579.501 -76.5c20.667 -198 120.334 -297 299.001 -297zM569.002 913.001
c-101.333 0 -180.167 -29.666 -236.5 -88.999s-85.833 -160.666 -88.5 -303.999c225.333 1.33301 378.5 16.666 459.5 45.999s121.5 81.666 121.5 156.999c0 68 -24.5 116.667 -73.5 146s-109.833 44 -182.5 44z" />
    <glyph glyph-name="edotaccent.aalt" horiz-adv-x="1056" 
d="M625 1317v-182h-162v182h162zM547 111c87.333 0 153.168 16.334 197.501 49.001s66.5 77.667 66.5 135h164c0 -110.667 -40 -190.834 -120 -240.501s-184 -74.5 -312 -74.5c-310 0 -465 175.333 -465 526c0 359.333 163.667 538.666 491 537.999
c143.333 0 249.166 -28.667 317.499 -86s102.5 -135.666 102.5 -234.999c0 -110.667 -53.833 -190.167 -161.5 -238.5s-300.834 -73.833 -579.501 -76.5c20.667 -198 120.334 -297 299.001 -297zM569.002 913.001c-101.333 0 -180.167 -29.666 -236.5 -88.999
s-85.833 -160.666 -88.5 -303.999c225.333 1.33301 378.5 16.666 459.5 45.999s121.5 81.666 121.5 156.999c0 68 -24.5 116.667 -73.5 146s-109.833 44 -182.5 44z" />
    <glyph glyph-name="uni1EB9.aalt" horiz-adv-x="1056" 
d="M547 111c87.333 0 153.168 16.334 197.501 49.001s66.5 77.667 66.5 135h164c0 -110.667 -40 -190.834 -120 -240.501s-184 -74.5 -312 -74.5c-310 0 -465 175.333 -465 526c0 359.333 163.667 538.666 491 537.999c143.333 0 249.166 -28.667 317.499 -86
s102.5 -135.666 102.5 -234.999c0 -110.667 -53.833 -190.167 -161.5 -238.5s-300.834 -73.833 -579.501 -76.5c20.667 -198 120.334 -297 299.001 -297zM569.002 913.001c-101.333 0 -180.167 -29.666 -236.5 -88.999s-85.833 -160.666 -88.5 -303.999
c225.333 1.33301 378.5 16.666 459.5 45.999s121.5 81.666 121.5 156.999c0 68 -24.5 116.667 -73.5 146s-109.833 44 -182.5 44zM461.001 -341.998v182h162v-182h-162z" />
    <glyph glyph-name="egrave.aalt" horiz-adv-x="1056" 
d="M606 1157h-162l-247 289h209zM547 111c87.333 0 153.168 16.334 197.501 49.001s66.5 77.667 66.5 135h164c0 -110.667 -40 -190.834 -120 -240.501s-184 -74.5 -312 -74.5c-310 0 -465 175.333 -465 526c0 359.333 163.667 538.666 491 537.999
c143.333 0 249.166 -28.667 317.499 -86s102.5 -135.666 102.5 -234.999c0 -110.667 -53.833 -190.167 -161.5 -238.5s-300.834 -73.833 -579.501 -76.5c20.667 -198 120.334 -297 299.001 -297zM569.002 913.001c-101.333 0 -180.167 -29.666 -236.5 -88.999
s-85.833 -160.666 -88.5 -303.999c225.333 1.33301 378.5 16.666 459.5 45.999s121.5 81.666 121.5 156.999c0 68 -24.5 116.667 -73.5 146s-109.833 44 -182.5 44z" />
    <glyph glyph-name="emacron.aalt" horiz-adv-x="1056" 
d="M782 1284v-123h-481v123h481zM547 111c87.333 0 153.168 16.334 197.501 49.001s66.5 77.667 66.5 135h164c0 -110.667 -40 -190.834 -120 -240.501s-184 -74.5 -312 -74.5c-310 0 -465 175.333 -465 526c0 359.333 163.667 538.666 491 537.999
c143.333 0 249.166 -28.667 317.499 -86s102.5 -135.666 102.5 -234.999c0 -110.667 -53.833 -190.167 -161.5 -238.5s-300.834 -73.833 -579.501 -76.5c20.667 -198 120.334 -297 299.001 -297zM569.002 913.001c-101.333 0 -180.167 -29.666 -236.5 -88.999
s-85.833 -160.666 -88.5 -303.999c225.333 1.33301 378.5 16.666 459.5 45.999s121.5 81.666 121.5 156.999c0 68 -24.5 116.667 -73.5 146s-109.833 44 -182.5 44z" />
    <glyph glyph-name="eogonek.aalt" horiz-adv-x="1056" 
d="M547 111c87.333 0 153.168 16.3311 197.501 48.998s66.5 77.667 66.5 135h164c0 -126.667 -56.667 -216 -170 -268l-47 -25c-106.667 -56 -160 -118.667 -160 -188c0 -32.667 12.667 -57.667 38 -75s59 -26 101 -26c32.667 0 69.667 6.33301 111 19v-105
c-54.667 -19.333 -105.334 -28.666 -152.001 -27.999c-70.667 0 -126.5 16.333 -167.5 49s-61.5 76.334 -61.5 131.001c0 79.333 47.667 147 143 203c-15.333 -1.33301 -37.666 -2 -66.999 -2c-310 0 -465 175.333 -465 526c0 359.333 163.667 538.666 491 537.999
c143.333 0 249.166 -28.667 317.499 -86s102.5 -135.666 102.5 -234.999c0 -110.667 -53.833 -190.167 -161.5 -238.5s-300.834 -73.833 -579.501 -76.5c20.667 -198 120.334 -297 299.001 -297zM569.002 912.998c-101.333 0 -180.167 -29.666 -236.5 -88.999
s-85.833 -160.666 -88.5 -303.999c225.333 1.33301 378.5 16.666 459.5 45.999s121.5 81.666 121.5 156.999c0 68 -24.5 116.667 -73.5 146s-109.833 44 -182.5 44z" />
    <glyph glyph-name="uni1EBD.aalt" horiz-adv-x="1056" 
d="M410 1229c-28.667 0 -51.668 -7.16699 -69.001 -21.5s-26 -34.5 -26 -60.5h-100c0 64 16.333 114.167 49 150.5s77.667 54.5 135 54.5c34 0 69.667 -7.66699 107 -23l86 -35c30 -12 58.667 -18 86 -18c28.667 0 51.5 7.16699 68.5 21.5s25.5 34.5 25.5 60.5h100
c0 -62.667 -16.667 -112.167 -50 -148.5s-78.666 -54.5 -135.999 -54.5c-35.333 0 -69.333 7 -102 21l-88 34c-31.333 12.667 -60 19 -86 19zM546.999 111c87.333 0 153.168 16.334 197.501 49.001s66.5 77.667 66.5 135h164c0 -110.667 -40 -190.834 -120 -240.501
s-184 -74.5 -312 -74.5c-310 0 -465 175.333 -465 526c0 359.333 163.667 538.666 491 537.999c143.333 0 249.166 -28.667 317.499 -86s102.5 -135.666 102.5 -234.999c0 -110.667 -53.833 -190.167 -161.5 -238.5s-300.834 -73.833 -579.501 -76.5
c20.667 -198 120.334 -297 299.001 -297zM569.001 913.001c-101.333 0 -180.167 -29.666 -236.5 -88.999s-85.833 -160.666 -88.5 -303.999c225.333 1.33301 378.5 16.666 459.5 45.999s121.5 81.666 121.5 156.999c0 68 -24.5 116.667 -73.5 146s-109.833 44 -182.5 44z
" />
    </font>
</defs>
</svg>
